<?xml version="1.0" encoding="utf-8" standalone="no"?>
<!DOCTYPE svg PUBLIC "-//W3C//DTD SVG 1.1//EN"
  "http://www.w3.org/Graphics/SVG/1.1/DTD/svg11.dtd">
<!-- Created with matplotlib (https://matplotlib.org/) -->
<svg height="360pt" version="1.1" viewBox="0 0 576 360" width="576pt" xmlns="http://www.w3.org/2000/svg" xmlns:xlink="http://www.w3.org/1999/xlink">
 <defs>
  <style type="text/css">
*{stroke-linecap:butt;stroke-linejoin:round;}
  </style>
 </defs>
 <g id="figure_1">
  <g id="patch_1">
   <path d="M 0 360 
L 576 360 
L 576 0 
L 0 0 
z
" style="fill:#ffffff;"/>
  </g>
  <g id="axes_1">
   <g id="patch_2">
    <path d="M 42.8 300.121875 
L 565.2 300.121875 
L 565.2 24.846875 
L 42.8 24.846875 
z
" style="fill:#ffffff;"/>
   </g>
   <g id="matplotlib.axis_1">
    <g id="xtick_1">
     <g id="text_1">
      <!-- 0 -->
      <defs>
       <path d="M 4.15625 35.296875 
Q 4.15625 48 6.765625 55.734375 
Q 9.375 63.484375 14.515625 67.671875 
Q 19.671875 71.875 27.484375 71.875 
Q 33.25 71.875 37.59375 69.546875 
Q 41.9375 67.234375 44.765625 62.859375 
Q 47.609375 58.5 49.21875 52.21875 
Q 50.828125 45.953125 50.828125 35.296875 
Q 50.828125 22.703125 48.234375 14.96875 
Q 45.65625 7.234375 40.5 3 
Q 35.359375 -1.21875 27.484375 -1.21875 
Q 17.140625 -1.21875 11.234375 6.203125 
Q 4.15625 15.140625 4.15625 35.296875 
z
M 13.1875 35.296875 
Q 13.1875 17.671875 17.3125 11.828125 
Q 21.4375 6 27.484375 6 
Q 33.546875 6 37.671875 11.859375 
Q 41.796875 17.71875 41.796875 35.296875 
Q 41.796875 52.984375 37.671875 58.78125 
Q 33.546875 64.59375 27.390625 64.59375 
Q 21.34375 64.59375 17.71875 59.46875 
Q 13.1875 52.9375 13.1875 35.296875 
z
" id="ArialMT-48"/>
      </defs>
      <g style="fill:#262626;" transform="translate(128.558728 314.279687)scale(0.1 -0.1)">
       <use xlink:href="#ArialMT-48"/>
      </g>
     </g>
    </g>
    <g id="xtick_2">
     <g id="text_2">
      <!-- 5 -->
      <defs>
       <path d="M 4.15625 18.75 
L 13.375 19.53125 
Q 14.40625 12.796875 18.140625 9.390625 
Q 21.875 6 27.15625 6 
Q 33.5 6 37.890625 10.78125 
Q 42.28125 15.578125 42.28125 23.484375 
Q 42.28125 31 38.0625 35.34375 
Q 33.84375 39.703125 27 39.703125 
Q 22.75 39.703125 19.328125 37.765625 
Q 15.921875 35.84375 13.96875 32.765625 
L 5.71875 33.84375 
L 12.640625 70.609375 
L 48.25 70.609375 
L 48.25 62.203125 
L 19.671875 62.203125 
L 15.828125 42.96875 
Q 22.265625 47.46875 29.34375 47.46875 
Q 38.71875 47.46875 45.15625 40.96875 
Q 51.609375 34.46875 51.609375 24.265625 
Q 51.609375 14.546875 45.953125 7.46875 
Q 39.0625 -1.21875 27.15625 -1.21875 
Q 17.390625 -1.21875 11.203125 4.25 
Q 5.03125 9.71875 4.15625 18.75 
z
" id="ArialMT-53"/>
      </defs>
      <g style="fill:#262626;" transform="translate(238.225132 314.279687)scale(0.1 -0.1)">
       <use xlink:href="#ArialMT-53"/>
      </g>
     </g>
    </g>
    <g id="xtick_3">
     <g id="text_3">
      <!-- 10 -->
      <defs>
       <path d="M 37.25 0 
L 28.46875 0 
L 28.46875 56 
Q 25.296875 52.984375 20.140625 49.953125 
Q 14.984375 46.921875 10.890625 45.40625 
L 10.890625 53.90625 
Q 18.265625 57.375 23.78125 62.296875 
Q 29.296875 67.234375 31.59375 71.875 
L 37.25 71.875 
z
" id="ArialMT-49"/>
      </defs>
      <g style="fill:#262626;" transform="translate(345.111067 314.279687)scale(0.1 -0.1)">
       <use xlink:href="#ArialMT-49"/>
       <use x="55.615234" xlink:href="#ArialMT-48"/>
      </g>
     </g>
    </g>
    <g id="xtick_4">
     <g id="text_4">
      <!-- 15 -->
      <g style="fill:#262626;" transform="translate(454.77747 314.279687)scale(0.1 -0.1)">
       <use xlink:href="#ArialMT-49"/>
       <use x="55.615234" xlink:href="#ArialMT-53"/>
      </g>
     </g>
    </g>
    <g id="text_5">
     <!-- % Case Fatality Rate -->
     <defs>
      <path d="M 5.8125 54.390625 
Q 5.8125 62.0625 9.671875 67.421875 
Q 13.53125 72.796875 20.84375 72.796875 
Q 27.59375 72.796875 32 67.984375 
Q 36.421875 63.1875 36.421875 53.859375 
Q 36.421875 44.78125 31.953125 39.875 
Q 27.484375 34.96875 20.953125 34.96875 
Q 14.453125 34.96875 10.125 39.796875 
Q 5.8125 44.625 5.8125 54.390625 
z
M 21.09375 66.75 
Q 17.828125 66.75 15.65625 63.90625 
Q 13.484375 61.078125 13.484375 53.515625 
Q 13.484375 46.625 15.671875 43.8125 
Q 17.875 41.015625 21.09375 41.015625 
Q 24.421875 41.015625 26.59375 43.84375 
Q 28.765625 46.6875 28.765625 54.203125 
Q 28.765625 61.140625 26.5625 63.9375 
Q 24.359375 66.75 21.09375 66.75 
z
M 21.140625 -2.640625 
L 60.296875 72.796875 
L 67.4375 72.796875 
L 28.421875 -2.640625 
z
M 52.09375 16.796875 
Q 52.09375 24.515625 55.953125 29.859375 
Q 59.8125 35.203125 67.1875 35.203125 
Q 73.921875 35.203125 78.34375 30.390625 
Q 82.765625 25.59375 82.765625 16.265625 
Q 82.765625 7.171875 78.296875 2.265625 
Q 73.828125 -2.640625 67.234375 -2.640625 
Q 60.75 -2.640625 56.421875 2.21875 
Q 52.09375 7.078125 52.09375 16.796875 
z
M 67.4375 29.15625 
Q 64.109375 29.15625 61.9375 26.3125 
Q 59.765625 23.484375 59.765625 15.921875 
Q 59.765625 9.078125 61.953125 6.25 
Q 64.15625 3.421875 67.390625 3.421875 
Q 70.75 3.421875 72.921875 6.25 
Q 75.09375 9.078125 75.09375 16.609375 
Q 75.09375 23.53125 72.890625 26.34375 
Q 70.703125 29.15625 67.4375 29.15625 
z
" id="ArialMT-37"/>
      <path id="ArialMT-32"/>
      <path d="M 58.796875 25.09375 
L 68.265625 22.703125 
Q 65.28125 11.03125 57.546875 4.90625 
Q 49.8125 -1.21875 38.625 -1.21875 
Q 27.046875 -1.21875 19.796875 3.484375 
Q 12.546875 8.203125 8.765625 17.140625 
Q 4.984375 26.078125 4.984375 36.328125 
Q 4.984375 47.515625 9.25 55.828125 
Q 13.53125 64.15625 21.40625 68.46875 
Q 29.296875 72.796875 38.765625 72.796875 
Q 49.515625 72.796875 56.828125 67.328125 
Q 64.15625 61.859375 67.046875 51.953125 
L 57.71875 49.75 
Q 55.21875 57.5625 50.484375 61.125 
Q 45.75 64.703125 38.578125 64.703125 
Q 30.328125 64.703125 24.78125 60.734375 
Q 19.234375 56.78125 16.984375 50.109375 
Q 14.75 43.453125 14.75 36.375 
Q 14.75 27.25 17.40625 20.4375 
Q 20.0625 13.625 25.671875 10.25 
Q 31.296875 6.890625 37.84375 6.890625 
Q 45.796875 6.890625 51.3125 11.46875 
Q 56.84375 16.0625 58.796875 25.09375 
z
" id="ArialMT-67"/>
      <path d="M 40.4375 6.390625 
Q 35.546875 2.25 31.03125 0.53125 
Q 26.515625 -1.171875 21.34375 -1.171875 
Q 12.796875 -1.171875 8.203125 3 
Q 3.609375 7.171875 3.609375 13.671875 
Q 3.609375 17.484375 5.34375 20.625 
Q 7.078125 23.78125 9.890625 25.6875 
Q 12.703125 27.59375 16.21875 28.5625 
Q 18.796875 29.25 24.03125 29.890625 
Q 34.671875 31.15625 39.703125 32.90625 
Q 39.75 34.71875 39.75 35.203125 
Q 39.75 40.578125 37.25 42.78125 
Q 33.890625 45.75 27.25 45.75 
Q 21.046875 45.75 18.09375 43.578125 
Q 15.140625 41.40625 13.71875 35.890625 
L 5.125 37.0625 
Q 6.296875 42.578125 8.984375 45.96875 
Q 11.671875 49.359375 16.75 51.1875 
Q 21.828125 53.03125 28.515625 53.03125 
Q 35.15625 53.03125 39.296875 51.46875 
Q 43.453125 49.90625 45.40625 47.53125 
Q 47.359375 45.171875 48.140625 41.546875 
Q 48.578125 39.3125 48.578125 33.453125 
L 48.578125 21.734375 
Q 48.578125 9.46875 49.140625 6.21875 
Q 49.703125 2.984375 51.375 0 
L 42.1875 0 
Q 40.828125 2.734375 40.4375 6.390625 
z
M 39.703125 26.03125 
Q 34.90625 24.078125 25.34375 22.703125 
Q 19.921875 21.921875 17.671875 20.9375 
Q 15.4375 19.96875 14.203125 18.09375 
Q 12.984375 16.21875 12.984375 13.921875 
Q 12.984375 10.40625 15.640625 8.0625 
Q 18.3125 5.71875 23.4375 5.71875 
Q 28.515625 5.71875 32.46875 7.9375 
Q 36.421875 10.15625 38.28125 14.015625 
Q 39.703125 17 39.703125 22.796875 
z
" id="ArialMT-97"/>
      <path d="M 3.078125 15.484375 
L 11.765625 16.84375 
Q 12.5 11.625 15.84375 8.84375 
Q 19.1875 6.0625 25.203125 6.0625 
Q 31.25 6.0625 34.171875 8.515625 
Q 37.109375 10.984375 37.109375 14.3125 
Q 37.109375 17.28125 34.515625 19 
Q 32.71875 20.171875 25.53125 21.96875 
Q 15.875 24.421875 12.140625 26.203125 
Q 8.40625 27.984375 6.46875 31.125 
Q 4.546875 34.28125 4.546875 38.09375 
Q 4.546875 41.546875 6.125 44.5 
Q 7.71875 47.46875 10.453125 49.421875 
Q 12.5 50.921875 16.03125 51.96875 
Q 19.578125 53.03125 23.640625 53.03125 
Q 29.734375 53.03125 34.34375 51.265625 
Q 38.96875 49.515625 41.15625 46.5 
Q 43.359375 43.5 44.1875 38.484375 
L 35.59375 37.3125 
Q 35.015625 41.3125 32.203125 43.546875 
Q 29.390625 45.796875 24.265625 45.796875 
Q 18.21875 45.796875 15.625 43.796875 
Q 13.03125 41.796875 13.03125 39.109375 
Q 13.03125 37.40625 14.109375 36.03125 
Q 15.1875 34.625 17.484375 33.6875 
Q 18.796875 33.203125 25.25 31.453125 
Q 34.578125 28.953125 38.25 27.359375 
Q 41.9375 25.78125 44.03125 22.75 
Q 46.140625 19.734375 46.140625 15.234375 
Q 46.140625 10.84375 43.578125 6.953125 
Q 41.015625 3.078125 36.171875 0.953125 
Q 31.34375 -1.171875 25.25 -1.171875 
Q 15.140625 -1.171875 9.84375 3.03125 
Q 4.546875 7.234375 3.078125 15.484375 
z
" id="ArialMT-115"/>
      <path d="M 42.09375 16.703125 
L 51.171875 15.578125 
Q 49.03125 7.625 43.21875 3.21875 
Q 37.40625 -1.171875 28.375 -1.171875 
Q 17 -1.171875 10.328125 5.828125 
Q 3.65625 12.84375 3.65625 25.484375 
Q 3.65625 38.578125 10.390625 45.796875 
Q 17.140625 53.03125 27.875 53.03125 
Q 38.28125 53.03125 44.875 45.953125 
Q 51.46875 38.875 51.46875 26.03125 
Q 51.46875 25.25 51.421875 23.6875 
L 12.75 23.6875 
Q 13.234375 15.140625 17.578125 10.59375 
Q 21.921875 6.0625 28.421875 6.0625 
Q 33.25 6.0625 36.671875 8.59375 
Q 40.09375 11.140625 42.09375 16.703125 
z
M 13.234375 30.90625 
L 42.1875 30.90625 
Q 41.609375 37.453125 38.875 40.71875 
Q 34.671875 45.796875 27.984375 45.796875 
Q 21.921875 45.796875 17.796875 41.75 
Q 13.671875 37.703125 13.234375 30.90625 
z
" id="ArialMT-101"/>
      <path d="M 8.203125 0 
L 8.203125 71.578125 
L 56.5 71.578125 
L 56.5 63.140625 
L 17.671875 63.140625 
L 17.671875 40.96875 
L 51.265625 40.96875 
L 51.265625 32.515625 
L 17.671875 32.515625 
L 17.671875 0 
z
" id="ArialMT-70"/>
      <path d="M 25.78125 7.859375 
L 27.046875 0.09375 
Q 23.34375 -0.6875 20.40625 -0.6875 
Q 15.625 -0.6875 12.984375 0.828125 
Q 10.359375 2.34375 9.28125 4.8125 
Q 8.203125 7.28125 8.203125 15.1875 
L 8.203125 45.015625 
L 1.765625 45.015625 
L 1.765625 51.859375 
L 8.203125 51.859375 
L 8.203125 64.703125 
L 16.9375 69.96875 
L 16.9375 51.859375 
L 25.78125 51.859375 
L 25.78125 45.015625 
L 16.9375 45.015625 
L 16.9375 14.703125 
Q 16.9375 10.9375 17.40625 9.859375 
Q 17.875 8.796875 18.921875 8.15625 
Q 19.96875 7.515625 21.921875 7.515625 
Q 23.390625 7.515625 25.78125 7.859375 
z
" id="ArialMT-116"/>
      <path d="M 6.390625 0 
L 6.390625 71.578125 
L 15.1875 71.578125 
L 15.1875 0 
z
" id="ArialMT-108"/>
      <path d="M 6.640625 61.46875 
L 6.640625 71.578125 
L 15.4375 71.578125 
L 15.4375 61.46875 
z
M 6.640625 0 
L 6.640625 51.859375 
L 15.4375 51.859375 
L 15.4375 0 
z
" id="ArialMT-105"/>
      <path d="M 6.203125 -19.96875 
L 5.21875 -11.71875 
Q 8.109375 -12.5 10.25 -12.5 
Q 13.1875 -12.5 14.9375 -11.515625 
Q 16.703125 -10.546875 17.828125 -8.796875 
Q 18.65625 -7.46875 20.515625 -2.25 
Q 20.75 -1.515625 21.296875 -0.09375 
L 1.609375 51.859375 
L 11.078125 51.859375 
L 21.875 21.828125 
Q 23.96875 16.109375 25.640625 9.8125 
Q 27.15625 15.875 29.25 21.625 
L 40.328125 51.859375 
L 49.125 51.859375 
L 29.390625 -0.875 
Q 26.21875 -9.421875 24.46875 -12.640625 
Q 22.125 -17 19.09375 -19.015625 
Q 16.0625 -21.046875 11.859375 -21.046875 
Q 9.328125 -21.046875 6.203125 -19.96875 
z
" id="ArialMT-121"/>
      <path d="M 7.859375 0 
L 7.859375 71.578125 
L 39.59375 71.578125 
Q 49.171875 71.578125 54.140625 69.640625 
Q 59.125 67.71875 62.109375 62.828125 
Q 65.09375 57.953125 65.09375 52.046875 
Q 65.09375 44.4375 60.15625 39.203125 
Q 55.21875 33.984375 44.921875 32.5625 
Q 48.6875 30.765625 50.640625 29 
Q 54.78125 25.203125 58.5 19.484375 
L 70.953125 0 
L 59.03125 0 
L 49.5625 14.890625 
Q 45.40625 21.34375 42.71875 24.75 
Q 40.046875 28.171875 37.921875 29.53125 
Q 35.796875 30.90625 33.59375 31.453125 
Q 31.984375 31.78125 28.328125 31.78125 
L 17.328125 31.78125 
L 17.328125 0 
z
M 17.328125 39.984375 
L 37.703125 39.984375 
Q 44.1875 39.984375 47.84375 41.328125 
Q 51.515625 42.671875 53.421875 45.625 
Q 55.328125 48.578125 55.328125 52.046875 
Q 55.328125 57.125 51.640625 60.390625 
Q 47.953125 63.671875 39.984375 63.671875 
L 17.328125 63.671875 
z
" id="ArialMT-82"/>
     </defs>
     <g style="fill:#262626;" transform="translate(228.8625 345.914688)scale(0.16 -0.16)">
      <use xlink:href="#ArialMT-37"/>
      <use x="88.916016" xlink:href="#ArialMT-32"/>
      <use x="116.699219" xlink:href="#ArialMT-67"/>
      <use x="188.916016" xlink:href="#ArialMT-97"/>
      <use x="244.53125" xlink:href="#ArialMT-115"/>
      <use x="294.53125" xlink:href="#ArialMT-101"/>
      <use x="350.146484" xlink:href="#ArialMT-32"/>
      <use x="377.929688" xlink:href="#ArialMT-70"/>
      <use x="439.013672" xlink:href="#ArialMT-97"/>
      <use x="494.628906" xlink:href="#ArialMT-116"/>
      <use x="522.412109" xlink:href="#ArialMT-97"/>
      <use x="578.027344" xlink:href="#ArialMT-108"/>
      <use x="600.244141" xlink:href="#ArialMT-105"/>
      <use x="622.460938" xlink:href="#ArialMT-116"/>
      <use x="650.244141" xlink:href="#ArialMT-121"/>
      <use x="700.244141" xlink:href="#ArialMT-32"/>
      <use x="728.027344" xlink:href="#ArialMT-82"/>
      <use x="800.244141" xlink:href="#ArialMT-97"/>
      <use x="855.859375" xlink:href="#ArialMT-116"/>
      <use x="883.642578" xlink:href="#ArialMT-101"/>
     </g>
    </g>
   </g>
   <g id="matplotlib.axis_2">
    <g id="ytick_1">
     <g id="text_6">
      <!-- 0.000 -->
      <defs>
       <path d="M 9.078125 0 
L 9.078125 10.015625 
L 19.09375 10.015625 
L 19.09375 0 
z
" id="ArialMT-46"/>
      </defs>
      <g style="fill:#262626;" transform="translate(10.778125 303.700781)scale(0.1 -0.1)">
       <use xlink:href="#ArialMT-48"/>
       <use x="55.615234" xlink:href="#ArialMT-46"/>
       <use x="83.398438" xlink:href="#ArialMT-48"/>
       <use x="139.013672" xlink:href="#ArialMT-48"/>
       <use x="194.628906" xlink:href="#ArialMT-48"/>
      </g>
     </g>
    </g>
    <g id="ytick_2">
     <g id="text_7">
      <!-- 0.025 -->
      <defs>
       <path d="M 50.34375 8.453125 
L 50.34375 0 
L 3.03125 0 
Q 2.9375 3.171875 4.046875 6.109375 
Q 5.859375 10.9375 9.828125 15.625 
Q 13.8125 20.3125 21.34375 26.46875 
Q 33.015625 36.03125 37.109375 41.625 
Q 41.21875 47.21875 41.21875 52.203125 
Q 41.21875 57.421875 37.46875 61 
Q 33.734375 64.59375 27.734375 64.59375 
Q 21.390625 64.59375 17.578125 60.78125 
Q 13.765625 56.984375 13.71875 50.25 
L 4.6875 51.171875 
Q 5.609375 61.28125 11.65625 66.578125 
Q 17.71875 71.875 27.9375 71.875 
Q 38.234375 71.875 44.234375 66.15625 
Q 50.25 60.453125 50.25 52 
Q 50.25 47.703125 48.484375 43.546875 
Q 46.734375 39.40625 42.65625 34.8125 
Q 38.578125 30.21875 29.109375 22.21875 
Q 21.1875 15.578125 18.9375 13.203125 
Q 16.703125 10.84375 15.234375 8.453125 
z
" id="ArialMT-50"/>
      </defs>
      <g style="fill:#262626;" transform="translate(10.778125 271.029039)scale(0.1 -0.1)">
       <use xlink:href="#ArialMT-48"/>
       <use x="55.615234" xlink:href="#ArialMT-46"/>
       <use x="83.398438" xlink:href="#ArialMT-48"/>
       <use x="139.013672" xlink:href="#ArialMT-50"/>
       <use x="194.628906" xlink:href="#ArialMT-53"/>
      </g>
     </g>
    </g>
    <g id="ytick_3">
     <g id="text_8">
      <!-- 0.050 -->
      <g style="fill:#262626;" transform="translate(10.778125 238.357296)scale(0.1 -0.1)">
       <use xlink:href="#ArialMT-48"/>
       <use x="55.615234" xlink:href="#ArialMT-46"/>
       <use x="83.398438" xlink:href="#ArialMT-48"/>
       <use x="139.013672" xlink:href="#ArialMT-53"/>
       <use x="194.628906" xlink:href="#ArialMT-48"/>
      </g>
     </g>
    </g>
    <g id="ytick_4">
     <g id="text_9">
      <!-- 0.075 -->
      <defs>
       <path d="M 4.734375 62.203125 
L 4.734375 70.65625 
L 51.078125 70.65625 
L 51.078125 63.8125 
Q 44.234375 56.546875 37.515625 44.484375 
Q 30.8125 32.421875 27.15625 19.671875 
Q 24.515625 10.6875 23.78125 0 
L 14.75 0 
Q 14.890625 8.453125 18.0625 20.40625 
Q 21.234375 32.375 27.171875 43.484375 
Q 33.109375 54.59375 39.796875 62.203125 
z
" id="ArialMT-55"/>
      </defs>
      <g style="fill:#262626;" transform="translate(10.778125 205.685554)scale(0.1 -0.1)">
       <use xlink:href="#ArialMT-48"/>
       <use x="55.615234" xlink:href="#ArialMT-46"/>
       <use x="83.398438" xlink:href="#ArialMT-48"/>
       <use x="139.013672" xlink:href="#ArialMT-55"/>
       <use x="194.628906" xlink:href="#ArialMT-53"/>
      </g>
     </g>
    </g>
    <g id="ytick_5">
     <g id="text_10">
      <!-- 0.100 -->
      <g style="fill:#262626;" transform="translate(10.778125 173.013811)scale(0.1 -0.1)">
       <use xlink:href="#ArialMT-48"/>
       <use x="55.615234" xlink:href="#ArialMT-46"/>
       <use x="83.398438" xlink:href="#ArialMT-49"/>
       <use x="139.013672" xlink:href="#ArialMT-48"/>
       <use x="194.628906" xlink:href="#ArialMT-48"/>
      </g>
     </g>
    </g>
    <g id="ytick_6">
     <g id="text_11">
      <!-- 0.125 -->
      <g style="fill:#262626;" transform="translate(10.778125 140.342069)scale(0.1 -0.1)">
       <use xlink:href="#ArialMT-48"/>
       <use x="55.615234" xlink:href="#ArialMT-46"/>
       <use x="83.398438" xlink:href="#ArialMT-49"/>
       <use x="139.013672" xlink:href="#ArialMT-50"/>
       <use x="194.628906" xlink:href="#ArialMT-53"/>
      </g>
     </g>
    </g>
    <g id="ytick_7">
     <g id="text_12">
      <!-- 0.150 -->
      <g style="fill:#262626;" transform="translate(10.778125 107.670326)scale(0.1 -0.1)">
       <use xlink:href="#ArialMT-48"/>
       <use x="55.615234" xlink:href="#ArialMT-46"/>
       <use x="83.398438" xlink:href="#ArialMT-49"/>
       <use x="139.013672" xlink:href="#ArialMT-53"/>
       <use x="194.628906" xlink:href="#ArialMT-48"/>
      </g>
     </g>
    </g>
    <g id="ytick_8">
     <g id="text_13">
      <!-- 0.175 -->
      <g style="fill:#262626;" transform="translate(10.778125 74.998584)scale(0.1 -0.1)">
       <use xlink:href="#ArialMT-48"/>
       <use x="55.615234" xlink:href="#ArialMT-46"/>
       <use x="83.398438" xlink:href="#ArialMT-49"/>
       <use x="139.013672" xlink:href="#ArialMT-55"/>
       <use x="194.628906" xlink:href="#ArialMT-53"/>
      </g>
     </g>
    </g>
    <g id="ytick_9">
     <g id="text_14">
      <!-- 0.200 -->
      <g style="fill:#262626;" transform="translate(10.778125 42.326841)scale(0.1 -0.1)">
       <use xlink:href="#ArialMT-48"/>
       <use x="55.615234" xlink:href="#ArialMT-46"/>
       <use x="83.398438" xlink:href="#ArialMT-50"/>
       <use x="139.013672" xlink:href="#ArialMT-48"/>
       <use x="194.628906" xlink:href="#ArialMT-48"/>
      </g>
     </g>
    </g>
   </g>
   <g id="patch_3">
    <path clip-path="url(#pa0988a9783)" d="M 135.476436 300.121875 
L 169.181149 300.121875 
L 169.181149 37.955208 
L 135.476436 37.955208 
z
" style="fill:#1f77b4;opacity:0.4;stroke:#ffffff;stroke-linejoin:miter;"/>
   </g>
   <g id="patch_4">
    <path clip-path="url(#pa0988a9783)" d="M 169.181149 300.121875 
L 202.885862 300.121875 
L 202.885862 101.898298 
L 169.181149 101.898298 
z
" style="fill:#1f77b4;opacity:0.4;stroke:#ffffff;stroke-linejoin:miter;"/>
   </g>
   <g id="patch_5">
    <path clip-path="url(#pa0988a9783)" d="M 202.885862 300.121875 
L 236.590574 300.121875 
L 236.590574 146.65846 
L 202.885862 146.65846 
z
" style="fill:#1f77b4;opacity:0.4;stroke:#ffffff;stroke-linejoin:miter;"/>
   </g>
   <g id="patch_6">
    <path clip-path="url(#pa0988a9783)" d="M 236.590574 300.121875 
L 270.295287 300.121875 
L 270.295287 204.207241 
L 236.590574 204.207241 
z
" style="fill:#1f77b4;opacity:0.4;stroke:#ffffff;stroke-linejoin:miter;"/>
   </g>
   <g id="patch_7">
    <path clip-path="url(#pa0988a9783)" d="M 270.295287 300.121875 
L 304 300.121875 
L 304 255.361712 
L 270.295287 255.361712 
z
" style="fill:#1f77b4;opacity:0.4;stroke:#ffffff;stroke-linejoin:miter;"/>
   </g>
   <g id="patch_8">
    <path clip-path="url(#pa0988a9783)" d="M 304 300.121875 
L 337.704713 300.121875 
L 337.704713 274.544639 
L 304 274.544639 
z
" style="fill:#1f77b4;opacity:0.4;stroke:#ffffff;stroke-linejoin:miter;"/>
   </g>
   <g id="patch_9">
    <path clip-path="url(#pa0988a9783)" d="M 337.704713 300.121875 
L 371.409426 300.121875 
L 371.409426 268.15033 
L 337.704713 268.15033 
z
" style="fill:#1f77b4;opacity:0.4;stroke:#ffffff;stroke-linejoin:miter;"/>
   </g>
   <g id="patch_10">
    <path clip-path="url(#pa0988a9783)" d="M 371.409426 300.121875 
L 405.114138 300.121875 
L 405.114138 293.727566 
L 371.409426 293.727566 
z
" style="fill:#1f77b4;opacity:0.4;stroke:#ffffff;stroke-linejoin:miter;"/>
   </g>
   <g id="patch_11">
    <path clip-path="url(#pa0988a9783)" d="M 405.114138 300.121875 
L 438.818851 300.121875 
L 438.818851 274.544639 
L 405.114138 274.544639 
z
" style="fill:#1f77b4;opacity:0.4;stroke:#ffffff;stroke-linejoin:miter;"/>
   </g>
   <g id="patch_12">
    <path clip-path="url(#pa0988a9783)" d="M 438.818851 300.121875 
L 472.523564 300.121875 
L 472.523564 293.727566 
L 438.818851 293.727566 
z
" style="fill:#1f77b4;opacity:0.4;stroke:#ffffff;stroke-linejoin:miter;"/>
   </g>
   <g id="LineCollection_1">
    <path clip-path="url(#pa0988a9783)" d="M 472.523564 300.121875 
L 472.523564 286.358125 
" style="fill:none;stroke:#1f77b4;"/>
    <path clip-path="url(#pa0988a9783)" d="M 421.404924 300.121875 
L 421.404924 286.358125 
" style="fill:none;stroke:#1f77b4;"/>
    <path clip-path="url(#pa0988a9783)" d="M 418.793928 300.121875 
L 418.793928 286.358125 
" style="fill:none;stroke:#1f77b4;"/>
    <path clip-path="url(#pa0988a9783)" d="M 415.616633 300.121875 
L 415.616633 286.358125 
" style="fill:none;stroke:#1f77b4;"/>
    <path clip-path="url(#pa0988a9783)" d="M 411.457808 300.121875 
L 411.457808 286.358125 
" style="fill:none;stroke:#1f77b4;"/>
    <path clip-path="url(#pa0988a9783)" d="M 374.947644 300.121875 
L 374.947644 286.358125 
" style="fill:none;stroke:#1f77b4;"/>
    <path clip-path="url(#pa0988a9783)" d="M 370.61135 300.121875 
L 370.61135 286.358125 
" style="fill:none;stroke:#1f77b4;"/>
    <path clip-path="url(#pa0988a9783)" d="M 362.322408 300.121875 
L 362.322408 286.358125 
" style="fill:none;stroke:#1f77b4;"/>
    <path clip-path="url(#pa0988a9783)" d="M 354.389509 300.121875 
L 354.389509 286.358125 
" style="fill:none;stroke:#1f77b4;"/>
    <path clip-path="url(#pa0988a9783)" d="M 352.566133 300.121875 
L 352.566133 286.358125 
" style="fill:none;stroke:#1f77b4;"/>
    <path clip-path="url(#pa0988a9783)" d="M 343.596752 300.121875 
L 343.596752 286.358125 
" style="fill:none;stroke:#1f77b4;"/>
    <path clip-path="url(#pa0988a9783)" d="M 331.62558 300.121875 
L 331.62558 286.358125 
" style="fill:none;stroke:#1f77b4;"/>
    <path clip-path="url(#pa0988a9783)" d="M 323.996392 300.121875 
L 323.996392 286.358125 
" style="fill:none;stroke:#1f77b4;"/>
    <path clip-path="url(#pa0988a9783)" d="M 317.473435 300.121875 
L 317.473435 286.358125 
" style="fill:none;stroke:#1f77b4;"/>
    <path clip-path="url(#pa0988a9783)" d="M 312.677344 300.121875 
L 312.677344 286.358125 
" style="fill:none;stroke:#1f77b4;"/>
    <path clip-path="url(#pa0988a9783)" d="M 296.275518 300.121875 
L 296.275518 286.358125 
" style="fill:none;stroke:#1f77b4;"/>
    <path clip-path="url(#pa0988a9783)" d="M 293.614066 300.121875 
L 293.614066 286.358125 
" style="fill:none;stroke:#1f77b4;"/>
    <path clip-path="url(#pa0988a9783)" d="M 291.570349 300.121875 
L 291.570349 286.358125 
" style="fill:none;stroke:#1f77b4;"/>
    <path clip-path="url(#pa0988a9783)" d="M 286.032361 300.121875 
L 286.032361 286.358125 
" style="fill:none;stroke:#1f77b4;"/>
    <path clip-path="url(#pa0988a9783)" d="M 285.256956 300.121875 
L 285.256956 286.358125 
" style="fill:none;stroke:#1f77b4;"/>
    <path clip-path="url(#pa0988a9783)" d="M 281.567147 300.121875 
L 281.567147 286.358125 
" style="fill:none;stroke:#1f77b4;"/>
    <path clip-path="url(#pa0988a9783)" d="M 271.715411 300.121875 
L 271.715411 286.358125 
" style="fill:none;stroke:#1f77b4;"/>
    <path clip-path="url(#pa0988a9783)" d="M 268.964031 300.121875 
L 268.964031 286.358125 
" style="fill:none;stroke:#1f77b4;"/>
    <path clip-path="url(#pa0988a9783)" d="M 268.499366 300.121875 
L 268.499366 286.358125 
" style="fill:none;stroke:#1f77b4;"/>
    <path clip-path="url(#pa0988a9783)" d="M 268.422201 300.121875 
L 268.422201 286.358125 
" style="fill:none;stroke:#1f77b4;"/>
    <path clip-path="url(#pa0988a9783)" d="M 265.788968 300.121875 
L 265.788968 286.358125 
" style="fill:none;stroke:#1f77b4;"/>
    <path clip-path="url(#pa0988a9783)" d="M 260.834581 300.121875 
L 260.834581 286.358125 
" style="fill:none;stroke:#1f77b4;"/>
    <path clip-path="url(#pa0988a9783)" d="M 253.793555 300.121875 
L 253.793555 286.358125 
" style="fill:none;stroke:#1f77b4;"/>
    <path clip-path="url(#pa0988a9783)" d="M 249.897471 300.121875 
L 249.897471 286.358125 
" style="fill:none;stroke:#1f77b4;"/>
    <path clip-path="url(#pa0988a9783)" d="M 246.042851 300.121875 
L 246.042851 286.358125 
" style="fill:none;stroke:#1f77b4;"/>
    <path clip-path="url(#pa0988a9783)" d="M 244.409879 300.121875 
L 244.409879 286.358125 
" style="fill:none;stroke:#1f77b4;"/>
    <path clip-path="url(#pa0988a9783)" d="M 242.337581 300.121875 
L 242.337581 286.358125 
" style="fill:none;stroke:#1f77b4;"/>
    <path clip-path="url(#pa0988a9783)" d="M 240.324443 300.121875 
L 240.324443 286.358125 
" style="fill:none;stroke:#1f77b4;"/>
    <path clip-path="url(#pa0988a9783)" d="M 239.63791 300.121875 
L 239.63791 286.358125 
" style="fill:none;stroke:#1f77b4;"/>
    <path clip-path="url(#pa0988a9783)" d="M 238.88723 300.121875 
L 238.88723 286.358125 
" style="fill:none;stroke:#1f77b4;"/>
    <path clip-path="url(#pa0988a9783)" d="M 238.545136 300.121875 
L 238.545136 286.358125 
" style="fill:none;stroke:#1f77b4;"/>
    <path clip-path="url(#pa0988a9783)" d="M 237.041754 300.121875 
L 237.041754 286.358125 
" style="fill:none;stroke:#1f77b4;"/>
    <path clip-path="url(#pa0988a9783)" d="M 234.526221 300.121875 
L 234.526221 286.358125 
" style="fill:none;stroke:#1f77b4;"/>
    <path clip-path="url(#pa0988a9783)" d="M 233.400996 300.121875 
L 233.400996 286.358125 
" style="fill:none;stroke:#1f77b4;"/>
    <path clip-path="url(#pa0988a9783)" d="M 232.673656 300.121875 
L 232.673656 286.358125 
" style="fill:none;stroke:#1f77b4;"/>
    <path clip-path="url(#pa0988a9783)" d="M 231.542002 300.121875 
L 231.542002 286.358125 
" style="fill:none;stroke:#1f77b4;"/>
    <path clip-path="url(#pa0988a9783)" d="M 231.035927 300.121875 
L 231.035927 286.358125 
" style="fill:none;stroke:#1f77b4;"/>
    <path clip-path="url(#pa0988a9783)" d="M 230.995118 300.121875 
L 230.995118 286.358125 
" style="fill:none;stroke:#1f77b4;"/>
    <path clip-path="url(#pa0988a9783)" d="M 229.904987 300.121875 
L 229.904987 286.358125 
" style="fill:none;stroke:#1f77b4;"/>
    <path clip-path="url(#pa0988a9783)" d="M 229.757764 300.121875 
L 229.757764 286.358125 
" style="fill:none;stroke:#1f77b4;"/>
    <path clip-path="url(#pa0988a9783)" d="M 228.967888 300.121875 
L 228.967888 286.358125 
" style="fill:none;stroke:#1f77b4;"/>
    <path clip-path="url(#pa0988a9783)" d="M 228.820444 300.121875 
L 228.820444 286.358125 
" style="fill:none;stroke:#1f77b4;"/>
    <path clip-path="url(#pa0988a9783)" d="M 225.071166 300.121875 
L 225.071166 286.358125 
" style="fill:none;stroke:#1f77b4;"/>
    <path clip-path="url(#pa0988a9783)" d="M 223.875743 300.121875 
L 223.875743 286.358125 
" style="fill:none;stroke:#1f77b4;"/>
    <path clip-path="url(#pa0988a9783)" d="M 220.426446 300.121875 
L 220.426446 286.358125 
" style="fill:none;stroke:#1f77b4;"/>
    <path clip-path="url(#pa0988a9783)" d="M 219.381758 300.121875 
L 219.381758 286.358125 
" style="fill:none;stroke:#1f77b4;"/>
    <path clip-path="url(#pa0988a9783)" d="M 219.07232 300.121875 
L 219.07232 286.358125 
" style="fill:none;stroke:#1f77b4;"/>
    <path clip-path="url(#pa0988a9783)" d="M 214.106294 300.121875 
L 214.106294 286.358125 
" style="fill:none;stroke:#1f77b4;"/>
    <path clip-path="url(#pa0988a9783)" d="M 214.073545 300.121875 
L 214.073545 286.358125 
" style="fill:none;stroke:#1f77b4;"/>
    <path clip-path="url(#pa0988a9783)" d="M 212.57357 300.121875 
L 212.57357 286.358125 
" style="fill:none;stroke:#1f77b4;"/>
    <path clip-path="url(#pa0988a9783)" d="M 212.354017 300.121875 
L 212.354017 286.358125 
" style="fill:none;stroke:#1f77b4;"/>
    <path clip-path="url(#pa0988a9783)" d="M 209.636243 300.121875 
L 209.636243 286.358125 
" style="fill:none;stroke:#1f77b4;"/>
    <path clip-path="url(#pa0988a9783)" d="M 208.954377 300.121875 
L 208.954377 286.358125 
" style="fill:none;stroke:#1f77b4;"/>
    <path clip-path="url(#pa0988a9783)" d="M 208.750776 300.121875 
L 208.750776 286.358125 
" style="fill:none;stroke:#1f77b4;"/>
    <path clip-path="url(#pa0988a9783)" d="M 203.961137 300.121875 
L 203.961137 286.358125 
" style="fill:none;stroke:#1f77b4;"/>
    <path clip-path="url(#pa0988a9783)" d="M 203.429593 300.121875 
L 203.429593 286.358125 
" style="fill:none;stroke:#1f77b4;"/>
    <path clip-path="url(#pa0988a9783)" d="M 202.091715 300.121875 
L 202.091715 286.358125 
" style="fill:none;stroke:#1f77b4;"/>
    <path clip-path="url(#pa0988a9783)" d="M 201.339029 300.121875 
L 201.339029 286.358125 
" style="fill:none;stroke:#1f77b4;"/>
    <path clip-path="url(#pa0988a9783)" d="M 201.279505 300.121875 
L 201.279505 286.358125 
" style="fill:none;stroke:#1f77b4;"/>
    <path clip-path="url(#pa0988a9783)" d="M 196.007346 300.121875 
L 196.007346 286.358125 
" style="fill:none;stroke:#1f77b4;"/>
    <path clip-path="url(#pa0988a9783)" d="M 196.007346 300.121875 
L 196.007346 286.358125 
" style="fill:none;stroke:#1f77b4;"/>
    <path clip-path="url(#pa0988a9783)" d="M 195.848846 300.121875 
L 195.848846 286.358125 
" style="fill:none;stroke:#1f77b4;"/>
    <path clip-path="url(#pa0988a9783)" d="M 194.272096 300.121875 
L 194.272096 286.358125 
" style="fill:none;stroke:#1f77b4;"/>
    <path clip-path="url(#pa0988a9783)" d="M 193.255592 300.121875 
L 193.255592 286.358125 
" style="fill:none;stroke:#1f77b4;"/>
    <path clip-path="url(#pa0988a9783)" d="M 192.264976 300.121875 
L 192.264976 286.358125 
" style="fill:none;stroke:#1f77b4;"/>
    <path clip-path="url(#pa0988a9783)" d="M 192.264976 300.121875 
L 192.264976 286.358125 
" style="fill:none;stroke:#1f77b4;"/>
    <path clip-path="url(#pa0988a9783)" d="M 191.650693 300.121875 
L 191.650693 286.358125 
" style="fill:none;stroke:#1f77b4;"/>
    <path clip-path="url(#pa0988a9783)" d="M 191.466006 300.121875 
L 191.466006 286.358125 
" style="fill:none;stroke:#1f77b4;"/>
    <path clip-path="url(#pa0988a9783)" d="M 189.91263 300.121875 
L 189.91263 286.358125 
" style="fill:none;stroke:#1f77b4;"/>
    <path clip-path="url(#pa0988a9783)" d="M 189.639747 300.121875 
L 189.639747 286.358125 
" style="fill:none;stroke:#1f77b4;"/>
    <path clip-path="url(#pa0988a9783)" d="M 186.172398 300.121875 
L 186.172398 286.358125 
" style="fill:none;stroke:#1f77b4;"/>
    <path clip-path="url(#pa0988a9783)" d="M 183.918979 300.121875 
L 183.918979 286.358125 
" style="fill:none;stroke:#1f77b4;"/>
    <path clip-path="url(#pa0988a9783)" d="M 180.579358 300.121875 
L 180.579358 286.358125 
" style="fill:none;stroke:#1f77b4;"/>
    <path clip-path="url(#pa0988a9783)" d="M 180.152136 300.121875 
L 180.152136 286.358125 
" style="fill:none;stroke:#1f77b4;"/>
    <path clip-path="url(#pa0988a9783)" d="M 180.124992 300.121875 
L 180.124992 286.358125 
" style="fill:none;stroke:#1f77b4;"/>
    <path clip-path="url(#pa0988a9783)" d="M 179.888681 300.121875 
L 179.888681 286.358125 
" style="fill:none;stroke:#1f77b4;"/>
    <path clip-path="url(#pa0988a9783)" d="M 179.319829 300.121875 
L 179.319829 286.358125 
" style="fill:none;stroke:#1f77b4;"/>
    <path clip-path="url(#pa0988a9783)" d="M 177.935251 300.121875 
L 177.935251 286.358125 
" style="fill:none;stroke:#1f77b4;"/>
    <path clip-path="url(#pa0988a9783)" d="M 176.679312 300.121875 
L 176.679312 286.358125 
" style="fill:none;stroke:#1f77b4;"/>
    <path clip-path="url(#pa0988a9783)" d="M 176.207159 300.121875 
L 176.207159 286.358125 
" style="fill:none;stroke:#1f77b4;"/>
    <path clip-path="url(#pa0988a9783)" d="M 175.898909 300.121875 
L 175.898909 286.358125 
" style="fill:none;stroke:#1f77b4;"/>
    <path clip-path="url(#pa0988a9783)" d="M 175.309217 300.121875 
L 175.309217 286.358125 
" style="fill:none;stroke:#1f77b4;"/>
    <path clip-path="url(#pa0988a9783)" d="M 172.912905 300.121875 
L 172.912905 286.358125 
" style="fill:none;stroke:#1f77b4;"/>
    <path clip-path="url(#pa0988a9783)" d="M 170.873258 300.121875 
L 170.873258 286.358125 
" style="fill:none;stroke:#1f77b4;"/>
    <path clip-path="url(#pa0988a9783)" d="M 170.505769 300.121875 
L 170.505769 286.358125 
" style="fill:none;stroke:#1f77b4;"/>
    <path clip-path="url(#pa0988a9783)" d="M 169.626719 300.121875 
L 169.626719 286.358125 
" style="fill:none;stroke:#1f77b4;"/>
    <path clip-path="url(#pa0988a9783)" d="M 169.481045 300.121875 
L 169.481045 286.358125 
" style="fill:none;stroke:#1f77b4;"/>
    <path clip-path="url(#pa0988a9783)" d="M 168.3054 300.121875 
L 168.3054 286.358125 
" style="fill:none;stroke:#1f77b4;"/>
    <path clip-path="url(#pa0988a9783)" d="M 168.150297 300.121875 
L 168.150297 286.358125 
" style="fill:none;stroke:#1f77b4;"/>
    <path clip-path="url(#pa0988a9783)" d="M 167.231592 300.121875 
L 167.231592 286.358125 
" style="fill:none;stroke:#1f77b4;"/>
    <path clip-path="url(#pa0988a9783)" d="M 167.023308 300.121875 
L 167.023308 286.358125 
" style="fill:none;stroke:#1f77b4;"/>
    <path clip-path="url(#pa0988a9783)" d="M 167.003068 300.121875 
L 167.003068 286.358125 
" style="fill:none;stroke:#1f77b4;"/>
    <path clip-path="url(#pa0988a9783)" d="M 164.900472 300.121875 
L 164.900472 286.358125 
" style="fill:none;stroke:#1f77b4;"/>
    <path clip-path="url(#pa0988a9783)" d="M 164.655572 300.121875 
L 164.655572 286.358125 
" style="fill:none;stroke:#1f77b4;"/>
    <path clip-path="url(#pa0988a9783)" d="M 161.802086 300.121875 
L 161.802086 286.358125 
" style="fill:none;stroke:#1f77b4;"/>
    <path clip-path="url(#pa0988a9783)" d="M 161.09704 300.121875 
L 161.09704 286.358125 
" style="fill:none;stroke:#1f77b4;"/>
    <path clip-path="url(#pa0988a9783)" d="M 160.897866 300.121875 
L 160.897866 286.358125 
" style="fill:none;stroke:#1f77b4;"/>
    <path clip-path="url(#pa0988a9783)" d="M 159.102843 300.121875 
L 159.102843 286.358125 
" style="fill:none;stroke:#1f77b4;"/>
    <path clip-path="url(#pa0988a9783)" d="M 158.928229 300.121875 
L 158.928229 286.358125 
" style="fill:none;stroke:#1f77b4;"/>
    <path clip-path="url(#pa0988a9783)" d="M 158.755797 300.121875 
L 158.755797 286.358125 
" style="fill:none;stroke:#1f77b4;"/>
    <path clip-path="url(#pa0988a9783)" d="M 158.438231 300.121875 
L 158.438231 286.358125 
" style="fill:none;stroke:#1f77b4;"/>
    <path clip-path="url(#pa0988a9783)" d="M 156.260366 300.121875 
L 156.260366 286.358125 
" style="fill:none;stroke:#1f77b4;"/>
    <path clip-path="url(#pa0988a9783)" d="M 155.763785 300.121875 
L 155.763785 286.358125 
" style="fill:none;stroke:#1f77b4;"/>
    <path clip-path="url(#pa0988a9783)" d="M 154.147984 300.121875 
L 154.147984 286.358125 
" style="fill:none;stroke:#1f77b4;"/>
    <path clip-path="url(#pa0988a9783)" d="M 154.095194 300.121875 
L 154.095194 286.358125 
" style="fill:none;stroke:#1f77b4;"/>
    <path clip-path="url(#pa0988a9783)" d="M 152.842413 300.121875 
L 152.842413 286.358125 
" style="fill:none;stroke:#1f77b4;"/>
    <path clip-path="url(#pa0988a9783)" d="M 152.795667 300.121875 
L 152.795667 286.358125 
" style="fill:none;stroke:#1f77b4;"/>
    <path clip-path="url(#pa0988a9783)" d="M 152.519403 300.121875 
L 152.519403 286.358125 
" style="fill:none;stroke:#1f77b4;"/>
    <path clip-path="url(#pa0988a9783)" d="M 151.966106 300.121875 
L 151.966106 286.358125 
" style="fill:none;stroke:#1f77b4;"/>
    <path clip-path="url(#pa0988a9783)" d="M 149.072106 300.121875 
L 149.072106 286.358125 
" style="fill:none;stroke:#1f77b4;"/>
    <path clip-path="url(#pa0988a9783)" d="M 147.830385 300.121875 
L 147.830385 286.358125 
" style="fill:none;stroke:#1f77b4;"/>
    <path clip-path="url(#pa0988a9783)" d="M 147.805624 300.121875 
L 147.805624 286.358125 
" style="fill:none;stroke:#1f77b4;"/>
    <path clip-path="url(#pa0988a9783)" d="M 147.466609 300.121875 
L 147.466609 286.358125 
" style="fill:none;stroke:#1f77b4;"/>
    <path clip-path="url(#pa0988a9783)" d="M 146.588291 300.121875 
L 146.588291 286.358125 
" style="fill:none;stroke:#1f77b4;"/>
    <path clip-path="url(#pa0988a9783)" d="M 145.581587 300.121875 
L 145.581587 286.358125 
" style="fill:none;stroke:#1f77b4;"/>
    <path clip-path="url(#pa0988a9783)" d="M 145.354072 300.121875 
L 145.354072 286.358125 
" style="fill:none;stroke:#1f77b4;"/>
    <path clip-path="url(#pa0988a9783)" d="M 145.309439 300.121875 
L 145.309439 286.358125 
" style="fill:none;stroke:#1f77b4;"/>
    <path clip-path="url(#pa0988a9783)" d="M 144.830311 300.121875 
L 144.830311 286.358125 
" style="fill:none;stroke:#1f77b4;"/>
    <path clip-path="url(#pa0988a9783)" d="M 143.068224 300.121875 
L 143.068224 286.358125 
" style="fill:none;stroke:#1f77b4;"/>
    <path clip-path="url(#pa0988a9783)" d="M 141.499373 300.121875 
L 141.499373 286.358125 
" style="fill:none;stroke:#1f77b4;"/>
    <path clip-path="url(#pa0988a9783)" d="M 141.423464 300.121875 
L 141.423464 286.358125 
" style="fill:none;stroke:#1f77b4;"/>
    <path clip-path="url(#pa0988a9783)" d="M 140.980199 300.121875 
L 140.980199 286.358125 
" style="fill:none;stroke:#1f77b4;"/>
    <path clip-path="url(#pa0988a9783)" d="M 140.527285 300.121875 
L 140.527285 286.358125 
" style="fill:none;stroke:#1f77b4;"/>
    <path clip-path="url(#pa0988a9783)" d="M 138.077532 300.121875 
L 138.077532 286.358125 
" style="fill:none;stroke:#1f77b4;"/>
    <path clip-path="url(#pa0988a9783)" d="M 137.268713 300.121875 
L 137.268713 286.358125 
" style="fill:none;stroke:#1f77b4;"/>
    <path clip-path="url(#pa0988a9783)" d="M 136.768226 300.121875 
L 136.768226 286.358125 
" style="fill:none;stroke:#1f77b4;"/>
    <path clip-path="url(#pa0988a9783)" d="M 136.022459 300.121875 
L 136.022459 286.358125 
" style="fill:none;stroke:#1f77b4;"/>
    <path clip-path="url(#pa0988a9783)" d="M 135.476436 300.121875 
L 135.476436 286.358125 
" style="fill:none;stroke:#1f77b4;"/>
   </g>
   <g id="line2d_1">
    <path clip-path="url(#pa0988a9783)" d="M 66.545455 299.684524 
L 70.284896 299.421967 
L 74.024338 298.99978 
L 77.76378 298.348476 
L 81.503221 297.37539 
L 85.242663 295.962316 
L 88.982105 293.965135 
L 92.721546 291.216445 
L 96.460988 287.532139 
L 100.200429 282.722541 
L 103.939871 276.608126 
L 107.679313 269.039041 
L 111.418754 259.916751 
L 115.158196 249.215291 
L 118.897638 236.999054 
L 122.637079 223.433955 
L 126.376521 208.789321 
L 141.334288 147.627923 
L 145.073729 134.062556 
L 148.813171 122.067552 
L 152.552613 111.956592 
L 156.292054 103.934303 
L 160.031496 98.088703 
L 163.770938 94.394552 
L 167.510379 92.726052 
L 171.249821 92.87636 
L 174.989263 94.580989 
L 178.728704 97.542318 
L 182.468146 101.452953 
L 186.207588 106.016427 
L 193.686471 116.070465 
L 201.165354 126.113832 
L 204.904796 130.876161 
L 212.383679 139.876921 
L 219.862563 148.709164 
L 223.602004 153.351588 
L 227.341446 158.297368 
L 231.080888 163.627835 
L 234.820329 169.380911 
L 238.559771 175.54393 
L 242.299213 182.053969 
L 257.256979 209.128544 
L 260.996421 215.47619 
L 264.735863 221.44249 
L 268.475304 226.97803 
L 272.214746 232.068276 
L 275.954188 236.727119 
L 279.693629 240.987382 
L 283.433071 244.890413 
L 287.172513 248.47674 
L 290.911954 251.77921 
L 294.651396 254.819323 
L 298.390838 257.606771 
L 302.130279 260.141568 
L 305.869721 262.417869 
L 309.609162 264.428425 
L 313.348604 266.168826 
L 317.088046 267.640885 
L 320.827487 268.854902 
L 324.566929 269.830751 
L 328.306371 270.597931 
L 332.045812 271.194738 
L 339.524696 272.064231 
L 347.003579 272.843782 
L 354.482462 273.905531 
L 358.221904 274.617088 
L 365.700787 276.410814 
L 380.658554 280.472794 
L 384.397996 281.277218 
L 388.137437 281.909316 
L 391.876879 282.356937 
L 395.616321 282.633338 
L 403.095204 282.844709 
L 410.574087 283.040055 
L 414.313529 283.304219 
L 418.052971 283.747539 
L 421.792412 284.392663 
L 425.531854 285.235541 
L 429.271296 286.246975 
L 447.968504 291.88637 
L 451.707946 292.765245 
L 455.447387 293.500907 
L 459.186829 294.102012 
L 466.665712 294.995834 
L 511.539012 299.216519 
L 519.017895 299.618724 
L 526.496779 299.852863 
L 533.975662 299.934835 
L 541.454545 299.83716 
L 541.454545 299.83716 
" style="fill:none;stroke:#1f77b4;stroke-linecap:round;stroke-width:1.5;"/>
   </g>
   <g id="text_15">
    <!-- Distribution of COVID-19 Country - % Case Fatality Rate as of 2020-04-15 -->
    <defs>
     <path d="M 7.71875 0 
L 7.71875 71.578125 
L 32.375 71.578125 
Q 40.71875 71.578125 45.125 70.5625 
Q 51.265625 69.140625 55.609375 65.4375 
Q 61.28125 60.640625 64.078125 53.1875 
Q 66.890625 45.75 66.890625 36.1875 
Q 66.890625 28.03125 64.984375 21.734375 
Q 63.09375 15.4375 60.109375 11.296875 
Q 57.125 7.171875 53.578125 4.796875 
Q 50.046875 2.4375 45.046875 1.21875 
Q 40.046875 0 33.546875 0 
z
M 17.1875 8.453125 
L 32.46875 8.453125 
Q 39.546875 8.453125 43.578125 9.765625 
Q 47.609375 11.078125 50 13.484375 
Q 53.375 16.84375 55.25 22.53125 
Q 57.125 28.21875 57.125 36.328125 
Q 57.125 47.5625 53.4375 53.59375 
Q 49.75 59.625 44.484375 61.671875 
Q 40.671875 63.140625 32.234375 63.140625 
L 17.1875 63.140625 
z
" id="ArialMT-68"/>
     <path d="M 6.5 0 
L 6.5 51.859375 
L 14.40625 51.859375 
L 14.40625 44 
Q 17.4375 49.515625 20 51.265625 
Q 22.5625 53.03125 25.640625 53.03125 
Q 30.078125 53.03125 34.671875 50.203125 
L 31.640625 42.046875 
Q 28.421875 43.953125 25.203125 43.953125 
Q 22.3125 43.953125 20.015625 42.21875 
Q 17.71875 40.484375 16.75 37.40625 
Q 15.28125 32.71875 15.28125 27.15625 
L 15.28125 0 
z
" id="ArialMT-114"/>
     <path d="M 14.703125 0 
L 6.546875 0 
L 6.546875 71.578125 
L 15.328125 71.578125 
L 15.328125 46.046875 
Q 20.90625 53.03125 29.546875 53.03125 
Q 34.328125 53.03125 38.59375 51.09375 
Q 42.875 49.171875 45.625 45.671875 
Q 48.390625 42.1875 49.953125 37.25 
Q 51.515625 32.328125 51.515625 26.703125 
Q 51.515625 13.375 44.921875 6.09375 
Q 38.328125 -1.171875 29.109375 -1.171875 
Q 19.921875 -1.171875 14.703125 6.5 
z
M 14.59375 26.3125 
Q 14.59375 17 17.140625 12.84375 
Q 21.296875 6.0625 28.375 6.0625 
Q 34.125 6.0625 38.328125 11.0625 
Q 42.53125 16.0625 42.53125 25.984375 
Q 42.53125 36.140625 38.5 40.96875 
Q 34.46875 45.796875 28.765625 45.796875 
Q 23 45.796875 18.796875 40.796875 
Q 14.59375 35.796875 14.59375 26.3125 
z
" id="ArialMT-98"/>
     <path d="M 40.578125 0 
L 40.578125 7.625 
Q 34.515625 -1.171875 24.125 -1.171875 
Q 19.53125 -1.171875 15.546875 0.578125 
Q 11.578125 2.34375 9.640625 5 
Q 7.71875 7.671875 6.9375 11.53125 
Q 6.390625 14.109375 6.390625 19.734375 
L 6.390625 51.859375 
L 15.1875 51.859375 
L 15.1875 23.09375 
Q 15.1875 16.21875 15.71875 13.8125 
Q 16.546875 10.359375 19.234375 8.375 
Q 21.921875 6.390625 25.875 6.390625 
Q 29.828125 6.390625 33.296875 8.421875 
Q 36.765625 10.453125 38.203125 13.9375 
Q 39.65625 17.4375 39.65625 24.078125 
L 39.65625 51.859375 
L 48.4375 51.859375 
L 48.4375 0 
z
" id="ArialMT-117"/>
     <path d="M 3.328125 25.921875 
Q 3.328125 40.328125 11.328125 47.265625 
Q 18.015625 53.03125 27.640625 53.03125 
Q 38.328125 53.03125 45.109375 46.015625 
Q 51.90625 39.015625 51.90625 26.65625 
Q 51.90625 16.65625 48.90625 10.90625 
Q 45.90625 5.171875 40.15625 2 
Q 34.421875 -1.171875 27.640625 -1.171875 
Q 16.75 -1.171875 10.03125 5.8125 
Q 3.328125 12.796875 3.328125 25.921875 
z
M 12.359375 25.921875 
Q 12.359375 15.96875 16.703125 11.015625 
Q 21.046875 6.0625 27.640625 6.0625 
Q 34.1875 6.0625 38.53125 11.03125 
Q 42.875 16.015625 42.875 26.21875 
Q 42.875 35.84375 38.5 40.796875 
Q 34.125 45.75 27.640625 45.75 
Q 21.046875 45.75 16.703125 40.8125 
Q 12.359375 35.890625 12.359375 25.921875 
z
" id="ArialMT-111"/>
     <path d="M 6.59375 0 
L 6.59375 51.859375 
L 14.5 51.859375 
L 14.5 44.484375 
Q 20.21875 53.03125 31 53.03125 
Q 35.6875 53.03125 39.625 51.34375 
Q 43.5625 49.65625 45.515625 46.921875 
Q 47.46875 44.1875 48.25 40.4375 
Q 48.734375 37.984375 48.734375 31.890625 
L 48.734375 0 
L 39.9375 0 
L 39.9375 31.546875 
Q 39.9375 36.921875 38.90625 39.578125 
Q 37.890625 42.234375 35.28125 43.8125 
Q 32.671875 45.40625 29.15625 45.40625 
Q 23.53125 45.40625 19.453125 41.84375 
Q 15.375 38.28125 15.375 28.328125 
L 15.375 0 
z
" id="ArialMT-110"/>
     <path d="M 8.6875 0 
L 8.6875 45.015625 
L 0.921875 45.015625 
L 0.921875 51.859375 
L 8.6875 51.859375 
L 8.6875 57.375 
Q 8.6875 62.59375 9.625 65.140625 
Q 10.890625 68.5625 14.078125 70.671875 
Q 17.28125 72.796875 23.046875 72.796875 
Q 26.765625 72.796875 31.25 71.921875 
L 29.9375 64.265625 
Q 27.203125 64.75 24.75 64.75 
Q 20.75 64.75 19.09375 63.03125 
Q 17.4375 61.328125 17.4375 56.640625 
L 17.4375 51.859375 
L 27.546875 51.859375 
L 27.546875 45.015625 
L 17.4375 45.015625 
L 17.4375 0 
z
" id="ArialMT-102"/>
     <path d="M 4.828125 34.859375 
Q 4.828125 52.6875 14.390625 62.765625 
Q 23.96875 72.859375 39.109375 72.859375 
Q 49.03125 72.859375 56.984375 68.109375 
Q 64.9375 63.375 69.109375 54.90625 
Q 73.296875 46.4375 73.296875 35.6875 
Q 73.296875 24.8125 68.890625 16.21875 
Q 64.5 7.625 56.4375 3.203125 
Q 48.390625 -1.21875 39.0625 -1.21875 
Q 28.953125 -1.21875 20.984375 3.65625 
Q 13.03125 8.546875 8.921875 16.984375 
Q 4.828125 25.4375 4.828125 34.859375 
z
M 14.59375 34.71875 
Q 14.59375 21.78125 21.546875 14.328125 
Q 28.515625 6.890625 39.015625 6.890625 
Q 49.703125 6.890625 56.609375 14.40625 
Q 63.53125 21.921875 63.53125 35.75 
Q 63.53125 44.484375 60.578125 51 
Q 57.625 57.515625 51.921875 61.109375 
Q 46.234375 64.703125 39.15625 64.703125 
Q 29.109375 64.703125 21.84375 57.78125 
Q 14.59375 50.875 14.59375 34.71875 
z
" id="ArialMT-79"/>
     <path d="M 28.171875 0 
L 0.4375 71.578125 
L 10.6875 71.578125 
L 29.296875 19.578125 
Q 31.546875 13.328125 33.0625 7.859375 
Q 34.71875 13.71875 36.921875 19.578125 
L 56.25 71.578125 
L 65.921875 71.578125 
L 37.890625 0 
z
" id="ArialMT-86"/>
     <path d="M 9.328125 0 
L 9.328125 71.578125 
L 18.796875 71.578125 
L 18.796875 0 
z
" id="ArialMT-73"/>
     <path d="M 3.171875 21.484375 
L 3.171875 30.328125 
L 30.171875 30.328125 
L 30.171875 21.484375 
z
" id="ArialMT-45"/>
     <path d="M 5.46875 16.546875 
L 13.921875 17.328125 
Q 14.984375 11.375 18.015625 8.6875 
Q 21.046875 6 25.78125 6 
Q 29.828125 6 32.875 7.859375 
Q 35.9375 9.71875 37.890625 12.8125 
Q 39.84375 15.921875 41.15625 21.1875 
Q 42.484375 26.46875 42.484375 31.9375 
Q 42.484375 32.515625 42.4375 33.6875 
Q 39.796875 29.5 35.234375 26.875 
Q 30.671875 24.265625 25.34375 24.265625 
Q 16.453125 24.265625 10.296875 30.703125 
Q 4.15625 37.15625 4.15625 47.703125 
Q 4.15625 58.59375 10.578125 65.234375 
Q 17 71.875 26.65625 71.875 
Q 33.640625 71.875 39.421875 68.109375 
Q 45.21875 64.359375 48.21875 57.390625 
Q 51.21875 50.4375 51.21875 37.25 
Q 51.21875 23.53125 48.234375 15.40625 
Q 45.265625 7.28125 39.375 3.03125 
Q 33.5 -1.21875 25.59375 -1.21875 
Q 17.1875 -1.21875 11.859375 3.4375 
Q 6.546875 8.109375 5.46875 16.546875 
z
M 41.453125 48.140625 
Q 41.453125 55.71875 37.421875 60.15625 
Q 33.40625 64.59375 27.734375 64.59375 
Q 21.875 64.59375 17.53125 59.8125 
Q 13.1875 55.03125 13.1875 47.40625 
Q 13.1875 40.578125 17.3125 36.296875 
Q 21.4375 32.03125 27.484375 32.03125 
Q 33.59375 32.03125 37.515625 36.296875 
Q 41.453125 40.578125 41.453125 48.140625 
z
" id="ArialMT-57"/>
     <path d="M 32.328125 0 
L 32.328125 17.140625 
L 1.265625 17.140625 
L 1.265625 25.203125 
L 33.9375 71.578125 
L 41.109375 71.578125 
L 41.109375 25.203125 
L 50.78125 25.203125 
L 50.78125 17.140625 
L 41.109375 17.140625 
L 41.109375 0 
z
M 32.328125 25.203125 
L 32.328125 57.46875 
L 9.90625 25.203125 
z
" id="ArialMT-52"/>
    </defs>
    <g style="fill:#262626;" transform="translate(106.591563 18.846875)scale(0.12 -0.12)">
     <use xlink:href="#ArialMT-68"/>
     <use x="72.216797" xlink:href="#ArialMT-105"/>
     <use x="94.433594" xlink:href="#ArialMT-115"/>
     <use x="144.433594" xlink:href="#ArialMT-116"/>
     <use x="172.216797" xlink:href="#ArialMT-114"/>
     <use x="205.517578" xlink:href="#ArialMT-105"/>
     <use x="227.734375" xlink:href="#ArialMT-98"/>
     <use x="283.349609" xlink:href="#ArialMT-117"/>
     <use x="338.964844" xlink:href="#ArialMT-116"/>
     <use x="366.748047" xlink:href="#ArialMT-105"/>
     <use x="388.964844" xlink:href="#ArialMT-111"/>
     <use x="444.580078" xlink:href="#ArialMT-110"/>
     <use x="500.195312" xlink:href="#ArialMT-32"/>
     <use x="527.978516" xlink:href="#ArialMT-111"/>
     <use x="583.59375" xlink:href="#ArialMT-102"/>
     <use x="611.376953" xlink:href="#ArialMT-32"/>
     <use x="639.160156" xlink:href="#ArialMT-67"/>
     <use x="711.376953" xlink:href="#ArialMT-79"/>
     <use x="789.160156" xlink:href="#ArialMT-86"/>
     <use x="855.859375" xlink:href="#ArialMT-73"/>
     <use x="883.642578" xlink:href="#ArialMT-68"/>
     <use x="955.859375" xlink:href="#ArialMT-45"/>
     <use x="989.160156" xlink:href="#ArialMT-49"/>
     <use x="1044.775391" xlink:href="#ArialMT-57"/>
     <use x="1100.390625" xlink:href="#ArialMT-32"/>
     <use x="1128.173828" xlink:href="#ArialMT-67"/>
     <use x="1200.390625" xlink:href="#ArialMT-111"/>
     <use x="1256.005859" xlink:href="#ArialMT-117"/>
     <use x="1311.621094" xlink:href="#ArialMT-110"/>
     <use x="1367.236328" xlink:href="#ArialMT-116"/>
     <use x="1395.019531" xlink:href="#ArialMT-114"/>
     <use x="1428.320312" xlink:href="#ArialMT-121"/>
     <use x="1478.320312" xlink:href="#ArialMT-32"/>
     <use x="1506.103516" xlink:href="#ArialMT-45"/>
     <use x="1539.404297" xlink:href="#ArialMT-32"/>
     <use x="1567.1875" xlink:href="#ArialMT-37"/>
     <use x="1656.103516" xlink:href="#ArialMT-32"/>
     <use x="1683.886719" xlink:href="#ArialMT-67"/>
     <use x="1756.103516" xlink:href="#ArialMT-97"/>
     <use x="1811.71875" xlink:href="#ArialMT-115"/>
     <use x="1861.71875" xlink:href="#ArialMT-101"/>
     <use x="1917.333984" xlink:href="#ArialMT-32"/>
     <use x="1945.117188" xlink:href="#ArialMT-70"/>
     <use x="2006.201172" xlink:href="#ArialMT-97"/>
     <use x="2061.816406" xlink:href="#ArialMT-116"/>
     <use x="2089.599609" xlink:href="#ArialMT-97"/>
     <use x="2145.214844" xlink:href="#ArialMT-108"/>
     <use x="2167.431641" xlink:href="#ArialMT-105"/>
     <use x="2189.648438" xlink:href="#ArialMT-116"/>
     <use x="2217.431641" xlink:href="#ArialMT-121"/>
     <use x="2267.431641" xlink:href="#ArialMT-32"/>
     <use x="2295.214844" xlink:href="#ArialMT-82"/>
     <use x="2367.431641" xlink:href="#ArialMT-97"/>
     <use x="2423.046875" xlink:href="#ArialMT-116"/>
     <use x="2450.830078" xlink:href="#ArialMT-101"/>
     <use x="2506.445312" xlink:href="#ArialMT-32"/>
     <use x="2534.228516" xlink:href="#ArialMT-97"/>
     <use x="2589.84375" xlink:href="#ArialMT-115"/>
     <use x="2639.84375" xlink:href="#ArialMT-32"/>
     <use x="2667.626953" xlink:href="#ArialMT-111"/>
     <use x="2723.242188" xlink:href="#ArialMT-102"/>
     <use x="2751.025391" xlink:href="#ArialMT-32"/>
     <use x="2778.808594" xlink:href="#ArialMT-50"/>
     <use x="2834.423828" xlink:href="#ArialMT-48"/>
     <use x="2890.039062" xlink:href="#ArialMT-50"/>
     <use x="2945.654297" xlink:href="#ArialMT-48"/>
     <use x="3001.269531" xlink:href="#ArialMT-45"/>
     <use x="3034.570312" xlink:href="#ArialMT-48"/>
     <use x="3090.185547" xlink:href="#ArialMT-52"/>
     <use x="3145.800781" xlink:href="#ArialMT-45"/>
     <use x="3179.101562" xlink:href="#ArialMT-49"/>
     <use x="3234.716797" xlink:href="#ArialMT-53"/>
    </g>
   </g>
  </g>
 </g>
 <defs>
  <clipPath id="pa0988a9783">
   <rect height="275.275" width="522.4" x="42.8" y="24.846875"/>
  </clipPath>
 </defs>
</svg>
