<?xml version="1.0" encoding="utf-8" standalone="no"?>
<!DOCTYPE svg PUBLIC "-//W3C//DTD SVG 1.1//EN"
  "http://www.w3.org/Graphics/SVG/1.1/DTD/svg11.dtd">
<!-- Created with matplotlib (https://matplotlib.org/) -->
<svg height="360pt" version="1.1" viewBox="0 0 576 360" width="576pt" xmlns="http://www.w3.org/2000/svg" xmlns:xlink="http://www.w3.org/1999/xlink">
 <defs>
  <style type="text/css">
*{stroke-linecap:butt;stroke-linejoin:round;}
  </style>
 </defs>
 <g id="figure_1">
  <g id="patch_1">
   <path d="M 0 360 
L 576 360 
L 576 0 
L 0 0 
z
" style="fill:#ffffff;"/>
  </g>
  <g id="axes_1">
   <g id="patch_2">
    <path d="M 42.8 293.10625 
L 565.2 293.10625 
L 565.2 24.846875 
L 42.8 24.846875 
z
" style="fill:#ffffff;"/>
   </g>
   <g id="matplotlib.axis_1">
    <g id="xtick_1">
     <g id="text_1">
      <!-- 0 -->
      <defs>
       <path d="M 4.15625 35.296875 
Q 4.15625 48 6.765625 55.734375 
Q 9.375 63.484375 14.515625 67.671875 
Q 19.671875 71.875 27.484375 71.875 
Q 33.25 71.875 37.59375 69.546875 
Q 41.9375 67.234375 44.765625 62.859375 
Q 47.609375 58.5 49.21875 52.21875 
Q 50.828125 45.953125 50.828125 35.296875 
Q 50.828125 22.703125 48.234375 14.96875 
Q 45.65625 7.234375 40.5 3 
Q 35.359375 -1.21875 27.484375 -1.21875 
Q 17.140625 -1.21875 11.234375 6.203125 
Q 4.15625 15.140625 4.15625 35.296875 
z
M 13.1875 35.296875 
Q 13.1875 17.671875 17.3125 11.828125 
Q 21.4375 6 27.484375 6 
Q 33.546875 6 37.671875 11.859375 
Q 41.796875 17.71875 41.796875 35.296875 
Q 41.796875 52.984375 37.671875 58.78125 
Q 33.546875 64.59375 27.390625 64.59375 
Q 21.34375 64.59375 17.71875 59.46875 
Q 13.1875 52.9375 13.1875 35.296875 
z
" id="ArialMT-48"/>
      </defs>
      <g style="fill:#262626;" transform="translate(135.581745 307.264062)scale(0.1 -0.1)">
       <use xlink:href="#ArialMT-48"/>
      </g>
     </g>
    </g>
    <g id="xtick_2">
     <g id="text_2">
      <!-- 5 -->
      <defs>
       <path d="M 4.15625 18.75 
L 13.375 19.53125 
Q 14.40625 12.796875 18.140625 9.390625 
Q 21.875 6 27.15625 6 
Q 33.5 6 37.890625 10.78125 
Q 42.28125 15.578125 42.28125 23.484375 
Q 42.28125 31 38.0625 35.34375 
Q 33.84375 39.703125 27 39.703125 
Q 22.75 39.703125 19.328125 37.765625 
Q 15.921875 35.84375 13.96875 32.765625 
L 5.71875 33.84375 
L 12.640625 70.609375 
L 48.25 70.609375 
L 48.25 62.203125 
L 19.671875 62.203125 
L 15.828125 42.96875 
Q 22.265625 47.46875 29.34375 47.46875 
Q 38.71875 47.46875 45.15625 40.96875 
Q 51.609375 34.46875 51.609375 24.265625 
Q 51.609375 14.546875 45.953125 7.46875 
Q 39.0625 -1.21875 27.15625 -1.21875 
Q 17.390625 -1.21875 11.203125 4.25 
Q 5.03125 9.71875 4.15625 18.75 
z
" id="ArialMT-53"/>
      </defs>
      <g style="fill:#262626;" transform="translate(248.738543 307.264062)scale(0.1 -0.1)">
       <use xlink:href="#ArialMT-53"/>
      </g>
     </g>
    </g>
    <g id="xtick_3">
     <g id="text_3">
      <!-- 10 -->
      <defs>
       <path d="M 37.25 0 
L 28.46875 0 
L 28.46875 56 
Q 25.296875 52.984375 20.140625 49.953125 
Q 14.984375 46.921875 10.890625 45.40625 
L 10.890625 53.90625 
Q 18.265625 57.375 23.78125 62.296875 
Q 29.296875 67.234375 31.59375 71.875 
L 37.25 71.875 
z
" id="ArialMT-49"/>
      </defs>
      <g style="fill:#262626;" transform="translate(359.114872 307.264062)scale(0.1 -0.1)">
       <use xlink:href="#ArialMT-49"/>
       <use x="55.615234" xlink:href="#ArialMT-48"/>
      </g>
     </g>
    </g>
    <g id="xtick_4">
     <g id="text_4">
      <!-- 15 -->
      <g style="fill:#262626;" transform="translate(472.27167 307.264062)scale(0.1 -0.1)">
       <use xlink:href="#ArialMT-49"/>
       <use x="55.615234" xlink:href="#ArialMT-53"/>
      </g>
     </g>
    </g>
    <g id="text_5">
     <!-- % Case Fatality Rate -->
     <defs>
      <path d="M 5.8125 54.390625 
Q 5.8125 62.0625 9.671875 67.421875 
Q 13.53125 72.796875 20.84375 72.796875 
Q 27.59375 72.796875 32 67.984375 
Q 36.421875 63.1875 36.421875 53.859375 
Q 36.421875 44.78125 31.953125 39.875 
Q 27.484375 34.96875 20.953125 34.96875 
Q 14.453125 34.96875 10.125 39.796875 
Q 5.8125 44.625 5.8125 54.390625 
z
M 21.09375 66.75 
Q 17.828125 66.75 15.65625 63.90625 
Q 13.484375 61.078125 13.484375 53.515625 
Q 13.484375 46.625 15.671875 43.8125 
Q 17.875 41.015625 21.09375 41.015625 
Q 24.421875 41.015625 26.59375 43.84375 
Q 28.765625 46.6875 28.765625 54.203125 
Q 28.765625 61.140625 26.5625 63.9375 
Q 24.359375 66.75 21.09375 66.75 
z
M 21.140625 -2.640625 
L 60.296875 72.796875 
L 67.4375 72.796875 
L 28.421875 -2.640625 
z
M 52.09375 16.796875 
Q 52.09375 24.515625 55.953125 29.859375 
Q 59.8125 35.203125 67.1875 35.203125 
Q 73.921875 35.203125 78.34375 30.390625 
Q 82.765625 25.59375 82.765625 16.265625 
Q 82.765625 7.171875 78.296875 2.265625 
Q 73.828125 -2.640625 67.234375 -2.640625 
Q 60.75 -2.640625 56.421875 2.21875 
Q 52.09375 7.078125 52.09375 16.796875 
z
M 67.4375 29.15625 
Q 64.109375 29.15625 61.9375 26.3125 
Q 59.765625 23.484375 59.765625 15.921875 
Q 59.765625 9.078125 61.953125 6.25 
Q 64.15625 3.421875 67.390625 3.421875 
Q 70.75 3.421875 72.921875 6.25 
Q 75.09375 9.078125 75.09375 16.609375 
Q 75.09375 23.53125 72.890625 26.34375 
Q 70.703125 29.15625 67.4375 29.15625 
z
" id="ArialMT-37"/>
      <path id="ArialMT-32"/>
      <path d="M 58.796875 25.09375 
L 68.265625 22.703125 
Q 65.28125 11.03125 57.546875 4.90625 
Q 49.8125 -1.21875 38.625 -1.21875 
Q 27.046875 -1.21875 19.796875 3.484375 
Q 12.546875 8.203125 8.765625 17.140625 
Q 4.984375 26.078125 4.984375 36.328125 
Q 4.984375 47.515625 9.25 55.828125 
Q 13.53125 64.15625 21.40625 68.46875 
Q 29.296875 72.796875 38.765625 72.796875 
Q 49.515625 72.796875 56.828125 67.328125 
Q 64.15625 61.859375 67.046875 51.953125 
L 57.71875 49.75 
Q 55.21875 57.5625 50.484375 61.125 
Q 45.75 64.703125 38.578125 64.703125 
Q 30.328125 64.703125 24.78125 60.734375 
Q 19.234375 56.78125 16.984375 50.109375 
Q 14.75 43.453125 14.75 36.375 
Q 14.75 27.25 17.40625 20.4375 
Q 20.0625 13.625 25.671875 10.25 
Q 31.296875 6.890625 37.84375 6.890625 
Q 45.796875 6.890625 51.3125 11.46875 
Q 56.84375 16.0625 58.796875 25.09375 
z
" id="ArialMT-67"/>
      <path d="M 40.4375 6.390625 
Q 35.546875 2.25 31.03125 0.53125 
Q 26.515625 -1.171875 21.34375 -1.171875 
Q 12.796875 -1.171875 8.203125 3 
Q 3.609375 7.171875 3.609375 13.671875 
Q 3.609375 17.484375 5.34375 20.625 
Q 7.078125 23.78125 9.890625 25.6875 
Q 12.703125 27.59375 16.21875 28.5625 
Q 18.796875 29.25 24.03125 29.890625 
Q 34.671875 31.15625 39.703125 32.90625 
Q 39.75 34.71875 39.75 35.203125 
Q 39.75 40.578125 37.25 42.78125 
Q 33.890625 45.75 27.25 45.75 
Q 21.046875 45.75 18.09375 43.578125 
Q 15.140625 41.40625 13.71875 35.890625 
L 5.125 37.0625 
Q 6.296875 42.578125 8.984375 45.96875 
Q 11.671875 49.359375 16.75 51.1875 
Q 21.828125 53.03125 28.515625 53.03125 
Q 35.15625 53.03125 39.296875 51.46875 
Q 43.453125 49.90625 45.40625 47.53125 
Q 47.359375 45.171875 48.140625 41.546875 
Q 48.578125 39.3125 48.578125 33.453125 
L 48.578125 21.734375 
Q 48.578125 9.46875 49.140625 6.21875 
Q 49.703125 2.984375 51.375 0 
L 42.1875 0 
Q 40.828125 2.734375 40.4375 6.390625 
z
M 39.703125 26.03125 
Q 34.90625 24.078125 25.34375 22.703125 
Q 19.921875 21.921875 17.671875 20.9375 
Q 15.4375 19.96875 14.203125 18.09375 
Q 12.984375 16.21875 12.984375 13.921875 
Q 12.984375 10.40625 15.640625 8.0625 
Q 18.3125 5.71875 23.4375 5.71875 
Q 28.515625 5.71875 32.46875 7.9375 
Q 36.421875 10.15625 38.28125 14.015625 
Q 39.703125 17 39.703125 22.796875 
z
" id="ArialMT-97"/>
      <path d="M 3.078125 15.484375 
L 11.765625 16.84375 
Q 12.5 11.625 15.84375 8.84375 
Q 19.1875 6.0625 25.203125 6.0625 
Q 31.25 6.0625 34.171875 8.515625 
Q 37.109375 10.984375 37.109375 14.3125 
Q 37.109375 17.28125 34.515625 19 
Q 32.71875 20.171875 25.53125 21.96875 
Q 15.875 24.421875 12.140625 26.203125 
Q 8.40625 27.984375 6.46875 31.125 
Q 4.546875 34.28125 4.546875 38.09375 
Q 4.546875 41.546875 6.125 44.5 
Q 7.71875 47.46875 10.453125 49.421875 
Q 12.5 50.921875 16.03125 51.96875 
Q 19.578125 53.03125 23.640625 53.03125 
Q 29.734375 53.03125 34.34375 51.265625 
Q 38.96875 49.515625 41.15625 46.5 
Q 43.359375 43.5 44.1875 38.484375 
L 35.59375 37.3125 
Q 35.015625 41.3125 32.203125 43.546875 
Q 29.390625 45.796875 24.265625 45.796875 
Q 18.21875 45.796875 15.625 43.796875 
Q 13.03125 41.796875 13.03125 39.109375 
Q 13.03125 37.40625 14.109375 36.03125 
Q 15.1875 34.625 17.484375 33.6875 
Q 18.796875 33.203125 25.25 31.453125 
Q 34.578125 28.953125 38.25 27.359375 
Q 41.9375 25.78125 44.03125 22.75 
Q 46.140625 19.734375 46.140625 15.234375 
Q 46.140625 10.84375 43.578125 6.953125 
Q 41.015625 3.078125 36.171875 0.953125 
Q 31.34375 -1.171875 25.25 -1.171875 
Q 15.140625 -1.171875 9.84375 3.03125 
Q 4.546875 7.234375 3.078125 15.484375 
z
" id="ArialMT-115"/>
      <path d="M 42.09375 16.703125 
L 51.171875 15.578125 
Q 49.03125 7.625 43.21875 3.21875 
Q 37.40625 -1.171875 28.375 -1.171875 
Q 17 -1.171875 10.328125 5.828125 
Q 3.65625 12.84375 3.65625 25.484375 
Q 3.65625 38.578125 10.390625 45.796875 
Q 17.140625 53.03125 27.875 53.03125 
Q 38.28125 53.03125 44.875 45.953125 
Q 51.46875 38.875 51.46875 26.03125 
Q 51.46875 25.25 51.421875 23.6875 
L 12.75 23.6875 
Q 13.234375 15.140625 17.578125 10.59375 
Q 21.921875 6.0625 28.421875 6.0625 
Q 33.25 6.0625 36.671875 8.59375 
Q 40.09375 11.140625 42.09375 16.703125 
z
M 13.234375 30.90625 
L 42.1875 30.90625 
Q 41.609375 37.453125 38.875 40.71875 
Q 34.671875 45.796875 27.984375 45.796875 
Q 21.921875 45.796875 17.796875 41.75 
Q 13.671875 37.703125 13.234375 30.90625 
z
" id="ArialMT-101"/>
      <path d="M 8.203125 0 
L 8.203125 71.578125 
L 56.5 71.578125 
L 56.5 63.140625 
L 17.671875 63.140625 
L 17.671875 40.96875 
L 51.265625 40.96875 
L 51.265625 32.515625 
L 17.671875 32.515625 
L 17.671875 0 
z
" id="ArialMT-70"/>
      <path d="M 25.78125 7.859375 
L 27.046875 0.09375 
Q 23.34375 -0.6875 20.40625 -0.6875 
Q 15.625 -0.6875 12.984375 0.828125 
Q 10.359375 2.34375 9.28125 4.8125 
Q 8.203125 7.28125 8.203125 15.1875 
L 8.203125 45.015625 
L 1.765625 45.015625 
L 1.765625 51.859375 
L 8.203125 51.859375 
L 8.203125 64.703125 
L 16.9375 69.96875 
L 16.9375 51.859375 
L 25.78125 51.859375 
L 25.78125 45.015625 
L 16.9375 45.015625 
L 16.9375 14.703125 
Q 16.9375 10.9375 17.40625 9.859375 
Q 17.875 8.796875 18.921875 8.15625 
Q 19.96875 7.515625 21.921875 7.515625 
Q 23.390625 7.515625 25.78125 7.859375 
z
" id="ArialMT-116"/>
      <path d="M 6.390625 0 
L 6.390625 71.578125 
L 15.1875 71.578125 
L 15.1875 0 
z
" id="ArialMT-108"/>
      <path d="M 6.640625 61.46875 
L 6.640625 71.578125 
L 15.4375 71.578125 
L 15.4375 61.46875 
z
M 6.640625 0 
L 6.640625 51.859375 
L 15.4375 51.859375 
L 15.4375 0 
z
" id="ArialMT-105"/>
      <path d="M 6.203125 -19.96875 
L 5.21875 -11.71875 
Q 8.109375 -12.5 10.25 -12.5 
Q 13.1875 -12.5 14.9375 -11.515625 
Q 16.703125 -10.546875 17.828125 -8.796875 
Q 18.65625 -7.46875 20.515625 -2.25 
Q 20.75 -1.515625 21.296875 -0.09375 
L 1.609375 51.859375 
L 11.078125 51.859375 
L 21.875 21.828125 
Q 23.96875 16.109375 25.640625 9.8125 
Q 27.15625 15.875 29.25 21.625 
L 40.328125 51.859375 
L 49.125 51.859375 
L 29.390625 -0.875 
Q 26.21875 -9.421875 24.46875 -12.640625 
Q 22.125 -17 19.09375 -19.015625 
Q 16.0625 -21.046875 11.859375 -21.046875 
Q 9.328125 -21.046875 6.203125 -19.96875 
z
" id="ArialMT-121"/>
      <path d="M 7.859375 0 
L 7.859375 71.578125 
L 39.59375 71.578125 
Q 49.171875 71.578125 54.140625 69.640625 
Q 59.125 67.71875 62.109375 62.828125 
Q 65.09375 57.953125 65.09375 52.046875 
Q 65.09375 44.4375 60.15625 39.203125 
Q 55.21875 33.984375 44.921875 32.5625 
Q 48.6875 30.765625 50.640625 29 
Q 54.78125 25.203125 58.5 19.484375 
L 70.953125 0 
L 59.03125 0 
L 49.5625 14.890625 
Q 45.40625 21.34375 42.71875 24.75 
Q 40.046875 28.171875 37.921875 29.53125 
Q 35.796875 30.90625 33.59375 31.453125 
Q 31.984375 31.78125 28.328125 31.78125 
L 17.328125 31.78125 
L 17.328125 0 
z
M 17.328125 39.984375 
L 37.703125 39.984375 
Q 44.1875 39.984375 47.84375 41.328125 
Q 51.515625 42.671875 53.421875 45.625 
Q 55.328125 48.578125 55.328125 52.046875 
Q 55.328125 57.125 51.640625 60.390625 
Q 47.953125 63.671875 39.984375 63.671875 
L 17.328125 63.671875 
z
" id="ArialMT-82"/>
     </defs>
     <g style="fill:#262626;" transform="translate(200.685937 345.266875)scale(0.22 -0.22)">
      <use xlink:href="#ArialMT-37"/>
      <use x="88.916016" xlink:href="#ArialMT-32"/>
      <use x="116.699219" xlink:href="#ArialMT-67"/>
      <use x="188.916016" xlink:href="#ArialMT-97"/>
      <use x="244.53125" xlink:href="#ArialMT-115"/>
      <use x="294.53125" xlink:href="#ArialMT-101"/>
      <use x="350.146484" xlink:href="#ArialMT-32"/>
      <use x="377.929688" xlink:href="#ArialMT-70"/>
      <use x="439.013672" xlink:href="#ArialMT-97"/>
      <use x="494.628906" xlink:href="#ArialMT-116"/>
      <use x="522.412109" xlink:href="#ArialMT-97"/>
      <use x="578.027344" xlink:href="#ArialMT-108"/>
      <use x="600.244141" xlink:href="#ArialMT-105"/>
      <use x="622.460938" xlink:href="#ArialMT-116"/>
      <use x="650.244141" xlink:href="#ArialMT-121"/>
      <use x="700.244141" xlink:href="#ArialMT-32"/>
      <use x="728.027344" xlink:href="#ArialMT-82"/>
      <use x="800.244141" xlink:href="#ArialMT-97"/>
      <use x="855.859375" xlink:href="#ArialMT-116"/>
      <use x="883.642578" xlink:href="#ArialMT-101"/>
     </g>
    </g>
   </g>
   <g id="matplotlib.axis_2">
    <g id="ytick_1">
     <g id="text_6">
      <!-- 0.000 -->
      <defs>
       <path d="M 9.078125 0 
L 9.078125 10.015625 
L 19.09375 10.015625 
L 19.09375 0 
z
" id="ArialMT-46"/>
      </defs>
      <g style="fill:#262626;" transform="translate(10.778125 296.685156)scale(0.1 -0.1)">
       <use xlink:href="#ArialMT-48"/>
       <use x="55.615234" xlink:href="#ArialMT-46"/>
       <use x="83.398438" xlink:href="#ArialMT-48"/>
       <use x="139.013672" xlink:href="#ArialMT-48"/>
       <use x="194.628906" xlink:href="#ArialMT-48"/>
      </g>
     </g>
    </g>
    <g id="ytick_2">
     <g id="text_7">
      <!-- 0.025 -->
      <defs>
       <path d="M 50.34375 8.453125 
L 50.34375 0 
L 3.03125 0 
Q 2.9375 3.171875 4.046875 6.109375 
Q 5.859375 10.9375 9.828125 15.625 
Q 13.8125 20.3125 21.34375 26.46875 
Q 33.015625 36.03125 37.109375 41.625 
Q 41.21875 47.21875 41.21875 52.203125 
Q 41.21875 57.421875 37.46875 61 
Q 33.734375 64.59375 27.734375 64.59375 
Q 21.390625 64.59375 17.578125 60.78125 
Q 13.765625 56.984375 13.71875 50.25 
L 4.6875 51.171875 
Q 5.609375 61.28125 11.65625 66.578125 
Q 17.71875 71.875 27.9375 71.875 
Q 38.234375 71.875 44.234375 66.15625 
Q 50.25 60.453125 50.25 52 
Q 50.25 47.703125 48.484375 43.546875 
Q 46.734375 39.40625 42.65625 34.8125 
Q 38.578125 30.21875 29.109375 22.21875 
Q 21.1875 15.578125 18.9375 13.203125 
Q 16.703125 10.84375 15.234375 8.453125 
z
" id="ArialMT-50"/>
      </defs>
      <g style="fill:#262626;" transform="translate(10.778125 265.533903)scale(0.1 -0.1)">
       <use xlink:href="#ArialMT-48"/>
       <use x="55.615234" xlink:href="#ArialMT-46"/>
       <use x="83.398438" xlink:href="#ArialMT-48"/>
       <use x="139.013672" xlink:href="#ArialMT-50"/>
       <use x="194.628906" xlink:href="#ArialMT-53"/>
      </g>
     </g>
    </g>
    <g id="ytick_3">
     <g id="text_8">
      <!-- 0.050 -->
      <g style="fill:#262626;" transform="translate(10.778125 234.382651)scale(0.1 -0.1)">
       <use xlink:href="#ArialMT-48"/>
       <use x="55.615234" xlink:href="#ArialMT-46"/>
       <use x="83.398438" xlink:href="#ArialMT-48"/>
       <use x="139.013672" xlink:href="#ArialMT-53"/>
       <use x="194.628906" xlink:href="#ArialMT-48"/>
      </g>
     </g>
    </g>
    <g id="ytick_4">
     <g id="text_9">
      <!-- 0.075 -->
      <defs>
       <path d="M 4.734375 62.203125 
L 4.734375 70.65625 
L 51.078125 70.65625 
L 51.078125 63.8125 
Q 44.234375 56.546875 37.515625 44.484375 
Q 30.8125 32.421875 27.15625 19.671875 
Q 24.515625 10.6875 23.78125 0 
L 14.75 0 
Q 14.890625 8.453125 18.0625 20.40625 
Q 21.234375 32.375 27.171875 43.484375 
Q 33.109375 54.59375 39.796875 62.203125 
z
" id="ArialMT-55"/>
      </defs>
      <g style="fill:#262626;" transform="translate(10.778125 203.231398)scale(0.1 -0.1)">
       <use xlink:href="#ArialMT-48"/>
       <use x="55.615234" xlink:href="#ArialMT-46"/>
       <use x="83.398438" xlink:href="#ArialMT-48"/>
       <use x="139.013672" xlink:href="#ArialMT-55"/>
       <use x="194.628906" xlink:href="#ArialMT-53"/>
      </g>
     </g>
    </g>
    <g id="ytick_5">
     <g id="text_10">
      <!-- 0.100 -->
      <g style="fill:#262626;" transform="translate(10.778125 172.080145)scale(0.1 -0.1)">
       <use xlink:href="#ArialMT-48"/>
       <use x="55.615234" xlink:href="#ArialMT-46"/>
       <use x="83.398438" xlink:href="#ArialMT-49"/>
       <use x="139.013672" xlink:href="#ArialMT-48"/>
       <use x="194.628906" xlink:href="#ArialMT-48"/>
      </g>
     </g>
    </g>
    <g id="ytick_6">
     <g id="text_11">
      <!-- 0.125 -->
      <g style="fill:#262626;" transform="translate(10.778125 140.928892)scale(0.1 -0.1)">
       <use xlink:href="#ArialMT-48"/>
       <use x="55.615234" xlink:href="#ArialMT-46"/>
       <use x="83.398438" xlink:href="#ArialMT-49"/>
       <use x="139.013672" xlink:href="#ArialMT-50"/>
       <use x="194.628906" xlink:href="#ArialMT-53"/>
      </g>
     </g>
    </g>
    <g id="ytick_7">
     <g id="text_12">
      <!-- 0.150 -->
      <g style="fill:#262626;" transform="translate(10.778125 109.77764)scale(0.1 -0.1)">
       <use xlink:href="#ArialMT-48"/>
       <use x="55.615234" xlink:href="#ArialMT-46"/>
       <use x="83.398438" xlink:href="#ArialMT-49"/>
       <use x="139.013672" xlink:href="#ArialMT-53"/>
       <use x="194.628906" xlink:href="#ArialMT-48"/>
      </g>
     </g>
    </g>
    <g id="ytick_8">
     <g id="text_13">
      <!-- 0.175 -->
      <g style="fill:#262626;" transform="translate(10.778125 78.626387)scale(0.1 -0.1)">
       <use xlink:href="#ArialMT-48"/>
       <use x="55.615234" xlink:href="#ArialMT-46"/>
       <use x="83.398438" xlink:href="#ArialMT-49"/>
       <use x="139.013672" xlink:href="#ArialMT-55"/>
       <use x="194.628906" xlink:href="#ArialMT-53"/>
      </g>
     </g>
    </g>
    <g id="ytick_9">
     <g id="text_14">
      <!-- 0.200 -->
      <g style="fill:#262626;" transform="translate(10.778125 47.475134)scale(0.1 -0.1)">
       <use xlink:href="#ArialMT-48"/>
       <use x="55.615234" xlink:href="#ArialMT-46"/>
       <use x="83.398438" xlink:href="#ArialMT-50"/>
       <use x="139.013672" xlink:href="#ArialMT-48"/>
       <use x="194.628906" xlink:href="#ArialMT-48"/>
      </g>
     </g>
    </g>
   </g>
   <g id="patch_3">
    <path clip-path="url(#p74900df4b3)" d="M 140.641304 293.10625 
L 173.313043 293.10625 
L 173.313043 37.621131 
L 140.641304 37.621131 
z
" style="fill:#1f77b4;opacity:0.4;stroke:#ffffff;stroke-linejoin:miter;"/>
   </g>
   <g id="patch_4">
    <path clip-path="url(#p74900df4b3)" d="M 173.313043 293.10625 
L 205.984782 293.10625 
L 205.984782 79.05115 
L 173.313043 79.05115 
z
" style="fill:#1f77b4;opacity:0.4;stroke:#ffffff;stroke-linejoin:miter;"/>
   </g>
   <g id="patch_5">
    <path clip-path="url(#p74900df4b3)" d="M 205.984782 293.10625 
L 238.656521 293.10625 
L 238.656521 155.006186 
L 205.984782 155.006186 
z
" style="fill:#1f77b4;opacity:0.4;stroke:#ffffff;stroke-linejoin:miter;"/>
   </g>
   <g id="patch_6">
    <path clip-path="url(#p74900df4b3)" d="M 238.656521 293.10625 
L 271.328261 293.10625 
L 271.328261 196.436205 
L 238.656521 196.436205 
z
" style="fill:#1f77b4;opacity:0.4;stroke:#ffffff;stroke-linejoin:miter;"/>
   </g>
   <g id="patch_7">
    <path clip-path="url(#p74900df4b3)" d="M 271.328261 293.10625 
L 304 293.10625 
L 304 244.771227 
L 271.328261 244.771227 
z
" style="fill:#1f77b4;opacity:0.4;stroke:#ffffff;stroke-linejoin:miter;"/>
   </g>
   <g id="patch_8">
    <path clip-path="url(#p74900df4b3)" d="M 304 293.10625 
L 336.671739 293.10625 
L 336.671739 251.676231 
L 304 251.676231 
z
" style="fill:#1f77b4;opacity:0.4;stroke:#ffffff;stroke-linejoin:miter;"/>
   </g>
   <g id="patch_9">
    <path clip-path="url(#p74900df4b3)" d="M 336.671739 293.10625 
L 369.343479 293.10625 
L 369.343479 265.486237 
L 336.671739 265.486237 
z
" style="fill:#1f77b4;opacity:0.4;stroke:#ffffff;stroke-linejoin:miter;"/>
   </g>
   <g id="patch_10">
    <path clip-path="url(#p74900df4b3)" d="M 369.343479 293.10625 
L 402.015218 293.10625 
L 402.015218 272.39124 
L 369.343479 272.39124 
z
" style="fill:#1f77b4;opacity:0.4;stroke:#ffffff;stroke-linejoin:miter;"/>
   </g>
   <g id="patch_11">
    <path clip-path="url(#p74900df4b3)" d="M 402.015218 293.10625 
L 434.686957 293.10625 
L 434.686957 279.296244 
L 402.015218 279.296244 
z
" style="fill:#1f77b4;opacity:0.4;stroke:#ffffff;stroke-linejoin:miter;"/>
   </g>
   <g id="patch_12">
    <path clip-path="url(#p74900df4b3)" d="M 434.686957 293.10625 
L 467.358696 293.10625 
L 467.358696 286.201247 
L 434.686957 286.201247 
z
" style="fill:#1f77b4;opacity:0.4;stroke:#ffffff;stroke-linejoin:miter;"/>
   </g>
   <g id="LineCollection_1">
    <path clip-path="url(#p74900df4b3)" d="M 467.358696 293.10625 
L 467.358696 279.693281 
" style="fill:none;stroke:#1f77b4;"/>
    <path clip-path="url(#p74900df4b3)" d="M 427.417078 293.10625 
L 427.417078 279.693281 
" style="fill:none;stroke:#1f77b4;"/>
    <path clip-path="url(#p74900df4b3)" d="M 410.587696 293.10625 
L 410.587696 279.693281 
" style="fill:none;stroke:#1f77b4;"/>
    <path clip-path="url(#p74900df4b3)" d="M 394.574291 293.10625 
L 394.574291 279.693281 
" style="fill:none;stroke:#1f77b4;"/>
    <path clip-path="url(#p74900df4b3)" d="M 383.667501 293.10625 
L 383.667501 279.693281 
" style="fill:none;stroke:#1f77b4;"/>
    <path clip-path="url(#p74900df4b3)" d="M 375.852123 293.10625 
L 375.852123 279.693281 
" style="fill:none;stroke:#1f77b4;"/>
    <path clip-path="url(#p74900df4b3)" d="M 368.303451 293.10625 
L 368.303451 279.693281 
" style="fill:none;stroke:#1f77b4;"/>
    <path clip-path="url(#p74900df4b3)" d="M 362.044256 293.10625 
L 362.044256 279.693281 
" style="fill:none;stroke:#1f77b4;"/>
    <path clip-path="url(#p74900df4b3)" d="M 348.886489 293.10625 
L 348.886489 279.693281 
" style="fill:none;stroke:#1f77b4;"/>
    <path clip-path="url(#p74900df4b3)" d="M 341.658888 293.10625 
L 341.658888 279.693281 
" style="fill:none;stroke:#1f77b4;"/>
    <path clip-path="url(#p74900df4b3)" d="M 335.548889 293.10625 
L 335.548889 279.693281 
" style="fill:none;stroke:#1f77b4;"/>
    <path clip-path="url(#p74900df4b3)" d="M 326.956877 293.10625 
L 326.956877 279.693281 
" style="fill:none;stroke:#1f77b4;"/>
    <path clip-path="url(#p74900df4b3)" d="M 320.453613 293.10625 
L 320.453613 279.693281 
" style="fill:none;stroke:#1f77b4;"/>
    <path clip-path="url(#p74900df4b3)" d="M 308.665087 293.10625 
L 308.665087 279.693281 
" style="fill:none;stroke:#1f77b4;"/>
    <path clip-path="url(#p74900df4b3)" d="M 305.596708 293.10625 
L 305.596708 279.693281 
" style="fill:none;stroke:#1f77b4;"/>
    <path clip-path="url(#p74900df4b3)" d="M 304.463936 293.10625 
L 304.463936 279.693281 
" style="fill:none;stroke:#1f77b4;"/>
    <path clip-path="url(#p74900df4b3)" d="M 298.80842 293.10625 
L 298.80842 279.693281 
" style="fill:none;stroke:#1f77b4;"/>
    <path clip-path="url(#p74900df4b3)" d="M 284.800423 293.10625 
L 284.800423 279.693281 
" style="fill:none;stroke:#1f77b4;"/>
    <path clip-path="url(#p74900df4b3)" d="M 282.477004 293.10625 
L 282.477004 279.693281 
" style="fill:none;stroke:#1f77b4;"/>
    <path clip-path="url(#p74900df4b3)" d="M 282.053386 293.10625 
L 282.053386 279.693281 
" style="fill:none;stroke:#1f77b4;"/>
    <path clip-path="url(#p74900df4b3)" d="M 278.81258 293.10625 
L 278.81258 279.693281 
" style="fill:none;stroke:#1f77b4;"/>
    <path clip-path="url(#p74900df4b3)" d="M 274.624327 293.10625 
L 274.624327 279.693281 
" style="fill:none;stroke:#1f77b4;"/>
    <path clip-path="url(#p74900df4b3)" d="M 273.474809 293.10625 
L 273.474809 279.693281 
" style="fill:none;stroke:#1f77b4;"/>
    <path clip-path="url(#p74900df4b3)" d="M 265.955465 293.10625 
L 265.955465 279.693281 
" style="fill:none;stroke:#1f77b4;"/>
    <path clip-path="url(#p74900df4b3)" d="M 263.487519 293.10625 
L 263.487519 279.693281 
" style="fill:none;stroke:#1f77b4;"/>
    <path clip-path="url(#p74900df4b3)" d="M 262.224229 293.10625 
L 262.224229 279.693281 
" style="fill:none;stroke:#1f77b4;"/>
    <path clip-path="url(#p74900df4b3)" d="M 260.970031 293.10625 
L 260.970031 279.693281 
" style="fill:none;stroke:#1f77b4;"/>
    <path clip-path="url(#p74900df4b3)" d="M 260.173738 293.10625 
L 260.173738 279.693281 
" style="fill:none;stroke:#1f77b4;"/>
    <path clip-path="url(#p74900df4b3)" d="M 257.588209 293.10625 
L 257.588209 279.693281 
" style="fill:none;stroke:#1f77b4;"/>
    <path clip-path="url(#p74900df4b3)" d="M 257.474633 293.10625 
L 257.474633 279.693281 
" style="fill:none;stroke:#1f77b4;"/>
    <path clip-path="url(#p74900df4b3)" d="M 254.420468 293.10625 
L 254.420468 279.693281 
" style="fill:none;stroke:#1f77b4;"/>
    <path clip-path="url(#p74900df4b3)" d="M 250.132236 293.10625 
L 250.132236 279.693281 
" style="fill:none;stroke:#1f77b4;"/>
    <path clip-path="url(#p74900df4b3)" d="M 247.20005 293.10625 
L 247.20005 279.693281 
" style="fill:none;stroke:#1f77b4;"/>
    <path clip-path="url(#p74900df4b3)" d="M 243.624352 293.10625 
L 243.624352 279.693281 
" style="fill:none;stroke:#1f77b4;"/>
    <path clip-path="url(#p74900df4b3)" d="M 242.814643 293.10625 
L 242.814643 279.693281 
" style="fill:none;stroke:#1f77b4;"/>
    <path clip-path="url(#p74900df4b3)" d="M 241.897027 293.10625 
L 241.897027 279.693281 
" style="fill:none;stroke:#1f77b4;"/>
    <path clip-path="url(#p74900df4b3)" d="M 240.219247 293.10625 
L 240.219247 279.693281 
" style="fill:none;stroke:#1f77b4;"/>
    <path clip-path="url(#p74900df4b3)" d="M 236.268262 293.10625 
L 236.268262 279.693281 
" style="fill:none;stroke:#1f77b4;"/>
    <path clip-path="url(#p74900df4b3)" d="M 232.325327 293.10625 
L 232.325327 279.693281 
" style="fill:none;stroke:#1f77b4;"/>
    <path clip-path="url(#p74900df4b3)" d="M 232.224996 293.10625 
L 232.224996 279.693281 
" style="fill:none;stroke:#1f77b4;"/>
    <path clip-path="url(#p74900df4b3)" d="M 231.311097 293.10625 
L 231.311097 279.693281 
" style="fill:none;stroke:#1f77b4;"/>
    <path clip-path="url(#p74900df4b3)" d="M 230.727585 293.10625 
L 230.727585 279.693281 
" style="fill:none;stroke:#1f77b4;"/>
    <path clip-path="url(#p74900df4b3)" d="M 229.497769 293.10625 
L 229.497769 279.693281 
" style="fill:none;stroke:#1f77b4;"/>
    <path clip-path="url(#p74900df4b3)" d="M 228.78718 293.10625 
L 228.78718 279.693281 
" style="fill:none;stroke:#1f77b4;"/>
    <path clip-path="url(#p74900df4b3)" d="M 227.696528 293.10625 
L 227.696528 279.693281 
" style="fill:none;stroke:#1f77b4;"/>
    <path clip-path="url(#p74900df4b3)" d="M 227.462055 293.10625 
L 227.462055 279.693281 
" style="fill:none;stroke:#1f77b4;"/>
    <path clip-path="url(#p74900df4b3)" d="M 226.156281 293.10625 
L 226.156281 279.693281 
" style="fill:none;stroke:#1f77b4;"/>
    <path clip-path="url(#p74900df4b3)" d="M 223.07456 293.10625 
L 223.07456 279.693281 
" style="fill:none;stroke:#1f77b4;"/>
    <path clip-path="url(#p74900df4b3)" d="M 222.681736 293.10625 
L 222.681736 279.693281 
" style="fill:none;stroke:#1f77b4;"/>
    <path clip-path="url(#p74900df4b3)" d="M 222.182064 293.10625 
L 222.182064 279.693281 
" style="fill:none;stroke:#1f77b4;"/>
    <path clip-path="url(#p74900df4b3)" d="M 221.740907 293.10625 
L 221.740907 279.693281 
" style="fill:none;stroke:#1f77b4;"/>
    <path clip-path="url(#p74900df4b3)" d="M 218.658916 293.10625 
L 218.658916 279.693281 
" style="fill:none;stroke:#1f77b4;"/>
    <path clip-path="url(#p74900df4b3)" d="M 212.685234 293.10625 
L 212.685234 279.693281 
" style="fill:none;stroke:#1f77b4;"/>
    <path clip-path="url(#p74900df4b3)" d="M 211.635634 293.10625 
L 211.635634 279.693281 
" style="fill:none;stroke:#1f77b4;"/>
    <path clip-path="url(#p74900df4b3)" d="M 211.573244 293.10625 
L 211.573244 279.693281 
" style="fill:none;stroke:#1f77b4;"/>
    <path clip-path="url(#p74900df4b3)" d="M 209.245728 293.10625 
L 209.245728 279.693281 
" style="fill:none;stroke:#1f77b4;"/>
    <path clip-path="url(#p74900df4b3)" d="M 207.149386 293.10625 
L 207.149386 279.693281 
" style="fill:none;stroke:#1f77b4;"/>
    <path clip-path="url(#p74900df4b3)" d="M 203.519679 293.10625 
L 203.519679 279.693281 
" style="fill:none;stroke:#1f77b4;"/>
    <path clip-path="url(#p74900df4b3)" d="M 203.220613 293.10625 
L 203.220613 279.693281 
" style="fill:none;stroke:#1f77b4;"/>
    <path clip-path="url(#p74900df4b3)" d="M 202.413232 293.10625 
L 202.413232 279.693281 
" style="fill:none;stroke:#1f77b4;"/>
    <path clip-path="url(#p74900df4b3)" d="M 201.990972 293.10625 
L 201.990972 279.693281 
" style="fill:none;stroke:#1f77b4;"/>
    <path clip-path="url(#p74900df4b3)" d="M 201.730021 293.10625 
L 201.730021 279.693281 
" style="fill:none;stroke:#1f77b4;"/>
    <path clip-path="url(#p74900df4b3)" d="M 198.552 293.10625 
L 198.552 279.693281 
" style="fill:none;stroke:#1f77b4;"/>
    <path clip-path="url(#p74900df4b3)" d="M 195.507449 293.10625 
L 195.507449 279.693281 
" style="fill:none;stroke:#1f77b4;"/>
    <path clip-path="url(#p74900df4b3)" d="M 195.198962 293.10625 
L 195.198962 279.693281 
" style="fill:none;stroke:#1f77b4;"/>
    <path clip-path="url(#p74900df4b3)" d="M 192.638004 293.10625 
L 192.638004 279.693281 
" style="fill:none;stroke:#1f77b4;"/>
    <path clip-path="url(#p74900df4b3)" d="M 192.246403 293.10625 
L 192.246403 279.693281 
" style="fill:none;stroke:#1f77b4;"/>
    <path clip-path="url(#p74900df4b3)" d="M 191.622293 293.10625 
L 191.622293 279.693281 
" style="fill:none;stroke:#1f77b4;"/>
    <path clip-path="url(#p74900df4b3)" d="M 190.303039 293.10625 
L 190.303039 279.693281 
" style="fill:none;stroke:#1f77b4;"/>
    <path clip-path="url(#p74900df4b3)" d="M 190.111861 293.10625 
L 190.111861 279.693281 
" style="fill:none;stroke:#1f77b4;"/>
    <path clip-path="url(#p74900df4b3)" d="M 189.619036 293.10625 
L 189.619036 279.693281 
" style="fill:none;stroke:#1f77b4;"/>
    <path clip-path="url(#p74900df4b3)" d="M 188.201044 293.10625 
L 188.201044 279.693281 
" style="fill:none;stroke:#1f77b4;"/>
    <path clip-path="url(#p74900df4b3)" d="M 186.773083 293.10625 
L 186.773083 279.693281 
" style="fill:none;stroke:#1f77b4;"/>
    <path clip-path="url(#p74900df4b3)" d="M 185.346369 293.10625 
L 185.346369 279.693281 
" style="fill:none;stroke:#1f77b4;"/>
    <path clip-path="url(#p74900df4b3)" d="M 184.002647 293.10625 
L 184.002647 279.693281 
" style="fill:none;stroke:#1f77b4;"/>
    <path clip-path="url(#p74900df4b3)" d="M 183.408365 293.10625 
L 183.408365 279.693281 
" style="fill:none;stroke:#1f77b4;"/>
    <path clip-path="url(#p74900df4b3)" d="M 181.538099 293.10625 
L 181.538099 279.693281 
" style="fill:none;stroke:#1f77b4;"/>
    <path clip-path="url(#p74900df4b3)" d="M 180.948106 293.10625 
L 180.948106 279.693281 
" style="fill:none;stroke:#1f77b4;"/>
    <path clip-path="url(#p74900df4b3)" d="M 178.877668 293.10625 
L 178.877668 279.693281 
" style="fill:none;stroke:#1f77b4;"/>
    <path clip-path="url(#p74900df4b3)" d="M 178.864964 293.10625 
L 178.864964 279.693281 
" style="fill:none;stroke:#1f77b4;"/>
    <path clip-path="url(#p74900df4b3)" d="M 177.593173 293.10625 
L 177.593173 279.693281 
" style="fill:none;stroke:#1f77b4;"/>
    <path clip-path="url(#p74900df4b3)" d="M 176.398112 293.10625 
L 176.398112 279.693281 
" style="fill:none;stroke:#1f77b4;"/>
    <path clip-path="url(#p74900df4b3)" d="M 176.334294 293.10625 
L 176.334294 279.693281 
" style="fill:none;stroke:#1f77b4;"/>
    <path clip-path="url(#p74900df4b3)" d="M 176.280099 293.10625 
L 176.280099 279.693281 
" style="fill:none;stroke:#1f77b4;"/>
    <path clip-path="url(#p74900df4b3)" d="M 174.814013 293.10625 
L 174.814013 279.693281 
" style="fill:none;stroke:#1f77b4;"/>
    <path clip-path="url(#p74900df4b3)" d="M 174.285007 293.10625 
L 174.285007 279.693281 
" style="fill:none;stroke:#1f77b4;"/>
    <path clip-path="url(#p74900df4b3)" d="M 173.908852 293.10625 
L 173.908852 279.693281 
" style="fill:none;stroke:#1f77b4;"/>
    <path clip-path="url(#p74900df4b3)" d="M 173.326393 293.10625 
L 173.326393 279.693281 
" style="fill:none;stroke:#1f77b4;"/>
    <path clip-path="url(#p74900df4b3)" d="M 171.854712 293.10625 
L 171.854712 279.693281 
" style="fill:none;stroke:#1f77b4;"/>
    <path clip-path="url(#p74900df4b3)" d="M 171.481277 293.10625 
L 171.481277 279.693281 
" style="fill:none;stroke:#1f77b4;"/>
    <path clip-path="url(#p74900df4b3)" d="M 170.176266 293.10625 
L 170.176266 279.693281 
" style="fill:none;stroke:#1f77b4;"/>
    <path clip-path="url(#p74900df4b3)" d="M 170.152084 293.10625 
L 170.152084 279.693281 
" style="fill:none;stroke:#1f77b4;"/>
    <path clip-path="url(#p74900df4b3)" d="M 168.561764 293.10625 
L 168.561764 279.693281 
" style="fill:none;stroke:#1f77b4;"/>
    <path clip-path="url(#p74900df4b3)" d="M 167.495983 293.10625 
L 167.495983 279.693281 
" style="fill:none;stroke:#1f77b4;"/>
    <path clip-path="url(#p74900df4b3)" d="M 167.376778 293.10625 
L 167.376778 279.693281 
" style="fill:none;stroke:#1f77b4;"/>
    <path clip-path="url(#p74900df4b3)" d="M 167.345812 293.10625 
L 167.345812 279.693281 
" style="fill:none;stroke:#1f77b4;"/>
    <path clip-path="url(#p74900df4b3)" d="M 167.009505 293.10625 
L 167.009505 279.693281 
" style="fill:none;stroke:#1f77b4;"/>
    <path clip-path="url(#p74900df4b3)" d="M 166.233346 293.10625 
L 166.233346 279.693281 
" style="fill:none;stroke:#1f77b4;"/>
    <path clip-path="url(#p74900df4b3)" d="M 165.47917 293.10625 
L 165.47917 279.693281 
" style="fill:none;stroke:#1f77b4;"/>
    <path clip-path="url(#p74900df4b3)" d="M 163.508169 293.10625 
L 163.508169 279.693281 
" style="fill:none;stroke:#1f77b4;"/>
    <path clip-path="url(#p74900df4b3)" d="M 161.199106 293.10625 
L 161.199106 279.693281 
" style="fill:none;stroke:#1f77b4;"/>
    <path clip-path="url(#p74900df4b3)" d="M 160.990092 293.10625 
L 160.990092 279.693281 
" style="fill:none;stroke:#1f77b4;"/>
    <path clip-path="url(#p74900df4b3)" d="M 160.068213 293.10625 
L 160.068213 279.693281 
" style="fill:none;stroke:#1f77b4;"/>
    <path clip-path="url(#p74900df4b3)" d="M 159.019201 293.10625 
L 159.019201 279.693281 
" style="fill:none;stroke:#1f77b4;"/>
    <path clip-path="url(#p74900df4b3)" d="M 158.025825 293.10625 
L 158.025825 279.693281 
" style="fill:none;stroke:#1f77b4;"/>
    <path clip-path="url(#p74900df4b3)" d="M 156.213584 293.10625 
L 156.213584 279.693281 
" style="fill:none;stroke:#1f77b4;"/>
    <path clip-path="url(#p74900df4b3)" d="M 156.1123 293.10625 
L 156.1123 279.693281 
" style="fill:none;stroke:#1f77b4;"/>
    <path clip-path="url(#p74900df4b3)" d="M 155.442485 293.10625 
L 155.442485 279.693281 
" style="fill:none;stroke:#1f77b4;"/>
    <path clip-path="url(#p74900df4b3)" d="M 155.314543 293.10625 
L 155.314543 279.693281 
" style="fill:none;stroke:#1f77b4;"/>
    <path clip-path="url(#p74900df4b3)" d="M 155.00292 293.10625 
L 155.00292 279.693281 
" style="fill:none;stroke:#1f77b4;"/>
    <path clip-path="url(#p74900df4b3)" d="M 153.653673 293.10625 
L 153.653673 279.693281 
" style="fill:none;stroke:#1f77b4;"/>
    <path clip-path="url(#p74900df4b3)" d="M 153.449787 293.10625 
L 153.449787 279.693281 
" style="fill:none;stroke:#1f77b4;"/>
    <path clip-path="url(#p74900df4b3)" d="M 153.042015 293.10625 
L 153.042015 279.693281 
" style="fill:none;stroke:#1f77b4;"/>
    <path clip-path="url(#p74900df4b3)" d="M 152.389916 293.10625 
L 152.389916 279.693281 
" style="fill:none;stroke:#1f77b4;"/>
    <path clip-path="url(#p74900df4b3)" d="M 151.294419 293.10625 
L 151.294419 279.693281 
" style="fill:none;stroke:#1f77b4;"/>
    <path clip-path="url(#p74900df4b3)" d="M 150.529612 293.10625 
L 150.529612 279.693281 
" style="fill:none;stroke:#1f77b4;"/>
    <path clip-path="url(#p74900df4b3)" d="M 149.456018 293.10625 
L 149.456018 279.693281 
" style="fill:none;stroke:#1f77b4;"/>
    <path clip-path="url(#p74900df4b3)" d="M 149.242675 293.10625 
L 149.242675 279.693281 
" style="fill:none;stroke:#1f77b4;"/>
    <path clip-path="url(#p74900df4b3)" d="M 149.139052 293.10625 
L 149.139052 279.693281 
" style="fill:none;stroke:#1f77b4;"/>
    <path clip-path="url(#p74900df4b3)" d="M 147.820096 293.10625 
L 147.820096 279.693281 
" style="fill:none;stroke:#1f77b4;"/>
    <path clip-path="url(#p74900df4b3)" d="M 145.877371 293.10625 
L 145.877371 279.693281 
" style="fill:none;stroke:#1f77b4;"/>
    <path clip-path="url(#p74900df4b3)" d="M 144.692664 293.10625 
L 144.692664 279.693281 
" style="fill:none;stroke:#1f77b4;"/>
    <path clip-path="url(#p74900df4b3)" d="M 143.767794 293.10625 
L 143.767794 279.693281 
" style="fill:none;stroke:#1f77b4;"/>
    <path clip-path="url(#p74900df4b3)" d="M 141.890095 293.10625 
L 141.890095 279.693281 
" style="fill:none;stroke:#1f77b4;"/>
    <path clip-path="url(#p74900df4b3)" d="M 140.641304 293.10625 
L 140.641304 279.693281 
" style="fill:none;stroke:#1f77b4;"/>
   </g>
   <g id="line2d_1">
    <path clip-path="url(#p74900df4b3)" d="M 66.545455 292.742378 
L 70.284896 292.542679 
L 74.024338 292.226251 
L 77.76378 291.744578 
L 81.503221 291.032732 
L 85.242663 290.007071 
L 88.982105 288.56381 
L 92.721546 286.579064 
L 96.460988 283.911036 
L 100.200429 280.40491 
L 103.939871 275.900849 
L 107.679313 270.24516 
L 111.418754 263.30421 
L 115.158196 254.980188 
L 118.897638 245.227261 
L 122.637079 234.06632 
L 126.376521 221.596266 
L 130.115963 207.999953 
L 133.855404 193.543263 
L 145.073729 148.683478 
L 148.813171 134.654818 
L 152.552613 121.80539 
L 156.292054 110.509807 
L 160.031496 101.070038 
L 163.770938 93.69708 
L 167.510379 88.500222 
L 171.249821 85.484582 
L 174.989263 84.556753 
L 178.728704 85.537579 
L 182.468146 88.180504 
L 186.207588 92.193536 
L 189.947029 97.26273 
L 193.686471 103.075104 
L 201.165354 115.801339 
L 208.644238 128.560098 
L 212.383679 134.615973 
L 216.123121 140.3846 
L 219.862563 145.868274 
L 223.602004 151.101416 
L 231.080888 161.042928 
L 249.778096 185.355527 
L 272.214746 215.276675 
L 279.693629 224.586264 
L 283.433071 228.94818 
L 287.172513 233.070631 
L 290.911954 236.927286 
L 294.651396 240.498924 
L 298.390838 243.774256 
L 302.130279 246.75012 
L 305.869721 249.431015 
L 309.609162 251.828095 
L 313.348604 253.957749 
L 317.088046 255.840018 
L 320.827487 257.49705 
L 324.566929 258.951785 
L 328.306371 260.226986 
L 332.045812 261.344677 
L 335.785254 262.325956 
L 343.264137 263.95994 
L 350.743021 265.287175 
L 373.179671 268.969701 
L 380.658554 270.505869 
L 388.137437 272.271797 
L 399.355762 275.236731 
L 418.052971 280.291987 
L 425.531854 282.110707 
L 433.010737 283.709945 
L 440.489621 285.046494 
L 447.968504 286.119116 
L 455.447387 286.980878 
L 504.060129 291.851615 
L 511.539012 292.343304 
L 522.757337 292.788168 
L 533.975662 292.935884 
L 541.454545 292.860122 
L 541.454545 292.860122 
" style="fill:none;stroke:#1f77b4;stroke-linecap:round;stroke-width:1.5;"/>
   </g>
   <g id="text_15">
    <!-- Distribution of COVID-19 Country - % Case Fatality Rate as of 2020-04-10 -->
    <defs>
     <path d="M 7.71875 0 
L 7.71875 71.578125 
L 32.375 71.578125 
Q 40.71875 71.578125 45.125 70.5625 
Q 51.265625 69.140625 55.609375 65.4375 
Q 61.28125 60.640625 64.078125 53.1875 
Q 66.890625 45.75 66.890625 36.1875 
Q 66.890625 28.03125 64.984375 21.734375 
Q 63.09375 15.4375 60.109375 11.296875 
Q 57.125 7.171875 53.578125 4.796875 
Q 50.046875 2.4375 45.046875 1.21875 
Q 40.046875 0 33.546875 0 
z
M 17.1875 8.453125 
L 32.46875 8.453125 
Q 39.546875 8.453125 43.578125 9.765625 
Q 47.609375 11.078125 50 13.484375 
Q 53.375 16.84375 55.25 22.53125 
Q 57.125 28.21875 57.125 36.328125 
Q 57.125 47.5625 53.4375 53.59375 
Q 49.75 59.625 44.484375 61.671875 
Q 40.671875 63.140625 32.234375 63.140625 
L 17.1875 63.140625 
z
" id="ArialMT-68"/>
     <path d="M 6.5 0 
L 6.5 51.859375 
L 14.40625 51.859375 
L 14.40625 44 
Q 17.4375 49.515625 20 51.265625 
Q 22.5625 53.03125 25.640625 53.03125 
Q 30.078125 53.03125 34.671875 50.203125 
L 31.640625 42.046875 
Q 28.421875 43.953125 25.203125 43.953125 
Q 22.3125 43.953125 20.015625 42.21875 
Q 17.71875 40.484375 16.75 37.40625 
Q 15.28125 32.71875 15.28125 27.15625 
L 15.28125 0 
z
" id="ArialMT-114"/>
     <path d="M 14.703125 0 
L 6.546875 0 
L 6.546875 71.578125 
L 15.328125 71.578125 
L 15.328125 46.046875 
Q 20.90625 53.03125 29.546875 53.03125 
Q 34.328125 53.03125 38.59375 51.09375 
Q 42.875 49.171875 45.625 45.671875 
Q 48.390625 42.1875 49.953125 37.25 
Q 51.515625 32.328125 51.515625 26.703125 
Q 51.515625 13.375 44.921875 6.09375 
Q 38.328125 -1.171875 29.109375 -1.171875 
Q 19.921875 -1.171875 14.703125 6.5 
z
M 14.59375 26.3125 
Q 14.59375 17 17.140625 12.84375 
Q 21.296875 6.0625 28.375 6.0625 
Q 34.125 6.0625 38.328125 11.0625 
Q 42.53125 16.0625 42.53125 25.984375 
Q 42.53125 36.140625 38.5 40.96875 
Q 34.46875 45.796875 28.765625 45.796875 
Q 23 45.796875 18.796875 40.796875 
Q 14.59375 35.796875 14.59375 26.3125 
z
" id="ArialMT-98"/>
     <path d="M 40.578125 0 
L 40.578125 7.625 
Q 34.515625 -1.171875 24.125 -1.171875 
Q 19.53125 -1.171875 15.546875 0.578125 
Q 11.578125 2.34375 9.640625 5 
Q 7.71875 7.671875 6.9375 11.53125 
Q 6.390625 14.109375 6.390625 19.734375 
L 6.390625 51.859375 
L 15.1875 51.859375 
L 15.1875 23.09375 
Q 15.1875 16.21875 15.71875 13.8125 
Q 16.546875 10.359375 19.234375 8.375 
Q 21.921875 6.390625 25.875 6.390625 
Q 29.828125 6.390625 33.296875 8.421875 
Q 36.765625 10.453125 38.203125 13.9375 
Q 39.65625 17.4375 39.65625 24.078125 
L 39.65625 51.859375 
L 48.4375 51.859375 
L 48.4375 0 
z
" id="ArialMT-117"/>
     <path d="M 3.328125 25.921875 
Q 3.328125 40.328125 11.328125 47.265625 
Q 18.015625 53.03125 27.640625 53.03125 
Q 38.328125 53.03125 45.109375 46.015625 
Q 51.90625 39.015625 51.90625 26.65625 
Q 51.90625 16.65625 48.90625 10.90625 
Q 45.90625 5.171875 40.15625 2 
Q 34.421875 -1.171875 27.640625 -1.171875 
Q 16.75 -1.171875 10.03125 5.8125 
Q 3.328125 12.796875 3.328125 25.921875 
z
M 12.359375 25.921875 
Q 12.359375 15.96875 16.703125 11.015625 
Q 21.046875 6.0625 27.640625 6.0625 
Q 34.1875 6.0625 38.53125 11.03125 
Q 42.875 16.015625 42.875 26.21875 
Q 42.875 35.84375 38.5 40.796875 
Q 34.125 45.75 27.640625 45.75 
Q 21.046875 45.75 16.703125 40.8125 
Q 12.359375 35.890625 12.359375 25.921875 
z
" id="ArialMT-111"/>
     <path d="M 6.59375 0 
L 6.59375 51.859375 
L 14.5 51.859375 
L 14.5 44.484375 
Q 20.21875 53.03125 31 53.03125 
Q 35.6875 53.03125 39.625 51.34375 
Q 43.5625 49.65625 45.515625 46.921875 
Q 47.46875 44.1875 48.25 40.4375 
Q 48.734375 37.984375 48.734375 31.890625 
L 48.734375 0 
L 39.9375 0 
L 39.9375 31.546875 
Q 39.9375 36.921875 38.90625 39.578125 
Q 37.890625 42.234375 35.28125 43.8125 
Q 32.671875 45.40625 29.15625 45.40625 
Q 23.53125 45.40625 19.453125 41.84375 
Q 15.375 38.28125 15.375 28.328125 
L 15.375 0 
z
" id="ArialMT-110"/>
     <path d="M 8.6875 0 
L 8.6875 45.015625 
L 0.921875 45.015625 
L 0.921875 51.859375 
L 8.6875 51.859375 
L 8.6875 57.375 
Q 8.6875 62.59375 9.625 65.140625 
Q 10.890625 68.5625 14.078125 70.671875 
Q 17.28125 72.796875 23.046875 72.796875 
Q 26.765625 72.796875 31.25 71.921875 
L 29.9375 64.265625 
Q 27.203125 64.75 24.75 64.75 
Q 20.75 64.75 19.09375 63.03125 
Q 17.4375 61.328125 17.4375 56.640625 
L 17.4375 51.859375 
L 27.546875 51.859375 
L 27.546875 45.015625 
L 17.4375 45.015625 
L 17.4375 0 
z
" id="ArialMT-102"/>
     <path d="M 4.828125 34.859375 
Q 4.828125 52.6875 14.390625 62.765625 
Q 23.96875 72.859375 39.109375 72.859375 
Q 49.03125 72.859375 56.984375 68.109375 
Q 64.9375 63.375 69.109375 54.90625 
Q 73.296875 46.4375 73.296875 35.6875 
Q 73.296875 24.8125 68.890625 16.21875 
Q 64.5 7.625 56.4375 3.203125 
Q 48.390625 -1.21875 39.0625 -1.21875 
Q 28.953125 -1.21875 20.984375 3.65625 
Q 13.03125 8.546875 8.921875 16.984375 
Q 4.828125 25.4375 4.828125 34.859375 
z
M 14.59375 34.71875 
Q 14.59375 21.78125 21.546875 14.328125 
Q 28.515625 6.890625 39.015625 6.890625 
Q 49.703125 6.890625 56.609375 14.40625 
Q 63.53125 21.921875 63.53125 35.75 
Q 63.53125 44.484375 60.578125 51 
Q 57.625 57.515625 51.921875 61.109375 
Q 46.234375 64.703125 39.15625 64.703125 
Q 29.109375 64.703125 21.84375 57.78125 
Q 14.59375 50.875 14.59375 34.71875 
z
" id="ArialMT-79"/>
     <path d="M 28.171875 0 
L 0.4375 71.578125 
L 10.6875 71.578125 
L 29.296875 19.578125 
Q 31.546875 13.328125 33.0625 7.859375 
Q 34.71875 13.71875 36.921875 19.578125 
L 56.25 71.578125 
L 65.921875 71.578125 
L 37.890625 0 
z
" id="ArialMT-86"/>
     <path d="M 9.328125 0 
L 9.328125 71.578125 
L 18.796875 71.578125 
L 18.796875 0 
z
" id="ArialMT-73"/>
     <path d="M 3.171875 21.484375 
L 3.171875 30.328125 
L 30.171875 30.328125 
L 30.171875 21.484375 
z
" id="ArialMT-45"/>
     <path d="M 5.46875 16.546875 
L 13.921875 17.328125 
Q 14.984375 11.375 18.015625 8.6875 
Q 21.046875 6 25.78125 6 
Q 29.828125 6 32.875 7.859375 
Q 35.9375 9.71875 37.890625 12.8125 
Q 39.84375 15.921875 41.15625 21.1875 
Q 42.484375 26.46875 42.484375 31.9375 
Q 42.484375 32.515625 42.4375 33.6875 
Q 39.796875 29.5 35.234375 26.875 
Q 30.671875 24.265625 25.34375 24.265625 
Q 16.453125 24.265625 10.296875 30.703125 
Q 4.15625 37.15625 4.15625 47.703125 
Q 4.15625 58.59375 10.578125 65.234375 
Q 17 71.875 26.65625 71.875 
Q 33.640625 71.875 39.421875 68.109375 
Q 45.21875 64.359375 48.21875 57.390625 
Q 51.21875 50.4375 51.21875 37.25 
Q 51.21875 23.53125 48.234375 15.40625 
Q 45.265625 7.28125 39.375 3.03125 
Q 33.5 -1.21875 25.59375 -1.21875 
Q 17.1875 -1.21875 11.859375 3.4375 
Q 6.546875 8.109375 5.46875 16.546875 
z
M 41.453125 48.140625 
Q 41.453125 55.71875 37.421875 60.15625 
Q 33.40625 64.59375 27.734375 64.59375 
Q 21.875 64.59375 17.53125 59.8125 
Q 13.1875 55.03125 13.1875 47.40625 
Q 13.1875 40.578125 17.3125 36.296875 
Q 21.4375 32.03125 27.484375 32.03125 
Q 33.59375 32.03125 37.515625 36.296875 
Q 41.453125 40.578125 41.453125 48.140625 
z
" id="ArialMT-57"/>
     <path d="M 32.328125 0 
L 32.328125 17.140625 
L 1.265625 17.140625 
L 1.265625 25.203125 
L 33.9375 71.578125 
L 41.109375 71.578125 
L 41.109375 25.203125 
L 50.78125 25.203125 
L 50.78125 17.140625 
L 41.109375 17.140625 
L 41.109375 0 
z
M 32.328125 25.203125 
L 32.328125 57.46875 
L 9.90625 25.203125 
z
" id="ArialMT-52"/>
    </defs>
    <g style="fill:#262626;" transform="translate(106.591563 18.846875)scale(0.12 -0.12)">
     <use xlink:href="#ArialMT-68"/>
     <use x="72.216797" xlink:href="#ArialMT-105"/>
     <use x="94.433594" xlink:href="#ArialMT-115"/>
     <use x="144.433594" xlink:href="#ArialMT-116"/>
     <use x="172.216797" xlink:href="#ArialMT-114"/>
     <use x="205.517578" xlink:href="#ArialMT-105"/>
     <use x="227.734375" xlink:href="#ArialMT-98"/>
     <use x="283.349609" xlink:href="#ArialMT-117"/>
     <use x="338.964844" xlink:href="#ArialMT-116"/>
     <use x="366.748047" xlink:href="#ArialMT-105"/>
     <use x="388.964844" xlink:href="#ArialMT-111"/>
     <use x="444.580078" xlink:href="#ArialMT-110"/>
     <use x="500.195312" xlink:href="#ArialMT-32"/>
     <use x="527.978516" xlink:href="#ArialMT-111"/>
     <use x="583.59375" xlink:href="#ArialMT-102"/>
     <use x="611.376953" xlink:href="#ArialMT-32"/>
     <use x="639.160156" xlink:href="#ArialMT-67"/>
     <use x="711.376953" xlink:href="#ArialMT-79"/>
     <use x="789.160156" xlink:href="#ArialMT-86"/>
     <use x="855.859375" xlink:href="#ArialMT-73"/>
     <use x="883.642578" xlink:href="#ArialMT-68"/>
     <use x="955.859375" xlink:href="#ArialMT-45"/>
     <use x="989.160156" xlink:href="#ArialMT-49"/>
     <use x="1044.775391" xlink:href="#ArialMT-57"/>
     <use x="1100.390625" xlink:href="#ArialMT-32"/>
     <use x="1128.173828" xlink:href="#ArialMT-67"/>
     <use x="1200.390625" xlink:href="#ArialMT-111"/>
     <use x="1256.005859" xlink:href="#ArialMT-117"/>
     <use x="1311.621094" xlink:href="#ArialMT-110"/>
     <use x="1367.236328" xlink:href="#ArialMT-116"/>
     <use x="1395.019531" xlink:href="#ArialMT-114"/>
     <use x="1428.320312" xlink:href="#ArialMT-121"/>
     <use x="1478.320312" xlink:href="#ArialMT-32"/>
     <use x="1506.103516" xlink:href="#ArialMT-45"/>
     <use x="1539.404297" xlink:href="#ArialMT-32"/>
     <use x="1567.1875" xlink:href="#ArialMT-37"/>
     <use x="1656.103516" xlink:href="#ArialMT-32"/>
     <use x="1683.886719" xlink:href="#ArialMT-67"/>
     <use x="1756.103516" xlink:href="#ArialMT-97"/>
     <use x="1811.71875" xlink:href="#ArialMT-115"/>
     <use x="1861.71875" xlink:href="#ArialMT-101"/>
     <use x="1917.333984" xlink:href="#ArialMT-32"/>
     <use x="1945.117188" xlink:href="#ArialMT-70"/>
     <use x="2006.201172" xlink:href="#ArialMT-97"/>
     <use x="2061.816406" xlink:href="#ArialMT-116"/>
     <use x="2089.599609" xlink:href="#ArialMT-97"/>
     <use x="2145.214844" xlink:href="#ArialMT-108"/>
     <use x="2167.431641" xlink:href="#ArialMT-105"/>
     <use x="2189.648438" xlink:href="#ArialMT-116"/>
     <use x="2217.431641" xlink:href="#ArialMT-121"/>
     <use x="2267.431641" xlink:href="#ArialMT-32"/>
     <use x="2295.214844" xlink:href="#ArialMT-82"/>
     <use x="2367.431641" xlink:href="#ArialMT-97"/>
     <use x="2423.046875" xlink:href="#ArialMT-116"/>
     <use x="2450.830078" xlink:href="#ArialMT-101"/>
     <use x="2506.445312" xlink:href="#ArialMT-32"/>
     <use x="2534.228516" xlink:href="#ArialMT-97"/>
     <use x="2589.84375" xlink:href="#ArialMT-115"/>
     <use x="2639.84375" xlink:href="#ArialMT-32"/>
     <use x="2667.626953" xlink:href="#ArialMT-111"/>
     <use x="2723.242188" xlink:href="#ArialMT-102"/>
     <use x="2751.025391" xlink:href="#ArialMT-32"/>
     <use x="2778.808594" xlink:href="#ArialMT-50"/>
     <use x="2834.423828" xlink:href="#ArialMT-48"/>
     <use x="2890.039062" xlink:href="#ArialMT-50"/>
     <use x="2945.654297" xlink:href="#ArialMT-48"/>
     <use x="3001.269531" xlink:href="#ArialMT-45"/>
     <use x="3034.570312" xlink:href="#ArialMT-48"/>
     <use x="3090.185547" xlink:href="#ArialMT-52"/>
     <use x="3145.800781" xlink:href="#ArialMT-45"/>
     <use x="3179.101562" xlink:href="#ArialMT-49"/>
     <use x="3234.716797" xlink:href="#ArialMT-48"/>
    </g>
   </g>
  </g>
 </g>
 <defs>
  <clipPath id="p74900df4b3">
   <rect height="268.259375" width="522.4" x="42.8" y="24.846875"/>
  </clipPath>
 </defs>
</svg>
