<?xml version="1.0" encoding="utf-8" standalone="no"?>
<!DOCTYPE svg PUBLIC "-//W3C//DTD SVG 1.1//EN"
  "http://www.w3.org/Graphics/SVG/1.1/DTD/svg11.dtd">
<!-- Created with matplotlib (https://matplotlib.org/) -->
<svg height="432pt" version="1.1" viewBox="0 0 1152 432" width="1152pt" xmlns="http://www.w3.org/2000/svg" xmlns:xlink="http://www.w3.org/1999/xlink">
 <defs>
  <style type="text/css">
*{stroke-linecap:butt;stroke-linejoin:round;}
  </style>
 </defs>
 <g id="figure_1">
  <g id="patch_1">
   <path d="M 0 432 
L 1152 432 
L 1152 0 
L 0 0 
z
" style="fill:#ffffff;"/>
  </g>
  <g id="axes_1">
   <g id="matplotlib.axis_1"/>
   <g id="matplotlib.axis_2"/>
   <g id="patch_2">
    <path d="M 469.174545 223 
C 469.174545 196.981117 462.770198 171.357833 450.528502 148.39867 
C 438.286806 125.439508 420.580016 105.842622 398.975777 91.342997 
C 377.371538 76.843372 352.526805 67.881921 326.641172 65.252034 
C 300.75554 62.622147 274.616154 66.403794 250.537229 76.262174 
L 310.614545 223 
L 469.174545 223 
z
" style="fill:#1f77b4;stroke:#ffffff;stroke-linejoin:miter;"/>
   </g>
   <g id="patch_3">
    <path d="M 250.537229 76.262174 
C 236.909108 81.841791 224.12449 89.292851 212.55242 98.400268 
C 200.980351 107.507685 190.733259 118.182976 182.106939 130.117985 
L 310.614545 223 
L 250.537229 76.262174 
z
" style="fill:#ff7f0e;stroke:#ffffff;stroke-linejoin:miter;"/>
   </g>
   <g id="patch_4">
    <path d="M 182.106939 130.117985 
C 173.984701 141.355568 167.371475 153.610157 162.436661 166.567844 
C 157.501848 179.52553 154.287947 193.07472 152.877285 206.868344 
L 310.614545 223 
L 182.106939 130.117985 
z
" style="fill:#2ca02c;stroke:#ffffff;stroke-linejoin:miter;"/>
   </g>
   <g id="patch_5">
    <path d="M 152.877285 206.868344 
C 151.737419 218.014092 151.782098 229.249329 153.010572 240.385659 
C 154.239046 251.521989 156.644411 262.496814 160.186332 273.126103 
L 310.614545 223 
L 152.877285 206.868344 
z
" style="fill:#d62728;stroke:#ffffff;stroke-linejoin:miter;"/>
   </g>
   <g id="patch_6">
    <path d="M 160.186332 273.126103 
C 163.728199 283.755229 168.386679 293.979086 174.083659 303.62624 
C 179.780639 313.273394 186.484097 322.28962 194.081631 330.523734 
L 310.614545 223 
L 160.186332 273.126103 
z
" style="fill:#9467bd;stroke:#ffffff;stroke-linejoin:miter;"/>
   </g>
   <g id="patch_7">
    <path d="M 194.081631 330.523734 
C 199.564822 336.46635 205.494557 341.980846 211.818925 347.018946 
C 218.143293 352.057046 224.843785 356.604006 231.861742 360.620019 
L 310.614545 223 
L 194.081631 330.523734 
z
" style="fill:#8c564b;stroke:#ffffff;stroke-linejoin:miter;"/>
   </g>
   <g id="patch_8">
    <path d="M 231.861742 360.620019 
C 238.025198 364.147045 244.418639 367.256035 250.998872 369.925985 
C 257.579105 372.595935 264.331277 374.820818 271.209768 376.585602 
L 310.614545 223 
L 231.861742 360.620019 
z
" style="fill:#e377c2;stroke:#ffffff;stroke-linejoin:miter;"/>
   </g>
   <g id="patch_9">
    <path d="M 271.209768 376.585602 
C 277.391839 378.171708 283.664039 379.383111 289.992127 380.213197 
C 296.320215 381.043283 302.692653 381.490539 309.07465 381.552522 
L 310.614545 223 
L 271.209768 376.585602 
z
" style="fill:#7f7f7f;stroke:#ffffff;stroke-linejoin:miter;"/>
   </g>
   <g id="patch_10">
    <path d="M 309.07465 381.552522 
C 314.623851 381.606417 320.172057 381.368949 325.696358 380.841099 
C 331.220659 380.313249 336.713442 379.495743 342.152026 378.391959 
L 310.614545 223 
L 309.07465 381.552522 
z
" style="fill:#bcbd22;stroke:#ffffff;stroke-linejoin:miter;"/>
   </g>
   <g id="patch_11">
    <path d="M 342.152026 378.391959 
C 344.75087 377.864512 347.336073 377.271952 349.905196 376.614838 
C 352.474319 375.957724 355.026552 375.236262 357.559488 374.451134 
L 310.614545 223 
L 342.152026 378.391959 
z
" style="fill:#17becf;stroke:#ffffff;stroke-linejoin:miter;"/>
   </g>
   <g id="patch_12">
    <path d="M 357.559488 374.451134 
C 389.889143 364.429989 418.175992 344.315452 438.256362 317.068274 
C 458.336733 289.821097 469.17455 256.847136 469.174545 222.99998 
L 310.614545 223 
L 357.559488 374.451134 
z
" style="fill:#1f77b4;stroke:#ffffff;stroke-linejoin:miter;"/>
   </g>
   <g id="text_1">
    <!-- US -->
    <defs>
     <path d="M 54.6875 71.578125 
L 64.15625 71.578125 
L 64.15625 30.21875 
Q 64.15625 19.4375 61.71875 13.078125 
Q 59.28125 6.734375 52.90625 2.75 
Q 46.53125 -1.21875 36.1875 -1.21875 
Q 26.125 -1.21875 19.71875 2.25 
Q 13.328125 5.71875 10.59375 12.28125 
Q 7.859375 18.84375 7.859375 30.21875 
L 7.859375 71.578125 
L 17.328125 71.578125 
L 17.328125 30.28125 
Q 17.328125 20.953125 19.0625 16.53125 
Q 20.796875 12.109375 25.015625 9.71875 
Q 29.25 7.328125 35.359375 7.328125 
Q 45.796875 7.328125 50.234375 12.0625 
Q 54.6875 16.796875 54.6875 30.28125 
z
" id="ArialMT-85"/>
     <path d="M 4.5 23 
L 13.421875 23.78125 
Q 14.0625 18.40625 16.375 14.96875 
Q 18.703125 11.53125 23.578125 9.40625 
Q 28.46875 7.28125 34.578125 7.28125 
Q 39.984375 7.28125 44.140625 8.890625 
Q 48.296875 10.5 50.3125 13.296875 
Q 52.34375 16.109375 52.34375 19.4375 
Q 52.34375 22.796875 50.390625 25.3125 
Q 48.4375 27.828125 43.953125 29.546875 
Q 41.0625 30.671875 31.203125 33.03125 
Q 21.34375 35.40625 17.390625 37.5 
Q 12.25 40.1875 9.734375 44.15625 
Q 7.234375 48.140625 7.234375 53.078125 
Q 7.234375 58.5 10.296875 63.203125 
Q 13.375 67.921875 19.28125 70.359375 
Q 25.203125 72.796875 32.421875 72.796875 
Q 40.375 72.796875 46.453125 70.234375 
Q 52.546875 67.671875 55.8125 62.6875 
Q 59.078125 57.71875 59.328125 51.421875 
L 50.25 50.734375 
Q 49.515625 57.515625 45.28125 60.984375 
Q 41.0625 64.453125 32.8125 64.453125 
Q 24.21875 64.453125 20.28125 61.296875 
Q 16.359375 58.15625 16.359375 53.71875 
Q 16.359375 49.859375 19.140625 47.359375 
Q 21.875 44.875 33.421875 42.265625 
Q 44.96875 39.65625 49.265625 37.703125 
Q 55.515625 34.8125 58.484375 30.390625 
Q 61.46875 25.984375 61.46875 20.21875 
Q 61.46875 14.5 58.203125 9.4375 
Q 54.9375 4.390625 48.796875 1.578125 
Q 42.671875 -1.21875 35.015625 -1.21875 
Q 25.296875 -1.21875 18.71875 1.609375 
Q 12.15625 4.4375 8.421875 10.125 
Q 4.6875 15.828125 4.5 23 
z
" id="ArialMT-83"/>
    </defs>
    <g style="fill:#262626;" transform="translate(407.8119 80.762453)scale(0.1 -0.1)">
     <use xlink:href="#ArialMT-85"/>
     <use x="72.216797" xlink:href="#ArialMT-83"/>
    </g>
   </g>
   <g id="text_2">
    <!-- Spain -->
    <defs>
     <path d="M 6.59375 -19.875 
L 6.59375 51.859375 
L 14.59375 51.859375 
L 14.59375 45.125 
Q 17.4375 49.078125 21 51.046875 
Q 24.5625 53.03125 29.640625 53.03125 
Q 36.28125 53.03125 41.359375 49.609375 
Q 46.4375 46.1875 49.015625 39.953125 
Q 51.609375 33.734375 51.609375 26.3125 
Q 51.609375 18.359375 48.75 11.984375 
Q 45.90625 5.609375 40.453125 2.21875 
Q 35.015625 -1.171875 29 -1.171875 
Q 24.609375 -1.171875 21.109375 0.6875 
Q 17.625 2.546875 15.375 5.375 
L 15.375 -19.875 
z
M 14.546875 25.640625 
Q 14.546875 15.625 18.59375 10.84375 
Q 22.65625 6.0625 28.421875 6.0625 
Q 34.28125 6.0625 38.453125 11.015625 
Q 42.625 15.96875 42.625 26.375 
Q 42.625 36.28125 38.546875 41.203125 
Q 34.46875 46.140625 28.8125 46.140625 
Q 23.1875 46.140625 18.859375 40.890625 
Q 14.546875 35.640625 14.546875 25.640625 
z
" id="ArialMT-112"/>
     <path d="M 40.4375 6.390625 
Q 35.546875 2.25 31.03125 0.53125 
Q 26.515625 -1.171875 21.34375 -1.171875 
Q 12.796875 -1.171875 8.203125 3 
Q 3.609375 7.171875 3.609375 13.671875 
Q 3.609375 17.484375 5.34375 20.625 
Q 7.078125 23.78125 9.890625 25.6875 
Q 12.703125 27.59375 16.21875 28.5625 
Q 18.796875 29.25 24.03125 29.890625 
Q 34.671875 31.15625 39.703125 32.90625 
Q 39.75 34.71875 39.75 35.203125 
Q 39.75 40.578125 37.25 42.78125 
Q 33.890625 45.75 27.25 45.75 
Q 21.046875 45.75 18.09375 43.578125 
Q 15.140625 41.40625 13.71875 35.890625 
L 5.125 37.0625 
Q 6.296875 42.578125 8.984375 45.96875 
Q 11.671875 49.359375 16.75 51.1875 
Q 21.828125 53.03125 28.515625 53.03125 
Q 35.15625 53.03125 39.296875 51.46875 
Q 43.453125 49.90625 45.40625 47.53125 
Q 47.359375 45.171875 48.140625 41.546875 
Q 48.578125 39.3125 48.578125 33.453125 
L 48.578125 21.734375 
Q 48.578125 9.46875 49.140625 6.21875 
Q 49.703125 2.984375 51.375 0 
L 42.1875 0 
Q 40.828125 2.734375 40.4375 6.390625 
z
M 39.703125 26.03125 
Q 34.90625 24.078125 25.34375 22.703125 
Q 19.921875 21.921875 17.671875 20.9375 
Q 15.4375 19.96875 14.203125 18.09375 
Q 12.984375 16.21875 12.984375 13.921875 
Q 12.984375 10.40625 15.640625 8.0625 
Q 18.3125 5.71875 23.4375 5.71875 
Q 28.515625 5.71875 32.46875 7.9375 
Q 36.421875 10.15625 38.28125 14.015625 
Q 39.703125 17 39.703125 22.796875 
z
" id="ArialMT-97"/>
     <path d="M 6.640625 61.46875 
L 6.640625 71.578125 
L 15.4375 71.578125 
L 15.4375 61.46875 
z
M 6.640625 0 
L 6.640625 51.859375 
L 15.4375 51.859375 
L 15.4375 0 
z
" id="ArialMT-105"/>
     <path d="M 6.59375 0 
L 6.59375 51.859375 
L 14.5 51.859375 
L 14.5 44.484375 
Q 20.21875 53.03125 31 53.03125 
Q 35.6875 53.03125 39.625 51.34375 
Q 43.5625 49.65625 45.515625 46.921875 
Q 47.46875 44.1875 48.25 40.4375 
Q 48.734375 37.984375 48.734375 31.890625 
L 48.734375 0 
L 39.9375 0 
L 39.9375 31.546875 
Q 39.9375 36.921875 38.90625 39.578125 
Q 37.890625 42.234375 35.28125 43.8125 
Q 32.671875 45.40625 29.15625 45.40625 
Q 23.53125 45.40625 19.453125 41.84375 
Q 15.375 38.28125 15.375 28.328125 
L 15.375 0 
z
" id="ArialMT-110"/>
    </defs>
    <g style="fill:#262626;" transform="translate(177.171208 88.586388)scale(0.1 -0.1)">
     <use xlink:href="#ArialMT-83"/>
     <use x="66.699219" xlink:href="#ArialMT-112"/>
     <use x="122.314453" xlink:href="#ArialMT-97"/>
     <use x="177.929688" xlink:href="#ArialMT-105"/>
     <use x="200.146484" xlink:href="#ArialMT-110"/>
    </g>
   </g>
   <g id="text_3">
    <!-- Italy -->
    <defs>
     <path d="M 9.328125 0 
L 9.328125 71.578125 
L 18.796875 71.578125 
L 18.796875 0 
z
" id="ArialMT-73"/>
     <path d="M 25.78125 7.859375 
L 27.046875 0.09375 
Q 23.34375 -0.6875 20.40625 -0.6875 
Q 15.625 -0.6875 12.984375 0.828125 
Q 10.359375 2.34375 9.28125 4.8125 
Q 8.203125 7.28125 8.203125 15.1875 
L 8.203125 45.015625 
L 1.765625 45.015625 
L 1.765625 51.859375 
L 8.203125 51.859375 
L 8.203125 64.703125 
L 16.9375 69.96875 
L 16.9375 51.859375 
L 25.78125 51.859375 
L 25.78125 45.015625 
L 16.9375 45.015625 
L 16.9375 14.703125 
Q 16.9375 10.9375 17.40625 9.859375 
Q 17.875 8.796875 18.921875 8.15625 
Q 19.96875 7.515625 21.921875 7.515625 
Q 23.390625 7.515625 25.78125 7.859375 
z
" id="ArialMT-116"/>
     <path d="M 6.390625 0 
L 6.390625 71.578125 
L 15.1875 71.578125 
L 15.1875 0 
z
" id="ArialMT-108"/>
     <path d="M 6.203125 -19.96875 
L 5.21875 -11.71875 
Q 8.109375 -12.5 10.25 -12.5 
Q 13.1875 -12.5 14.9375 -11.515625 
Q 16.703125 -10.546875 17.828125 -8.796875 
Q 18.65625 -7.46875 20.515625 -2.25 
Q 20.75 -1.515625 21.296875 -0.09375 
L 1.609375 51.859375 
L 11.078125 51.859375 
L 21.875 21.828125 
Q 23.96875 16.109375 25.640625 9.8125 
Q 27.15625 15.875 29.25 21.625 
L 40.328125 51.859375 
L 49.125 51.859375 
L 29.390625 -0.875 
Q 26.21875 -9.421875 24.46875 -12.640625 
Q 22.125 -17 19.09375 -19.015625 
Q 16.0625 -21.046875 11.859375 -21.046875 
Q 9.328125 -21.046875 6.203125 -19.96875 
z
" id="ArialMT-121"/>
    </defs>
    <g style="fill:#262626;" transform="translate(129.279811 163.45119)scale(0.1 -0.1)">
     <use xlink:href="#ArialMT-73"/>
     <use x="27.783203" xlink:href="#ArialMT-116"/>
     <use x="55.566406" xlink:href="#ArialMT-97"/>
     <use x="111.181641" xlink:href="#ArialMT-108"/>
     <use x="133.398438" xlink:href="#ArialMT-121"/>
    </g>
   </g>
   <g id="text_4">
    <!-- France -->
    <defs>
     <path d="M 8.203125 0 
L 8.203125 71.578125 
L 56.5 71.578125 
L 56.5 63.140625 
L 17.671875 63.140625 
L 17.671875 40.96875 
L 51.265625 40.96875 
L 51.265625 32.515625 
L 17.671875 32.515625 
L 17.671875 0 
z
" id="ArialMT-70"/>
     <path d="M 6.5 0 
L 6.5 51.859375 
L 14.40625 51.859375 
L 14.40625 44 
Q 17.4375 49.515625 20 51.265625 
Q 22.5625 53.03125 25.640625 53.03125 
Q 30.078125 53.03125 34.671875 50.203125 
L 31.640625 42.046875 
Q 28.421875 43.953125 25.203125 43.953125 
Q 22.3125 43.953125 20.015625 42.21875 
Q 17.71875 40.484375 16.75 37.40625 
Q 15.28125 32.71875 15.28125 27.15625 
L 15.28125 0 
z
" id="ArialMT-114"/>
     <path d="M 40.4375 19 
L 49.078125 17.875 
Q 47.65625 8.9375 41.8125 3.875 
Q 35.984375 -1.171875 27.484375 -1.171875 
Q 16.84375 -1.171875 10.375 5.78125 
Q 3.90625 12.75 3.90625 25.734375 
Q 3.90625 34.125 6.6875 40.421875 
Q 9.46875 46.734375 15.15625 49.875 
Q 20.84375 53.03125 27.546875 53.03125 
Q 35.984375 53.03125 41.359375 48.75 
Q 46.734375 44.484375 48.25 36.625 
L 39.703125 35.296875 
Q 38.484375 40.53125 35.375 43.15625 
Q 32.28125 45.796875 27.875 45.796875 
Q 21.234375 45.796875 17.078125 41.03125 
Q 12.9375 36.28125 12.9375 25.984375 
Q 12.9375 15.53125 16.9375 10.796875 
Q 20.953125 6.0625 27.390625 6.0625 
Q 32.5625 6.0625 36.03125 9.234375 
Q 39.5 12.40625 40.4375 19 
z
" id="ArialMT-99"/>
     <path d="M 42.09375 16.703125 
L 51.171875 15.578125 
Q 49.03125 7.625 43.21875 3.21875 
Q 37.40625 -1.171875 28.375 -1.171875 
Q 17 -1.171875 10.328125 5.828125 
Q 3.65625 12.84375 3.65625 25.484375 
Q 3.65625 38.578125 10.390625 45.796875 
Q 17.140625 53.03125 27.875 53.03125 
Q 38.28125 53.03125 44.875 45.953125 
Q 51.46875 38.875 51.46875 26.03125 
Q 51.46875 25.25 51.421875 23.6875 
L 12.75 23.6875 
Q 13.234375 15.140625 17.578125 10.59375 
Q 21.921875 6.0625 28.421875 6.0625 
Q 33.25 6.0625 36.671875 8.59375 
Q 40.09375 11.140625 42.09375 16.703125 
z
M 13.234375 30.90625 
L 42.1875 30.90625 
Q 41.609375 37.453125 38.875 40.71875 
Q 34.671875 45.796875 27.984375 45.796875 
Q 21.921875 45.796875 17.796875 41.75 
Q 13.671875 37.703125 13.234375 30.90625 
z
" id="ArialMT-101"/>
    </defs>
    <g style="fill:#262626;" transform="translate(106.129862 244.709381)scale(0.1 -0.1)">
     <use xlink:href="#ArialMT-70"/>
     <use x="61.083984" xlink:href="#ArialMT-114"/>
     <use x="94.384766" xlink:href="#ArialMT-97"/>
     <use x="150" xlink:href="#ArialMT-110"/>
     <use x="205.615234" xlink:href="#ArialMT-99"/>
     <use x="255.615234" xlink:href="#ArialMT-101"/>
    </g>
   </g>
   <g id="text_5">
    <!-- Germany -->
    <defs>
     <path d="M 41.21875 28.078125 
L 41.21875 36.46875 
L 71.53125 36.53125 
L 71.53125 9.96875 
Q 64.546875 4.390625 57.125 1.578125 
Q 49.703125 -1.21875 41.890625 -1.21875 
Q 31.34375 -1.21875 22.71875 3.296875 
Q 14.109375 7.8125 9.71875 16.359375 
Q 5.328125 24.90625 5.328125 35.453125 
Q 5.328125 45.90625 9.6875 54.953125 
Q 14.0625 64.015625 22.265625 68.40625 
Q 30.46875 72.796875 41.15625 72.796875 
Q 48.921875 72.796875 55.1875 70.28125 
Q 61.46875 67.78125 65.03125 63.28125 
Q 68.609375 58.796875 70.453125 51.5625 
L 61.921875 49.21875 
Q 60.296875 54.6875 57.90625 57.8125 
Q 55.515625 60.9375 51.0625 62.8125 
Q 46.625 64.703125 41.21875 64.703125 
Q 34.71875 64.703125 29.984375 62.71875 
Q 25.25 60.75 22.34375 57.515625 
Q 19.4375 54.296875 17.828125 50.4375 
Q 15.09375 43.796875 15.09375 36.03125 
Q 15.09375 26.46875 18.390625 20.015625 
Q 21.6875 13.578125 27.984375 10.453125 
Q 34.28125 7.328125 41.359375 7.328125 
Q 47.515625 7.328125 53.375 9.6875 
Q 59.234375 12.0625 62.25 14.75 
L 62.25 28.078125 
z
" id="ArialMT-71"/>
     <path d="M 6.59375 0 
L 6.59375 51.859375 
L 14.453125 51.859375 
L 14.453125 44.578125 
Q 16.890625 48.390625 20.9375 50.703125 
Q 25 53.03125 30.171875 53.03125 
Q 35.9375 53.03125 39.625 50.640625 
Q 43.3125 48.25 44.828125 43.953125 
Q 50.984375 53.03125 60.84375 53.03125 
Q 68.5625 53.03125 72.703125 48.75 
Q 76.859375 44.484375 76.859375 35.59375 
L 76.859375 0 
L 68.109375 0 
L 68.109375 32.671875 
Q 68.109375 37.9375 67.25 40.25 
Q 66.40625 42.578125 64.15625 43.984375 
Q 61.921875 45.40625 58.890625 45.40625 
Q 53.421875 45.40625 49.796875 41.765625 
Q 46.1875 38.140625 46.1875 30.125 
L 46.1875 0 
L 37.40625 0 
L 37.40625 33.6875 
Q 37.40625 39.546875 35.25 42.46875 
Q 33.109375 45.40625 28.21875 45.40625 
Q 24.515625 45.40625 21.359375 43.453125 
Q 18.21875 41.5 16.796875 37.734375 
Q 15.375 33.984375 15.375 26.90625 
L 15.375 0 
z
" id="ArialMT-109"/>
    </defs>
    <g style="fill:#262626;" transform="translate(119.310258 314.276364)scale(0.1 -0.1)">
     <use xlink:href="#ArialMT-71"/>
     <use x="77.783203" xlink:href="#ArialMT-101"/>
     <use x="133.398438" xlink:href="#ArialMT-114"/>
     <use x="166.699219" xlink:href="#ArialMT-109"/>
     <use x="250" xlink:href="#ArialMT-97"/>
     <use x="305.615234" xlink:href="#ArialMT-110"/>
     <use x="361.230469" xlink:href="#ArialMT-121"/>
    </g>
   </g>
   <g id="text_6">
    <!-- United Kingdom -->
    <defs>
     <path d="M 40.234375 0 
L 40.234375 6.546875 
Q 35.296875 -1.171875 25.734375 -1.171875 
Q 19.53125 -1.171875 14.328125 2.25 
Q 9.125 5.671875 6.265625 11.796875 
Q 3.421875 17.921875 3.421875 25.875 
Q 3.421875 33.640625 6 39.96875 
Q 8.59375 46.296875 13.765625 49.65625 
Q 18.953125 53.03125 25.34375 53.03125 
Q 30.03125 53.03125 33.6875 51.046875 
Q 37.359375 49.078125 39.65625 45.90625 
L 39.65625 71.578125 
L 48.390625 71.578125 
L 48.390625 0 
z
M 12.453125 25.875 
Q 12.453125 15.921875 16.640625 10.984375 
Q 20.84375 6.0625 26.5625 6.0625 
Q 32.328125 6.0625 36.34375 10.765625 
Q 40.375 15.484375 40.375 25.140625 
Q 40.375 35.796875 36.265625 40.765625 
Q 32.171875 45.75 26.171875 45.75 
Q 20.3125 45.75 16.375 40.96875 
Q 12.453125 36.1875 12.453125 25.875 
z
" id="ArialMT-100"/>
     <path id="ArialMT-32"/>
     <path d="M 7.328125 0 
L 7.328125 71.578125 
L 16.796875 71.578125 
L 16.796875 36.078125 
L 52.34375 71.578125 
L 65.1875 71.578125 
L 35.15625 42.578125 
L 66.5 0 
L 54 0 
L 28.515625 36.234375 
L 16.796875 24.8125 
L 16.796875 0 
z
" id="ArialMT-75"/>
     <path d="M 4.984375 -4.296875 
L 13.53125 -5.5625 
Q 14.0625 -9.515625 16.5 -11.328125 
Q 19.78125 -13.765625 25.4375 -13.765625 
Q 31.546875 -13.765625 34.859375 -11.328125 
Q 38.1875 -8.890625 39.359375 -4.5 
Q 40.046875 -1.8125 39.984375 6.78125 
Q 34.234375 0 25.640625 0 
Q 14.9375 0 9.078125 7.71875 
Q 3.21875 15.4375 3.21875 26.21875 
Q 3.21875 33.640625 5.90625 39.90625 
Q 8.59375 46.1875 13.6875 49.609375 
Q 18.796875 53.03125 25.6875 53.03125 
Q 34.859375 53.03125 40.828125 45.609375 
L 40.828125 51.859375 
L 48.921875 51.859375 
L 48.921875 7.03125 
Q 48.921875 -5.078125 46.453125 -10.125 
Q 44 -15.1875 38.640625 -18.109375 
Q 33.296875 -21.046875 25.484375 -21.046875 
Q 16.21875 -21.046875 10.5 -16.875 
Q 4.78125 -12.703125 4.984375 -4.296875 
z
M 12.25 26.859375 
Q 12.25 16.65625 16.296875 11.96875 
Q 20.359375 7.28125 26.46875 7.28125 
Q 32.515625 7.28125 36.609375 11.9375 
Q 40.71875 16.609375 40.71875 26.5625 
Q 40.71875 36.078125 36.5 40.90625 
Q 32.28125 45.75 26.3125 45.75 
Q 20.453125 45.75 16.34375 40.984375 
Q 12.25 36.234375 12.25 26.859375 
z
" id="ArialMT-103"/>
     <path d="M 3.328125 25.921875 
Q 3.328125 40.328125 11.328125 47.265625 
Q 18.015625 53.03125 27.640625 53.03125 
Q 38.328125 53.03125 45.109375 46.015625 
Q 51.90625 39.015625 51.90625 26.65625 
Q 51.90625 16.65625 48.90625 10.90625 
Q 45.90625 5.171875 40.15625 2 
Q 34.421875 -1.171875 27.640625 -1.171875 
Q 16.75 -1.171875 10.03125 5.8125 
Q 3.328125 12.796875 3.328125 25.921875 
z
M 12.359375 25.921875 
Q 12.359375 15.96875 16.703125 11.015625 
Q 21.046875 6.0625 27.640625 6.0625 
Q 34.1875 6.0625 38.53125 11.03125 
Q 42.875 16.015625 42.875 26.21875 
Q 42.875 35.84375 38.5 40.796875 
Q 34.125 45.75 27.640625 45.75 
Q 21.046875 45.75 16.703125 40.8125 
Q 12.359375 35.890625 12.359375 25.921875 
z
" id="ArialMT-111"/>
    </defs>
    <g style="fill:#262626;" transform="translate(130.790926 361.947403)scale(0.1 -0.1)">
     <use xlink:href="#ArialMT-85"/>
     <use x="72.216797" xlink:href="#ArialMT-110"/>
     <use x="127.832031" xlink:href="#ArialMT-105"/>
     <use x="150.048828" xlink:href="#ArialMT-116"/>
     <use x="177.832031" xlink:href="#ArialMT-101"/>
     <use x="233.447266" xlink:href="#ArialMT-100"/>
     <use x="289.0625" xlink:href="#ArialMT-32"/>
     <use x="316.845703" xlink:href="#ArialMT-75"/>
     <use x="383.544922" xlink:href="#ArialMT-105"/>
     <use x="405.761719" xlink:href="#ArialMT-110"/>
     <use x="461.376953" xlink:href="#ArialMT-103"/>
     <use x="516.992188" xlink:href="#ArialMT-100"/>
     <use x="572.607422" xlink:href="#ArialMT-111"/>
     <use x="628.222656" xlink:href="#ArialMT-109"/>
    </g>
   </g>
   <g id="text_7">
    <!-- China -->
    <defs>
     <path d="M 58.796875 25.09375 
L 68.265625 22.703125 
Q 65.28125 11.03125 57.546875 4.90625 
Q 49.8125 -1.21875 38.625 -1.21875 
Q 27.046875 -1.21875 19.796875 3.484375 
Q 12.546875 8.203125 8.765625 17.140625 
Q 4.984375 26.078125 4.984375 36.328125 
Q 4.984375 47.515625 9.25 55.828125 
Q 13.53125 64.15625 21.40625 68.46875 
Q 29.296875 72.796875 38.765625 72.796875 
Q 49.515625 72.796875 56.828125 67.328125 
Q 64.15625 61.859375 67.046875 51.953125 
L 57.71875 49.75 
Q 55.21875 57.5625 50.484375 61.125 
Q 45.75 64.703125 38.578125 64.703125 
Q 30.328125 64.703125 24.78125 60.734375 
Q 19.234375 56.78125 16.984375 50.109375 
Q 14.75 43.453125 14.75 36.375 
Q 14.75 27.25 17.40625 20.4375 
Q 20.0625 13.625 25.671875 10.25 
Q 31.296875 6.890625 37.84375 6.890625 
Q 45.796875 6.890625 51.3125 11.46875 
Q 56.84375 16.0625 58.796875 25.09375 
z
" id="ArialMT-67"/>
     <path d="M 6.59375 0 
L 6.59375 71.578125 
L 15.375 71.578125 
L 15.375 45.90625 
Q 21.53125 53.03125 30.90625 53.03125 
Q 36.671875 53.03125 40.921875 50.75 
Q 45.171875 48.484375 47 44.484375 
Q 48.828125 40.484375 48.828125 32.859375 
L 48.828125 0 
L 40.046875 0 
L 40.046875 32.859375 
Q 40.046875 39.453125 37.1875 42.453125 
Q 34.328125 45.453125 29.109375 45.453125 
Q 25.203125 45.453125 21.75 43.421875 
Q 18.3125 41.40625 16.84375 37.9375 
Q 15.375 34.46875 15.375 28.375 
L 15.375 0 
z
" id="ArialMT-104"/>
    </defs>
    <g style="fill:#262626;" transform="translate(218.910743 387.20374)scale(0.1 -0.1)">
     <use xlink:href="#ArialMT-67"/>
     <use x="72.216797" xlink:href="#ArialMT-104"/>
     <use x="127.832031" xlink:href="#ArialMT-105"/>
     <use x="150.048828" xlink:href="#ArialMT-110"/>
     <use x="205.664062" xlink:href="#ArialMT-97"/>
    </g>
   </g>
   <g id="text_8">
    <!-- Iran -->
    <g style="fill:#262626;" transform="translate(270.700198 398.519673)scale(0.1 -0.1)">
     <use xlink:href="#ArialMT-73"/>
     <use x="27.783203" xlink:href="#ArialMT-114"/>
     <use x="61.083984" xlink:href="#ArialMT-97"/>
     <use x="116.699219" xlink:href="#ArialMT-110"/>
    </g>
   </g>
   <g id="text_9">
    <!-- Turkey -->
    <defs>
     <path d="M 25.921875 0 
L 25.921875 63.140625 
L 2.34375 63.140625 
L 2.34375 71.578125 
L 59.078125 71.578125 
L 59.078125 63.140625 
L 35.40625 63.140625 
L 35.40625 0 
z
" id="ArialMT-84"/>
     <path d="M 40.578125 0 
L 40.578125 7.625 
Q 34.515625 -1.171875 24.125 -1.171875 
Q 19.53125 -1.171875 15.546875 0.578125 
Q 11.578125 2.34375 9.640625 5 
Q 7.71875 7.671875 6.9375 11.53125 
Q 6.390625 14.109375 6.390625 19.734375 
L 6.390625 51.859375 
L 15.1875 51.859375 
L 15.1875 23.09375 
Q 15.1875 16.21875 15.71875 13.8125 
Q 16.546875 10.359375 19.234375 8.375 
Q 21.921875 6.390625 25.875 6.390625 
Q 29.828125 6.390625 33.296875 8.421875 
Q 36.765625 10.453125 38.203125 13.9375 
Q 39.65625 17.4375 39.65625 24.078125 
L 39.65625 51.859375 
L 48.4375 51.859375 
L 48.4375 0 
z
" id="ArialMT-117"/>
     <path d="M 6.640625 0 
L 6.640625 71.578125 
L 15.4375 71.578125 
L 15.4375 30.765625 
L 36.234375 51.859375 
L 47.609375 51.859375 
L 27.78125 32.625 
L 49.609375 0 
L 38.765625 0 
L 21.625 26.515625 
L 15.4375 20.5625 
L 15.4375 0 
z
" id="ArialMT-107"/>
    </defs>
    <g style="fill:#262626;" transform="translate(327.204539 399.151771)scale(0.1 -0.1)">
     <use xlink:href="#ArialMT-84"/>
     <use x="61.037109" xlink:href="#ArialMT-117"/>
     <use x="116.652344" xlink:href="#ArialMT-114"/>
     <use x="149.953125" xlink:href="#ArialMT-107"/>
     <use x="199.953125" xlink:href="#ArialMT-101"/>
     <use x="255.568359" xlink:href="#ArialMT-121"/>
    </g>
   </g>
   <g id="text_10">
    <!-- Belgium -->
    <defs>
     <path d="M 7.328125 0 
L 7.328125 71.578125 
L 34.1875 71.578125 
Q 42.390625 71.578125 47.34375 69.40625 
Q 52.296875 67.234375 55.09375 62.71875 
Q 57.90625 58.203125 57.90625 53.265625 
Q 57.90625 48.6875 55.421875 44.625 
Q 52.9375 40.578125 47.90625 38.09375 
Q 54.390625 36.1875 57.875 31.59375 
Q 61.375 27 61.375 20.75 
Q 61.375 15.71875 59.25 11.390625 
Q 57.125 7.078125 54 4.734375 
Q 50.875 2.390625 46.15625 1.1875 
Q 41.453125 0 34.625 0 
z
M 16.796875 41.5 
L 32.28125 41.5 
Q 38.578125 41.5 41.3125 42.328125 
Q 44.921875 43.40625 46.75 45.890625 
Q 48.578125 48.390625 48.578125 52.15625 
Q 48.578125 55.71875 46.875 58.421875 
Q 45.171875 61.140625 41.984375 62.140625 
Q 38.8125 63.140625 31.109375 63.140625 
L 16.796875 63.140625 
z
M 16.796875 8.453125 
L 34.625 8.453125 
Q 39.203125 8.453125 41.0625 8.796875 
Q 44.34375 9.375 46.53125 10.734375 
Q 48.734375 12.109375 50.140625 14.71875 
Q 51.5625 17.328125 51.5625 20.75 
Q 51.5625 24.75 49.515625 27.703125 
Q 47.46875 30.671875 43.828125 31.859375 
Q 40.1875 33.0625 33.34375 33.0625 
L 16.796875 33.0625 
z
" id="ArialMT-66"/>
    </defs>
    <g style="fill:#262626;" transform="translate(353.834261 394.502884)scale(0.1 -0.1)">
     <use xlink:href="#ArialMT-66"/>
     <use x="66.699219" xlink:href="#ArialMT-101"/>
     <use x="122.314453" xlink:href="#ArialMT-108"/>
     <use x="144.53125" xlink:href="#ArialMT-103"/>
     <use x="200.146484" xlink:href="#ArialMT-105"/>
     <use x="222.363281" xlink:href="#ArialMT-117"/>
     <use x="277.978516" xlink:href="#ArialMT-109"/>
    </g>
   </g>
   <g id="text_11">
    <!-- The Rest -->
    <defs>
     <path d="M 7.859375 0 
L 7.859375 71.578125 
L 39.59375 71.578125 
Q 49.171875 71.578125 54.140625 69.640625 
Q 59.125 67.71875 62.109375 62.828125 
Q 65.09375 57.953125 65.09375 52.046875 
Q 65.09375 44.4375 60.15625 39.203125 
Q 55.21875 33.984375 44.921875 32.5625 
Q 48.6875 30.765625 50.640625 29 
Q 54.78125 25.203125 58.5 19.484375 
L 70.953125 0 
L 59.03125 0 
L 49.5625 14.890625 
Q 45.40625 21.34375 42.71875 24.75 
Q 40.046875 28.171875 37.921875 29.53125 
Q 35.796875 30.90625 33.59375 31.453125 
Q 31.984375 31.78125 28.328125 31.78125 
L 17.328125 31.78125 
L 17.328125 0 
z
M 17.328125 39.984375 
L 37.703125 39.984375 
Q 44.1875 39.984375 47.84375 41.328125 
Q 51.515625 42.671875 53.421875 45.625 
Q 55.328125 48.578125 55.328125 52.046875 
Q 55.328125 57.125 51.640625 60.390625 
Q 47.953125 63.671875 39.984375 63.671875 
L 17.328125 63.671875 
z
" id="ArialMT-82"/>
     <path d="M 3.078125 15.484375 
L 11.765625 16.84375 
Q 12.5 11.625 15.84375 8.84375 
Q 19.1875 6.0625 25.203125 6.0625 
Q 31.25 6.0625 34.171875 8.515625 
Q 37.109375 10.984375 37.109375 14.3125 
Q 37.109375 17.28125 34.515625 19 
Q 32.71875 20.171875 25.53125 21.96875 
Q 15.875 24.421875 12.140625 26.203125 
Q 8.40625 27.984375 6.46875 31.125 
Q 4.546875 34.28125 4.546875 38.09375 
Q 4.546875 41.546875 6.125 44.5 
Q 7.71875 47.46875 10.453125 49.421875 
Q 12.5 50.921875 16.03125 51.96875 
Q 19.578125 53.03125 23.640625 53.03125 
Q 29.734375 53.03125 34.34375 51.265625 
Q 38.96875 49.515625 41.15625 46.5 
Q 43.359375 43.5 44.1875 38.484375 
L 35.59375 37.3125 
Q 35.015625 41.3125 32.203125 43.546875 
Q 29.390625 45.796875 24.265625 45.796875 
Q 18.21875 45.796875 15.625 43.796875 
Q 13.03125 41.796875 13.03125 39.109375 
Q 13.03125 37.40625 14.109375 36.03125 
Q 15.1875 34.625 17.484375 33.6875 
Q 18.796875 33.203125 25.25 31.453125 
Q 34.578125 28.953125 38.25 27.359375 
Q 41.9375 25.78125 44.03125 22.75 
Q 46.140625 19.734375 46.140625 15.234375 
Q 46.140625 10.84375 43.578125 6.953125 
Q 41.015625 3.078125 36.171875 0.953125 
Q 31.34375 -1.171875 25.25 -1.171875 
Q 15.140625 -1.171875 9.84375 3.03125 
Q 4.546875 7.234375 3.078125 15.484375 
z
" id="ArialMT-115"/>
    </defs>
    <g style="fill:#262626;" transform="translate(451.020544 329.060258)scale(0.1 -0.1)">
     <use xlink:href="#ArialMT-84"/>
     <use x="61.083984" xlink:href="#ArialMT-104"/>
     <use x="116.699219" xlink:href="#ArialMT-101"/>
     <use x="172.314453" xlink:href="#ArialMT-32"/>
     <use x="200.097656" xlink:href="#ArialMT-82"/>
     <use x="272.314453" xlink:href="#ArialMT-101"/>
     <use x="327.929688" xlink:href="#ArialMT-115"/>
     <use x="377.929688" xlink:href="#ArialMT-116"/>
    </g>
   </g>
   <g id="text_12">
    <!-- locations with most confirmed cases -->
    <defs>
     <path d="M 16.15625 0 
L 0.296875 51.859375 
L 9.375 51.859375 
L 17.625 21.921875 
L 20.703125 10.796875 
Q 20.90625 11.625 23.390625 21.484375 
L 31.640625 51.859375 
L 40.671875 51.859375 
L 48.4375 21.78125 
L 51.03125 11.859375 
L 54 21.875 
L 62.890625 51.859375 
L 71.4375 51.859375 
L 55.21875 0 
L 46.09375 0 
L 37.84375 31.0625 
L 35.84375 39.890625 
L 25.34375 0 
z
" id="ArialMT-119"/>
     <path d="M 8.6875 0 
L 8.6875 45.015625 
L 0.921875 45.015625 
L 0.921875 51.859375 
L 8.6875 51.859375 
L 8.6875 57.375 
Q 8.6875 62.59375 9.625 65.140625 
Q 10.890625 68.5625 14.078125 70.671875 
Q 17.28125 72.796875 23.046875 72.796875 
Q 26.765625 72.796875 31.25 71.921875 
L 29.9375 64.265625 
Q 27.203125 64.75 24.75 64.75 
Q 20.75 64.75 19.09375 63.03125 
Q 17.4375 61.328125 17.4375 56.640625 
L 17.4375 51.859375 
L 27.546875 51.859375 
L 27.546875 45.015625 
L 17.4375 45.015625 
L 17.4375 0 
z
" id="ArialMT-102"/>
    </defs>
    <g style="fill:#262626;" transform="translate(214.581733 18.8)scale(0.12 -0.12)">
     <use xlink:href="#ArialMT-108"/>
     <use x="22.216797" xlink:href="#ArialMT-111"/>
     <use x="77.832031" xlink:href="#ArialMT-99"/>
     <use x="127.832031" xlink:href="#ArialMT-97"/>
     <use x="183.447266" xlink:href="#ArialMT-116"/>
     <use x="211.230469" xlink:href="#ArialMT-105"/>
     <use x="233.447266" xlink:href="#ArialMT-111"/>
     <use x="289.0625" xlink:href="#ArialMT-110"/>
     <use x="344.677734" xlink:href="#ArialMT-115"/>
     <use x="394.677734" xlink:href="#ArialMT-32"/>
     <use x="422.460938" xlink:href="#ArialMT-119"/>
     <use x="494.677734" xlink:href="#ArialMT-105"/>
     <use x="516.894531" xlink:href="#ArialMT-116"/>
     <use x="544.677734" xlink:href="#ArialMT-104"/>
     <use x="600.292969" xlink:href="#ArialMT-32"/>
     <use x="628.076172" xlink:href="#ArialMT-109"/>
     <use x="711.376953" xlink:href="#ArialMT-111"/>
     <use x="766.992188" xlink:href="#ArialMT-115"/>
     <use x="816.992188" xlink:href="#ArialMT-116"/>
     <use x="844.775391" xlink:href="#ArialMT-32"/>
     <use x="872.558594" xlink:href="#ArialMT-99"/>
     <use x="922.558594" xlink:href="#ArialMT-111"/>
     <use x="978.173828" xlink:href="#ArialMT-110"/>
     <use x="1033.789062" xlink:href="#ArialMT-102"/>
     <use x="1061.572266" xlink:href="#ArialMT-105"/>
     <use x="1083.789062" xlink:href="#ArialMT-114"/>
     <use x="1117.089844" xlink:href="#ArialMT-109"/>
     <use x="1200.390625" xlink:href="#ArialMT-101"/>
     <use x="1256.005859" xlink:href="#ArialMT-100"/>
     <use x="1311.621094" xlink:href="#ArialMT-32"/>
     <use x="1339.404297" xlink:href="#ArialMT-99"/>
     <use x="1389.404297" xlink:href="#ArialMT-97"/>
     <use x="1445.019531" xlink:href="#ArialMT-115"/>
     <use x="1495.019531" xlink:href="#ArialMT-101"/>
     <use x="1550.634766" xlink:href="#ArialMT-115"/>
    </g>
   </g>
  </g>
  <g id="axes_2">
   <g id="matplotlib.axis_3"/>
   <g id="matplotlib.axis_4"/>
   <g id="patch_13">
    <path d="M 999.945455 223 
C 999.945455 188.232955 988.510533 154.412594 967.412398 126.778989 
C 946.314264 99.145383 916.701893 79.203424 883.163378 70.042886 
L 841.385455 223 
L 999.945455 223 
z
" style="fill:#1f77b4;stroke:#ffffff;stroke-linejoin:miter;"/>
   </g>
   <g id="patch_14">
    <path d="M 883.163378 70.042886 
C 855.890522 62.593718 827.115267 62.572652 799.831533 69.98188 
C 772.547799 77.391108 747.735827 91.964433 727.977179 112.185576 
L 841.385455 223 
L 883.163378 70.042886 
z
" style="fill:#ff7f0e;stroke:#ffffff;stroke-linejoin:miter;"/>
   </g>
   <g id="patch_15">
    <path d="M 727.977179 112.185576 
C 711.068568 129.489969 698.34271 150.436992 690.777175 173.417545 
C 683.21164 196.398098 681.00524 220.808281 684.327466 244.772963 
L 841.385455 223 
L 727.977179 112.185576 
z
" style="fill:#2ca02c;stroke:#ffffff;stroke-linejoin:miter;"/>
   </g>
   <g id="patch_16">
    <path d="M 684.327466 244.772963 
C 687.222067 265.652993 694.251652 285.747687 705.004071 303.878872 
C 715.75649 322.010056 730.017411 337.816318 746.950703 350.37092 
L 841.385455 223 
L 684.327466 244.772963 
z
" style="fill:#d62728;stroke:#ffffff;stroke-linejoin:miter;"/>
   </g>
   <g id="patch_17">
    <path d="M 746.950703 350.37092 
C 759.975295 360.027552 774.404356 367.629515 789.73386 372.911262 
C 805.063364 378.193008 821.112715 381.092315 837.321287 381.507906 
L 841.385455 223 
L 746.950703 350.37092 
z
" style="fill:#9467bd;stroke:#ffffff;stroke-linejoin:miter;"/>
   </g>
   <g id="patch_18">
    <path d="M 837.321287 381.507906 
C 843.569053 381.668099 849.820828 381.458759 856.043882 380.880981 
C 862.266936 380.303203 868.45039 379.357997 874.561871 378.050311 
L 841.385455 223 
L 837.321287 381.507906 
z
" style="fill:#8c564b;stroke:#ffffff;stroke-linejoin:miter;"/>
   </g>
   <g id="patch_19">
    <path d="M 874.561871 378.050311 
C 879.986568 376.889578 885.346614 375.444956 890.619892 373.722406 
C 895.89317 371.999856 901.072418 370.001751 906.136263 367.736334 
L 841.385455 223 
L 874.561871 378.050311 
z
" style="fill:#e377c2;stroke:#ffffff;stroke-linejoin:miter;"/>
   </g>
   <g id="patch_20">
    <path d="M 906.136263 367.736334 
C 910.210642 365.913576 914.206237 363.919588 918.112372 361.759698 
C 922.018507 359.599808 925.831697 357.275942 929.541754 354.794311 
L 841.385455 223 
L 906.136263 367.736334 
z
" style="fill:#7f7f7f;stroke:#ffffff;stroke-linejoin:miter;"/>
   </g>
   <g id="patch_21">
    <path d="M 929.541754 354.794311 
C 933.195228 352.350528 936.745506 349.755884 940.183388 347.017103 
C 943.62127 344.278323 946.943783 341.397774 950.142317 338.382921 
L 841.385455 223 
L 929.541754 354.794311 
z
" style="fill:#bcbd22;stroke:#ffffff;stroke-linejoin:miter;"/>
   </g>
   <g id="patch_22">
    <path d="M 950.142317 338.382921 
C 953.011594 335.678417 955.778993 332.867825 958.43874 329.95701 
C 961.098487 327.046195 963.648732 324.03718 966.084155 320.936243 
L 841.385455 223 
L 950.142317 338.382921 
z
" style="fill:#17becf;stroke:#ffffff;stroke-linejoin:miter;"/>
   </g>
   <g id="patch_23">
    <path d="M 966.084155 320.936243 
C 976.976256 307.067722 985.478835 291.478793 991.241215 274.812398 
C 997.003595 258.146004 999.945453 240.634464 999.945455 223.000017 
L 841.385455 223 
L 966.084155 320.936243 
z
" style="fill:#1f77b4;stroke:#ffffff;stroke-linejoin:miter;"/>
   </g>
   <g id="text_13">
    <!-- US -->
    <g style="fill:#262626;" transform="translate(980.015093 119.742044)scale(0.1 -0.1)">
     <use xlink:href="#ArialMT-85"/>
     <use x="72.216797" xlink:href="#ArialMT-83"/>
    </g>
   </g>
   <g id="text_14">
    <!-- Italy -->
    <g style="fill:#262626;" transform="translate(777.337078 57.20663)scale(0.1 -0.1)">
     <use xlink:href="#ArialMT-73"/>
     <use x="27.783203" xlink:href="#ArialMT-116"/>
     <use x="55.566406" xlink:href="#ArialMT-97"/>
     <use x="111.181641" xlink:href="#ArialMT-108"/>
     <use x="133.398438" xlink:href="#ArialMT-121"/>
    </g>
   </g>
   <g id="text_15">
    <!-- Spain -->
    <g style="fill:#262626;" transform="translate(650.141347 171.105394)scale(0.1 -0.1)">
     <use xlink:href="#ArialMT-83"/>
     <use x="66.699219" xlink:href="#ArialMT-112"/>
     <use x="122.314453" xlink:href="#ArialMT-97"/>
     <use x="177.929688" xlink:href="#ArialMT-105"/>
     <use x="200.146484" xlink:href="#ArialMT-110"/>
    </g>
   </g>
   <g id="text_16">
    <!-- France -->
    <g style="fill:#262626;" transform="translate(660.24562 314.551915)scale(0.1 -0.1)">
     <use xlink:href="#ArialMT-70"/>
     <use x="61.083984" xlink:href="#ArialMT-114"/>
     <use x="94.384766" xlink:href="#ArialMT-97"/>
     <use x="150" xlink:href="#ArialMT-110"/>
     <use x="205.615234" xlink:href="#ArialMT-99"/>
     <use x="255.615234" xlink:href="#ArialMT-101"/>
    </g>
   </g>
   <g id="text_17">
    <!-- United Kingdom -->
    <g style="fill:#262626;" transform="translate(713.420263 390.42895)scale(0.1 -0.1)">
     <use xlink:href="#ArialMT-85"/>
     <use x="72.216797" xlink:href="#ArialMT-110"/>
     <use x="127.832031" xlink:href="#ArialMT-105"/>
     <use x="150.048828" xlink:href="#ArialMT-116"/>
     <use x="177.832031" xlink:href="#ArialMT-101"/>
     <use x="233.447266" xlink:href="#ArialMT-100"/>
     <use x="289.0625" xlink:href="#ArialMT-32"/>
     <use x="316.845703" xlink:href="#ArialMT-75"/>
     <use x="383.544922" xlink:href="#ArialMT-105"/>
     <use x="405.761719" xlink:href="#ArialMT-110"/>
     <use x="461.376953" xlink:href="#ArialMT-103"/>
     <use x="516.992188" xlink:href="#ArialMT-100"/>
     <use x="572.607422" xlink:href="#ArialMT-111"/>
     <use x="628.222656" xlink:href="#ArialMT-109"/>
    </g>
   </g>
   <g id="text_18">
    <!-- Iran -->
    <g style="fill:#262626;" transform="translate(857.509725 399.254235)scale(0.1 -0.1)">
     <use xlink:href="#ArialMT-73"/>
     <use x="27.783203" xlink:href="#ArialMT-114"/>
     <use x="61.083984" xlink:href="#ArialMT-97"/>
     <use x="116.699219" xlink:href="#ArialMT-110"/>
    </g>
   </g>
   <g id="text_19">
    <!-- Belgium -->
    <g style="fill:#262626;" transform="translate(895.543336 391.321209)scale(0.1 -0.1)">
     <use xlink:href="#ArialMT-66"/>
     <use x="66.699219" xlink:href="#ArialMT-101"/>
     <use x="122.314453" xlink:href="#ArialMT-108"/>
     <use x="144.53125" xlink:href="#ArialMT-103"/>
     <use x="200.146484" xlink:href="#ArialMT-105"/>
     <use x="222.363281" xlink:href="#ArialMT-117"/>
     <use x="277.978516" xlink:href="#ArialMT-109"/>
    </g>
   </g>
   <g id="text_20">
    <!-- China -->
    <g style="fill:#262626;" transform="translate(925.785064 378.220824)scale(0.1 -0.1)">
     <use xlink:href="#ArialMT-67"/>
     <use x="72.216797" xlink:href="#ArialMT-104"/>
     <use x="127.832031" xlink:href="#ArialMT-105"/>
     <use x="150.048828" xlink:href="#ArialMT-110"/>
     <use x="205.664062" xlink:href="#ArialMT-97"/>
    </g>
   </g>
   <g id="text_21">
    <!-- Germany -->
    <g style="fill:#262626;" transform="translate(950.063182 362.006314)scale(0.1 -0.1)">
     <use xlink:href="#ArialMT-71"/>
     <use x="77.783203" xlink:href="#ArialMT-101"/>
     <use x="133.398438" xlink:href="#ArialMT-114"/>
     <use x="166.699219" xlink:href="#ArialMT-109"/>
     <use x="250" xlink:href="#ArialMT-97"/>
     <use x="305.615234" xlink:href="#ArialMT-110"/>
     <use x="361.230469" xlink:href="#ArialMT-121"/>
    </g>
   </g>
   <g id="text_22">
    <!-- Netherlands -->
    <defs>
     <path d="M 7.625 0 
L 7.625 71.578125 
L 17.328125 71.578125 
L 54.9375 15.375 
L 54.9375 71.578125 
L 64.015625 71.578125 
L 64.015625 0 
L 54.296875 0 
L 16.703125 56.25 
L 16.703125 0 
z
" id="ArialMT-78"/>
    </defs>
    <g style="fill:#262626;" transform="translate(970.144068 343.237867)scale(0.1 -0.1)">
     <use xlink:href="#ArialMT-78"/>
     <use x="72.216797" xlink:href="#ArialMT-101"/>
     <use x="127.832031" xlink:href="#ArialMT-116"/>
     <use x="155.615234" xlink:href="#ArialMT-104"/>
     <use x="211.230469" xlink:href="#ArialMT-101"/>
     <use x="266.845703" xlink:href="#ArialMT-114"/>
     <use x="300.146484" xlink:href="#ArialMT-108"/>
     <use x="322.363281" xlink:href="#ArialMT-97"/>
     <use x="377.978516" xlink:href="#ArialMT-110"/>
     <use x="433.59375" xlink:href="#ArialMT-100"/>
     <use x="489.208984" xlink:href="#ArialMT-115"/>
    </g>
   </g>
   <g id="text_23">
    <!-- The Rest -->
    <g style="fill:#262626;" transform="translate(1006.226791 282.578794)scale(0.1 -0.1)">
     <use xlink:href="#ArialMT-84"/>
     <use x="61.083984" xlink:href="#ArialMT-104"/>
     <use x="116.699219" xlink:href="#ArialMT-101"/>
     <use x="172.314453" xlink:href="#ArialMT-32"/>
     <use x="200.097656" xlink:href="#ArialMT-82"/>
     <use x="272.314453" xlink:href="#ArialMT-101"/>
     <use x="327.929688" xlink:href="#ArialMT-115"/>
     <use x="377.929688" xlink:href="#ArialMT-116"/>
    </g>
   </g>
   <g id="text_24">
    <!-- locations with most deaths -->
    <g style="fill:#262626;" transform="translate(771.021392 18.8)scale(0.12 -0.12)">
     <use xlink:href="#ArialMT-108"/>
     <use x="22.216797" xlink:href="#ArialMT-111"/>
     <use x="77.832031" xlink:href="#ArialMT-99"/>
     <use x="127.832031" xlink:href="#ArialMT-97"/>
     <use x="183.447266" xlink:href="#ArialMT-116"/>
     <use x="211.230469" xlink:href="#ArialMT-105"/>
     <use x="233.447266" xlink:href="#ArialMT-111"/>
     <use x="289.0625" xlink:href="#ArialMT-110"/>
     <use x="344.677734" xlink:href="#ArialMT-115"/>
     <use x="394.677734" xlink:href="#ArialMT-32"/>
     <use x="422.460938" xlink:href="#ArialMT-119"/>
     <use x="494.677734" xlink:href="#ArialMT-105"/>
     <use x="516.894531" xlink:href="#ArialMT-116"/>
     <use x="544.677734" xlink:href="#ArialMT-104"/>
     <use x="600.292969" xlink:href="#ArialMT-32"/>
     <use x="628.076172" xlink:href="#ArialMT-109"/>
     <use x="711.376953" xlink:href="#ArialMT-111"/>
     <use x="766.992188" xlink:href="#ArialMT-115"/>
     <use x="816.992188" xlink:href="#ArialMT-116"/>
     <use x="844.775391" xlink:href="#ArialMT-32"/>
     <use x="872.558594" xlink:href="#ArialMT-100"/>
     <use x="928.173828" xlink:href="#ArialMT-101"/>
     <use x="983.789062" xlink:href="#ArialMT-97"/>
     <use x="1039.404297" xlink:href="#ArialMT-116"/>
     <use x="1067.1875" xlink:href="#ArialMT-104"/>
     <use x="1122.802734" xlink:href="#ArialMT-115"/>
    </g>
   </g>
  </g>
 </g>
</svg>
