<?xml version="1.0" encoding="utf-8" standalone="no"?>
<!DOCTYPE svg PUBLIC "-//W3C//DTD SVG 1.1//EN"
  "http://www.w3.org/Graphics/SVG/1.1/DTD/svg11.dtd">
<!-- Created with matplotlib (https://matplotlib.org/) -->
<svg height="432pt" version="1.1" viewBox="0 0 1152 432" width="1152pt" xmlns="http://www.w3.org/2000/svg" xmlns:xlink="http://www.w3.org/1999/xlink">
 <defs>
  <style type="text/css">
*{stroke-linecap:butt;stroke-linejoin:round;}
  </style>
 </defs>
 <g id="figure_1">
  <g id="patch_1">
   <path d="M 0 432 
L 1152 432 
L 1152 0 
L 0 0 
z
" style="fill:#ffffff;"/>
  </g>
  <g id="axes_1">
   <g id="matplotlib.axis_1"/>
   <g id="matplotlib.axis_2"/>
   <g id="patch_2">
    <path d="M 465.39794 224.5 
C 465.39794 198.678031 459.042061 173.248667 446.893012 150.463262 
C 434.743963 127.677856 417.171179 108.229282 395.730444 93.839392 
C 374.289708 79.449502 349.633003 70.555872 323.943276 67.945888 
C 298.253549 65.335904 272.311989 69.088932 248.415296 78.872702 
L 308.03794 224.5 
L 465.39794 224.5 
z
" style="fill:#36464c;stroke:#ffffff;stroke-linejoin:miter;"/>
   </g>
   <g id="patch_3">
    <path d="M 248.415296 78.872702 
C 234.890313 84.410093 222.202451 91.804762 210.71796 100.843253 
C 199.23347 109.881744 189.063929 120.476243 180.502894 132.320927 
L 308.03794 224.5 
L 248.415296 78.872702 
z
" style="fill:#385965;stroke:#ffffff;stroke-linejoin:miter;"/>
   </g>
   <g id="patch_4">
    <path d="M 180.502894 132.320927 
C 172.442126 143.473462 165.878949 155.635307 160.981483 168.494928 
C 156.084017 181.35455 152.89444 194.801198 151.494453 208.49043 
L 308.03794 224.5 
L 180.502894 132.320927 
z
" style="fill:#3b6d80;stroke:#ffffff;stroke-linejoin:miter;"/>
   </g>
   <g id="patch_5">
    <path d="M 151.494453 208.49043 
C 150.363214 219.551825 150.407554 230.702034 151.626731 241.754082 
C 152.845909 252.806131 155.233069 263.697898 158.748184 274.246743 
L 308.03794 224.5 
L 151.494453 208.49043 
z
" style="fill:#3d8099;stroke:#ffffff;stroke-linejoin:miter;"/>
   </g>
   <g id="patch_6">
    <path d="M 158.748184 274.246743 
C 162.263246 284.795427 166.88647 294.941909 172.540335 304.516051 
C 178.194199 314.090194 184.846925 323.038184 192.38696 331.209982 
L 308.03794 224.5 
L 158.748184 274.246743 
z
" style="fill:#4093b2;stroke:#ffffff;stroke-linejoin:miter;"/>
   </g>
   <g id="patch_7">
    <path d="M 192.38696 331.209982 
C 197.828654 337.107624 203.713512 342.580386 209.990017 347.580357 
C 216.266521 352.580328 222.916302 357.092875 229.881147 361.078495 
L 308.03794 224.5 
L 192.38696 331.209982 
z
" style="fill:#43a6cc;stroke:#ffffff;stroke-linejoin:miter;"/>
   </g>
   <g id="patch_8">
    <path d="M 229.881147 361.078495 
C 235.997957 364.578828 242.343012 367.664289 248.873445 370.314033 
C 255.403878 372.963776 262.104949 375.171821 268.931382 376.923249 
L 308.03794 224.5 
L 229.881147 361.078495 
z
" style="fill:#56b0c9;stroke:#ffffff;stroke-linejoin:miter;"/>
   </g>
   <g id="patch_9">
    <path d="M 268.931382 376.923249 
C 275.066667 378.497351 281.291399 379.699586 287.571595 380.52339 
C 293.851791 381.347194 300.176001 381.791065 306.509699 381.852579 
L 308.03794 224.5 
L 268.931382 376.923249 
z
" style="fill:#68bac6;stroke:#ffffff;stroke-linejoin:miter;"/>
   </g>
   <g id="patch_10">
    <path d="M 306.509699 381.852579 
C 312.016903 381.906066 317.523119 381.670395 323.005612 381.14654 
C 328.488105 380.622684 333.939318 379.811366 339.336741 378.715935 
L 308.03794 224.5 
L 306.509699 381.852579 
z
" style="fill:#7cc4c3;stroke:#ffffff;stroke-linejoin:miter;"/>
   </g>
   <g id="patch_11">
    <path d="M 339.336741 378.715935 
C 341.915917 378.19248 344.481555 377.604404 347.031235 376.952263 
C 349.580914 376.300122 352.113832 375.584121 354.627598 374.804935 
L 308.03794 224.5 
L 339.336741 378.715935 
z
" style="fill:#8fcec0;stroke:#ffffff;stroke-linejoin:miter;"/>
   </g>
   <g id="patch_12">
    <path d="M 360.961389 379.472752 
C 393.04637 369.527448 421.11914 349.56514 441.04754 322.524173 
C 460.97594 295.483205 471.731735 262.758794 471.731731 229.167797 
L 314.371731 229.167818 
L 360.961389 379.472752 
z
" style="fill:#a1d8bd;stroke:#ffffff;stroke-linejoin:miter;"/>
   </g>
   <g id="patch_13">
    <path clip-path="url(#p0bdf4ebe5c)" d="M 308.03794 334.652 
C 337.250592 334.652 365.270702 323.04569 385.927166 302.389226 
C 406.583631 281.732762 418.18994 253.712652 418.18994 224.5 
C 418.18994 195.287348 406.583631 167.267238 385.927166 146.610774 
C 365.270702 125.95431 337.250592 114.348 308.03794 114.348 
C 278.825288 114.348 250.805178 125.95431 230.148714 146.610774 
C 209.49225 167.267238 197.88594 195.287348 197.88594 224.5 
C 197.88594 253.712652 209.49225 281.732762 230.148714 302.389226 
C 250.805178 323.04569 278.825288 334.652 308.03794 334.652 
z
" style="fill:#ffffff;stroke:#ffffff;stroke-linejoin:miter;"/>
   </g>
   <g id="patch_14">
    <path clip-path="url(#p0bdf4ebe5c)" d="M 308.03794 334.652 
C 337.250592 334.652 365.270702 323.04569 385.927166 302.389226 
C 406.583631 281.732762 418.18994 253.712652 418.18994 224.5 
C 418.18994 195.287348 406.583631 167.267238 385.927166 146.610774 
C 365.270702 125.95431 337.250592 114.348 308.03794 114.348 
C 278.825288 114.348 250.805178 125.95431 230.148714 146.610774 
C 209.49225 167.267238 197.88594 195.287348 197.88594 224.5 
C 197.88594 253.712652 209.49225 281.732762 230.148714 302.389226 
C 250.805178 323.04569 278.825288 334.652 308.03794 334.652 
z
" style="fill:#ffffff;stroke:#ffffff;stroke-linejoin:miter;"/>
   </g>
   <g id="text_1">
    <!-- US -->
    <defs>
     <path d="M 54.6875 71.578125 
L 64.15625 71.578125 
L 64.15625 30.21875 
Q 64.15625 19.4375 61.71875 13.078125 
Q 59.28125 6.734375 52.90625 2.75 
Q 46.53125 -1.21875 36.1875 -1.21875 
Q 26.125 -1.21875 19.71875 2.25 
Q 13.328125 5.71875 10.59375 12.28125 
Q 7.859375 18.84375 7.859375 30.21875 
L 7.859375 71.578125 
L 17.328125 71.578125 
L 17.328125 30.28125 
Q 17.328125 20.953125 19.0625 16.53125 
Q 20.796875 12.109375 25.015625 9.71875 
Q 29.25 7.328125 35.359375 7.328125 
Q 45.796875 7.328125 50.234375 12.0625 
Q 54.6875 16.796875 54.6875 30.28125 
z
" id="ArialMT-85"/>
     <path d="M 4.5 23 
L 13.421875 23.78125 
Q 14.0625 18.40625 16.375 14.96875 
Q 18.703125 11.53125 23.578125 9.40625 
Q 28.46875 7.28125 34.578125 7.28125 
Q 39.984375 7.28125 44.140625 8.890625 
Q 48.296875 10.5 50.3125 13.296875 
Q 52.34375 16.109375 52.34375 19.4375 
Q 52.34375 22.796875 50.390625 25.3125 
Q 48.4375 27.828125 43.953125 29.546875 
Q 41.0625 30.671875 31.203125 33.03125 
Q 21.34375 35.40625 17.390625 37.5 
Q 12.25 40.1875 9.734375 44.15625 
Q 7.234375 48.140625 7.234375 53.078125 
Q 7.234375 58.5 10.296875 63.203125 
Q 13.375 67.921875 19.28125 70.359375 
Q 25.203125 72.796875 32.421875 72.796875 
Q 40.375 72.796875 46.453125 70.234375 
Q 52.546875 67.671875 55.8125 62.6875 
Q 59.078125 57.71875 59.328125 51.421875 
L 50.25 50.734375 
Q 49.515625 57.515625 45.28125 60.984375 
Q 41.0625 64.453125 32.8125 64.453125 
Q 24.21875 64.453125 20.28125 61.296875 
Q 16.359375 58.15625 16.359375 53.71875 
Q 16.359375 49.859375 19.140625 47.359375 
Q 21.875 44.875 33.421875 42.265625 
Q 44.96875 39.65625 49.265625 37.703125 
Q 55.515625 34.8125 58.484375 30.390625 
Q 61.46875 25.984375 61.46875 20.21875 
Q 61.46875 14.5 58.203125 9.4375 
Q 54.9375 4.390625 48.796875 1.578125 
Q 42.671875 -1.21875 35.015625 -1.21875 
Q 25.296875 -1.21875 18.71875 1.609375 
Q 12.15625 4.4375 8.421875 10.125 
Q 4.6875 15.828125 4.5 23 
z
" id="ArialMT-83"/>
    </defs>
    <g style="fill:#262626;" transform="translate(404.499694 83.875519)scale(0.12 -0.12)">
     <use xlink:href="#ArialMT-85"/>
     <use x="72.216797" xlink:href="#ArialMT-83"/>
    </g>
   </g>
   <g id="text_2">
    <!-- 31.2% -->
    <defs>
     <path d="M 4.203125 18.890625 
L 12.984375 20.0625 
Q 14.5 12.59375 18.140625 9.296875 
Q 21.78125 6 27 6 
Q 33.203125 6 37.46875 10.296875 
Q 41.75 14.59375 41.75 20.953125 
Q 41.75 27 37.796875 30.921875 
Q 33.84375 34.859375 27.734375 34.859375 
Q 25.25 34.859375 21.53125 33.890625 
L 22.515625 41.609375 
Q 23.390625 41.5 23.921875 41.5 
Q 29.546875 41.5 34.03125 44.421875 
Q 38.53125 47.359375 38.53125 53.46875 
Q 38.53125 58.296875 35.25 61.46875 
Q 31.984375 64.65625 26.8125 64.65625 
Q 21.6875 64.65625 18.265625 61.421875 
Q 14.84375 58.203125 13.875 51.765625 
L 5.078125 53.328125 
Q 6.6875 62.15625 12.390625 67.015625 
Q 18.109375 71.875 26.609375 71.875 
Q 32.46875 71.875 37.390625 69.359375 
Q 42.328125 66.84375 44.9375 62.5 
Q 47.5625 58.15625 47.5625 53.265625 
Q 47.5625 48.640625 45.0625 44.828125 
Q 42.578125 41.015625 37.703125 38.765625 
Q 44.046875 37.3125 47.5625 32.6875 
Q 51.078125 28.078125 51.078125 21.140625 
Q 51.078125 11.765625 44.234375 5.25 
Q 37.40625 -1.265625 26.953125 -1.265625 
Q 17.53125 -1.265625 11.296875 4.34375 
Q 5.078125 9.96875 4.203125 18.890625 
z
" id="ArialMT-51"/>
     <path d="M 37.25 0 
L 28.46875 0 
L 28.46875 56 
Q 25.296875 52.984375 20.140625 49.953125 
Q 14.984375 46.921875 10.890625 45.40625 
L 10.890625 53.90625 
Q 18.265625 57.375 23.78125 62.296875 
Q 29.296875 67.234375 31.59375 71.875 
L 37.25 71.875 
z
" id="ArialMT-49"/>
     <path d="M 9.078125 0 
L 9.078125 10.015625 
L 19.09375 10.015625 
L 19.09375 0 
z
" id="ArialMT-46"/>
     <path d="M 50.34375 8.453125 
L 50.34375 0 
L 3.03125 0 
Q 2.9375 3.171875 4.046875 6.109375 
Q 5.859375 10.9375 9.828125 15.625 
Q 13.8125 20.3125 21.34375 26.46875 
Q 33.015625 36.03125 37.109375 41.625 
Q 41.21875 47.21875 41.21875 52.203125 
Q 41.21875 57.421875 37.46875 61 
Q 33.734375 64.59375 27.734375 64.59375 
Q 21.390625 64.59375 17.578125 60.78125 
Q 13.765625 56.984375 13.71875 50.25 
L 4.6875 51.171875 
Q 5.609375 61.28125 11.65625 66.578125 
Q 17.71875 71.875 27.9375 71.875 
Q 38.234375 71.875 44.234375 66.15625 
Q 50.25 60.453125 50.25 52 
Q 50.25 47.703125 48.484375 43.546875 
Q 46.734375 39.40625 42.65625 34.8125 
Q 38.578125 30.21875 29.109375 22.21875 
Q 21.1875 15.578125 18.9375 13.203125 
Q 16.703125 10.84375 15.234375 8.453125 
z
" id="ArialMT-50"/>
     <path d="M 5.8125 54.390625 
Q 5.8125 62.0625 9.671875 67.421875 
Q 13.53125 72.796875 20.84375 72.796875 
Q 27.59375 72.796875 32 67.984375 
Q 36.421875 63.1875 36.421875 53.859375 
Q 36.421875 44.78125 31.953125 39.875 
Q 27.484375 34.96875 20.953125 34.96875 
Q 14.453125 34.96875 10.125 39.796875 
Q 5.8125 44.625 5.8125 54.390625 
z
M 21.09375 66.75 
Q 17.828125 66.75 15.65625 63.90625 
Q 13.484375 61.078125 13.484375 53.515625 
Q 13.484375 46.625 15.671875 43.8125 
Q 17.875 41.015625 21.09375 41.015625 
Q 24.421875 41.015625 26.59375 43.84375 
Q 28.765625 46.6875 28.765625 54.203125 
Q 28.765625 61.140625 26.5625 63.9375 
Q 24.359375 66.75 21.09375 66.75 
z
M 21.140625 -2.640625 
L 60.296875 72.796875 
L 67.4375 72.796875 
L 28.421875 -2.640625 
z
M 52.09375 16.796875 
Q 52.09375 24.515625 55.953125 29.859375 
Q 59.8125 35.203125 67.1875 35.203125 
Q 73.921875 35.203125 78.34375 30.390625 
Q 82.765625 25.59375 82.765625 16.265625 
Q 82.765625 7.171875 78.296875 2.265625 
Q 73.828125 -2.640625 67.234375 -2.640625 
Q 60.75 -2.640625 56.421875 2.21875 
Q 52.09375 7.078125 52.09375 16.796875 
z
M 67.4375 29.15625 
Q 64.109375 29.15625 61.9375 26.3125 
Q 59.765625 23.484375 59.765625 15.921875 
Q 59.765625 9.078125 61.953125 6.25 
Q 64.15625 3.421875 67.390625 3.421875 
Q 70.75 3.421875 72.921875 6.25 
Q 75.09375 9.078125 75.09375 16.609375 
Q 75.09375 23.53125 72.890625 26.34375 
Q 70.703125 29.15625 67.4375 29.15625 
z
" id="ArialMT-37"/>
    </defs>
    <g style="fill:#ffffff;" transform="translate(365.564693 116.540671)scale(0.12 -0.12)">
     <use xlink:href="#ArialMT-51"/>
     <use x="55.615234" xlink:href="#ArialMT-49"/>
     <use x="111.230469" xlink:href="#ArialMT-46"/>
     <use x="139.013672" xlink:href="#ArialMT-50"/>
     <use x="194.628906" xlink:href="#ArialMT-37"/>
    </g>
   </g>
   <g id="text_3">
    <!-- Spain -->
    <defs>
     <path d="M 6.59375 -19.875 
L 6.59375 51.859375 
L 14.59375 51.859375 
L 14.59375 45.125 
Q 17.4375 49.078125 21 51.046875 
Q 24.5625 53.03125 29.640625 53.03125 
Q 36.28125 53.03125 41.359375 49.609375 
Q 46.4375 46.1875 49.015625 39.953125 
Q 51.609375 33.734375 51.609375 26.3125 
Q 51.609375 18.359375 48.75 11.984375 
Q 45.90625 5.609375 40.453125 2.21875 
Q 35.015625 -1.171875 29 -1.171875 
Q 24.609375 -1.171875 21.109375 0.6875 
Q 17.625 2.546875 15.375 5.375 
L 15.375 -19.875 
z
M 14.546875 25.640625 
Q 14.546875 15.625 18.59375 10.84375 
Q 22.65625 6.0625 28.421875 6.0625 
Q 34.28125 6.0625 38.453125 11.015625 
Q 42.625 15.96875 42.625 26.375 
Q 42.625 36.28125 38.546875 41.203125 
Q 34.46875 46.140625 28.8125 46.140625 
Q 23.1875 46.140625 18.859375 40.890625 
Q 14.546875 35.640625 14.546875 25.640625 
z
" id="ArialMT-112"/>
     <path d="M 40.4375 6.390625 
Q 35.546875 2.25 31.03125 0.53125 
Q 26.515625 -1.171875 21.34375 -1.171875 
Q 12.796875 -1.171875 8.203125 3 
Q 3.609375 7.171875 3.609375 13.671875 
Q 3.609375 17.484375 5.34375 20.625 
Q 7.078125 23.78125 9.890625 25.6875 
Q 12.703125 27.59375 16.21875 28.5625 
Q 18.796875 29.25 24.03125 29.890625 
Q 34.671875 31.15625 39.703125 32.90625 
Q 39.75 34.71875 39.75 35.203125 
Q 39.75 40.578125 37.25 42.78125 
Q 33.890625 45.75 27.25 45.75 
Q 21.046875 45.75 18.09375 43.578125 
Q 15.140625 41.40625 13.71875 35.890625 
L 5.125 37.0625 
Q 6.296875 42.578125 8.984375 45.96875 
Q 11.671875 49.359375 16.75 51.1875 
Q 21.828125 53.03125 28.515625 53.03125 
Q 35.15625 53.03125 39.296875 51.46875 
Q 43.453125 49.90625 45.40625 47.53125 
Q 47.359375 45.171875 48.140625 41.546875 
Q 48.578125 39.3125 48.578125 33.453125 
L 48.578125 21.734375 
Q 48.578125 9.46875 49.140625 6.21875 
Q 49.703125 2.984375 51.375 0 
L 42.1875 0 
Q 40.828125 2.734375 40.4375 6.390625 
z
M 39.703125 26.03125 
Q 34.90625 24.078125 25.34375 22.703125 
Q 19.921875 21.921875 17.671875 20.9375 
Q 15.4375 19.96875 14.203125 18.09375 
Q 12.984375 16.21875 12.984375 13.921875 
Q 12.984375 10.40625 15.640625 8.0625 
Q 18.3125 5.71875 23.4375 5.71875 
Q 28.515625 5.71875 32.46875 7.9375 
Q 36.421875 10.15625 38.28125 14.015625 
Q 39.703125 17 39.703125 22.796875 
z
" id="ArialMT-97"/>
     <path d="M 6.640625 61.46875 
L 6.640625 71.578125 
L 15.4375 71.578125 
L 15.4375 61.46875 
z
M 6.640625 0 
L 6.640625 51.859375 
L 15.4375 51.859375 
L 15.4375 0 
z
" id="ArialMT-105"/>
     <path d="M 6.59375 0 
L 6.59375 51.859375 
L 14.5 51.859375 
L 14.5 44.484375 
Q 20.21875 53.03125 31 53.03125 
Q 35.6875 53.03125 39.625 51.34375 
Q 43.5625 49.65625 45.515625 46.921875 
Q 47.46875 44.1875 48.25 40.4375 
Q 48.734375 37.984375 48.734375 31.890625 
L 48.734375 0 
L 39.9375 0 
L 39.9375 31.546875 
Q 39.9375 36.921875 38.90625 39.578125 
Q 37.890625 42.234375 35.28125 43.8125 
Q 32.671875 45.40625 29.15625 45.40625 
Q 23.53125 45.40625 19.453125 41.84375 
Q 15.375 38.28125 15.375 28.328125 
L 15.375 0 
z
" id="ArialMT-110"/>
    </defs>
    <g style="fill:#262626;" transform="translate(170.295962 91.652891)scale(0.12 -0.12)">
     <use xlink:href="#ArialMT-83"/>
     <use x="66.699219" xlink:href="#ArialMT-112"/>
     <use x="122.314453" xlink:href="#ArialMT-97"/>
     <use x="177.929688" xlink:href="#ArialMT-105"/>
     <use x="200.146484" xlink:href="#ArialMT-110"/>
    </g>
   </g>
   <g id="text_4">
    <!-- 8.9% -->
    <defs>
     <path d="M 17.671875 38.8125 
Q 12.203125 40.828125 9.5625 44.53125 
Q 6.9375 48.25 6.9375 53.421875 
Q 6.9375 61.234375 12.546875 66.546875 
Q 18.171875 71.875 27.484375 71.875 
Q 36.859375 71.875 42.578125 66.421875 
Q 48.296875 60.984375 48.296875 53.171875 
Q 48.296875 48.1875 45.671875 44.5 
Q 43.0625 40.828125 37.75 38.8125 
Q 44.34375 36.671875 47.78125 31.875 
Q 51.21875 27.09375 51.21875 20.453125 
Q 51.21875 11.28125 44.71875 5.03125 
Q 38.234375 -1.21875 27.640625 -1.21875 
Q 17.046875 -1.21875 10.546875 5.046875 
Q 4.046875 11.328125 4.046875 20.703125 
Q 4.046875 27.6875 7.59375 32.390625 
Q 11.140625 37.109375 17.671875 38.8125 
z
M 15.921875 53.71875 
Q 15.921875 48.640625 19.1875 45.40625 
Q 22.46875 42.1875 27.6875 42.1875 
Q 32.765625 42.1875 36.015625 45.375 
Q 39.265625 48.578125 39.265625 53.21875 
Q 39.265625 58.0625 35.90625 61.359375 
Q 32.5625 64.65625 27.59375 64.65625 
Q 22.5625 64.65625 19.234375 61.421875 
Q 15.921875 58.203125 15.921875 53.71875 
z
M 13.09375 20.65625 
Q 13.09375 16.890625 14.875 13.375 
Q 16.65625 9.859375 20.171875 7.921875 
Q 23.6875 6 27.734375 6 
Q 34.03125 6 38.125 10.046875 
Q 42.234375 14.109375 42.234375 20.359375 
Q 42.234375 26.703125 38.015625 30.859375 
Q 33.796875 35.015625 27.4375 35.015625 
Q 21.234375 35.015625 17.15625 30.90625 
Q 13.09375 26.8125 13.09375 20.65625 
z
" id="ArialMT-56"/>
     <path d="M 5.46875 16.546875 
L 13.921875 17.328125 
Q 14.984375 11.375 18.015625 8.6875 
Q 21.046875 6 25.78125 6 
Q 29.828125 6 32.875 7.859375 
Q 35.9375 9.71875 37.890625 12.8125 
Q 39.84375 15.921875 41.15625 21.1875 
Q 42.484375 26.46875 42.484375 31.9375 
Q 42.484375 32.515625 42.4375 33.6875 
Q 39.796875 29.5 35.234375 26.875 
Q 30.671875 24.265625 25.34375 24.265625 
Q 16.453125 24.265625 10.296875 30.703125 
Q 4.15625 37.15625 4.15625 47.703125 
Q 4.15625 58.59375 10.578125 65.234375 
Q 17 71.875 26.65625 71.875 
Q 33.640625 71.875 39.421875 68.109375 
Q 45.21875 64.359375 48.21875 57.390625 
Q 51.21875 50.4375 51.21875 37.25 
Q 51.21875 23.53125 48.234375 15.40625 
Q 45.265625 7.28125 39.375 3.03125 
Q 33.5 -1.21875 25.59375 -1.21875 
Q 17.1875 -1.21875 11.859375 3.4375 
Q 6.546875 8.109375 5.46875 16.546875 
z
M 41.453125 48.140625 
Q 41.453125 55.71875 37.421875 60.15625 
Q 33.40625 64.59375 27.734375 64.59375 
Q 21.875 64.59375 17.53125 59.8125 
Q 13.1875 55.03125 13.1875 47.40625 
Q 13.1875 40.578125 17.3125 36.296875 
Q 21.4375 32.03125 27.484375 32.03125 
Q 33.59375 32.03125 37.515625 36.296875 
Q 41.453125 40.578125 41.453125 48.140625 
z
" id="ArialMT-57"/>
    </defs>
    <g style="fill:#ffffff;" transform="translate(211.640645 122.493952)scale(0.12 -0.12)">
     <use xlink:href="#ArialMT-56"/>
     <use x="55.615234" xlink:href="#ArialMT-46"/>
     <use x="83.398438" xlink:href="#ArialMT-57"/>
     <use x="139.013672" xlink:href="#ArialMT-37"/>
    </g>
   </g>
   <g id="text_5">
    <!-- Italy -->
    <defs>
     <path d="M 9.328125 0 
L 9.328125 71.578125 
L 18.796875 71.578125 
L 18.796875 0 
z
" id="ArialMT-73"/>
     <path d="M 25.78125 7.859375 
L 27.046875 0.09375 
Q 23.34375 -0.6875 20.40625 -0.6875 
Q 15.625 -0.6875 12.984375 0.828125 
Q 10.359375 2.34375 9.28125 4.8125 
Q 8.203125 7.28125 8.203125 15.1875 
L 8.203125 45.015625 
L 1.765625 45.015625 
L 1.765625 51.859375 
L 8.203125 51.859375 
L 8.203125 64.703125 
L 16.9375 69.96875 
L 16.9375 51.859375 
L 25.78125 51.859375 
L 25.78125 45.015625 
L 16.9375 45.015625 
L 16.9375 14.703125 
Q 16.9375 10.9375 17.40625 9.859375 
Q 17.875 8.796875 18.921875 8.15625 
Q 19.96875 7.515625 21.921875 7.515625 
Q 23.390625 7.515625 25.78125 7.859375 
z
" id="ArialMT-116"/>
     <path d="M 6.390625 0 
L 6.390625 71.578125 
L 15.1875 71.578125 
L 15.1875 0 
z
" id="ArialMT-108"/>
     <path d="M 6.203125 -19.96875 
L 5.21875 -11.71875 
Q 8.109375 -12.5 10.25 -12.5 
Q 13.1875 -12.5 14.9375 -11.515625 
Q 16.703125 -10.546875 17.828125 -8.796875 
Q 18.65625 -7.46875 20.515625 -2.25 
Q 20.75 -1.515625 21.296875 -0.09375 
L 1.609375 51.859375 
L 11.078125 51.859375 
L 21.875 21.828125 
Q 23.96875 16.109375 25.640625 9.8125 
Q 27.15625 15.875 29.25 21.625 
L 40.328125 51.859375 
L 49.125 51.859375 
L 29.390625 -0.875 
Q 26.21875 -9.421875 24.46875 -12.640625 
Q 22.125 -17 19.09375 -19.015625 
Q 16.0625 -21.046875 11.859375 -21.046875 
Q 9.328125 -21.046875 6.203125 -19.96875 
z
" id="ArialMT-121"/>
    </defs>
    <g style="fill:#262626;" transform="translate(124.268962 165.926296)scale(0.12 -0.12)">
     <use xlink:href="#ArialMT-73"/>
     <use x="27.783203" xlink:href="#ArialMT-116"/>
     <use x="55.566406" xlink:href="#ArialMT-97"/>
     <use x="111.181641" xlink:href="#ArialMT-108"/>
     <use x="133.398438" xlink:href="#ArialMT-121"/>
    </g>
   </g>
   <g id="text_6">
    <!-- 8.3% -->
    <g style="fill:#ffffff;" transform="translate(169.364639 179.997877)scale(0.12 -0.12)">
     <use xlink:href="#ArialMT-56"/>
     <use x="55.615234" xlink:href="#ArialMT-46"/>
     <use x="83.398438" xlink:href="#ArialMT-51"/>
     <use x="139.013672" xlink:href="#ArialMT-37"/>
    </g>
   </g>
   <g id="text_7">
    <!-- France -->
    <defs>
     <path d="M 8.203125 0 
L 8.203125 71.578125 
L 56.5 71.578125 
L 56.5 63.140625 
L 17.671875 63.140625 
L 17.671875 40.96875 
L 51.265625 40.96875 
L 51.265625 32.515625 
L 17.671875 32.515625 
L 17.671875 0 
z
" id="ArialMT-70"/>
     <path d="M 6.5 0 
L 6.5 51.859375 
L 14.40625 51.859375 
L 14.40625 44 
Q 17.4375 49.515625 20 51.265625 
Q 22.5625 53.03125 25.640625 53.03125 
Q 30.078125 53.03125 34.671875 50.203125 
L 31.640625 42.046875 
Q 28.421875 43.953125 25.203125 43.953125 
Q 22.3125 43.953125 20.015625 42.21875 
Q 17.71875 40.484375 16.75 37.40625 
Q 15.28125 32.71875 15.28125 27.15625 
L 15.28125 0 
z
" id="ArialMT-114"/>
     <path d="M 40.4375 19 
L 49.078125 17.875 
Q 47.65625 8.9375 41.8125 3.875 
Q 35.984375 -1.171875 27.484375 -1.171875 
Q 16.84375 -1.171875 10.375 5.78125 
Q 3.90625 12.75 3.90625 25.734375 
Q 3.90625 34.125 6.6875 40.421875 
Q 9.46875 46.734375 15.15625 49.875 
Q 20.84375 53.03125 27.546875 53.03125 
Q 35.984375 53.03125 41.359375 48.75 
Q 46.734375 44.484375 48.25 36.625 
L 39.703125 35.296875 
Q 38.484375 40.53125 35.375 43.15625 
Q 32.28125 45.796875 27.875 45.796875 
Q 21.234375 45.796875 17.078125 41.03125 
Q 12.9375 36.28125 12.9375 25.984375 
Q 12.9375 15.53125 16.9375 10.796875 
Q 20.953125 6.0625 27.390625 6.0625 
Q 32.5625 6.0625 36.03125 9.234375 
Q 39.5 12.40625 40.4375 19 
z
" id="ArialMT-99"/>
     <path d="M 42.09375 16.703125 
L 51.171875 15.578125 
Q 49.03125 7.625 43.21875 3.21875 
Q 37.40625 -1.171875 28.375 -1.171875 
Q 17 -1.171875 10.328125 5.828125 
Q 3.65625 12.84375 3.65625 25.484375 
Q 3.65625 38.578125 10.390625 45.796875 
Q 17.140625 53.03125 27.875 53.03125 
Q 38.28125 53.03125 44.875 45.953125 
Q 51.46875 38.875 51.46875 26.03125 
Q 51.46875 25.25 51.421875 23.6875 
L 12.75 23.6875 
Q 13.234375 15.140625 17.578125 10.59375 
Q 21.921875 6.0625 28.421875 6.0625 
Q 33.25 6.0625 36.671875 8.59375 
Q 40.09375 11.140625 42.09375 16.703125 
z
M 13.234375 30.90625 
L 42.1875 30.90625 
Q 41.609375 37.453125 38.875 40.71875 
Q 34.671875 45.796875 27.984375 45.796875 
Q 21.921875 45.796875 17.796875 41.75 
Q 13.671875 37.703125 13.234375 30.90625 
z
" id="ArialMT-101"/>
    </defs>
    <g style="fill:#262626;" transform="translate(98.641236 246.581678)scale(0.12 -0.12)">
     <use xlink:href="#ArialMT-70"/>
     <use x="61.083984" xlink:href="#ArialMT-114"/>
     <use x="94.384766" xlink:href="#ArialMT-97"/>
     <use x="150" xlink:href="#ArialMT-110"/>
     <use x="205.615234" xlink:href="#ArialMT-99"/>
     <use x="255.615234" xlink:href="#ArialMT-101"/>
    </g>
   </g>
   <g id="text_8">
    <!-- 6.7% -->
    <defs>
     <path d="M 49.75 54.046875 
L 41.015625 53.375 
Q 39.84375 58.546875 37.703125 60.890625 
Q 34.125 64.65625 28.90625 64.65625 
Q 24.703125 64.65625 21.53125 62.3125 
Q 17.390625 59.28125 14.984375 53.46875 
Q 12.59375 47.65625 12.5 36.921875 
Q 15.671875 41.75 20.265625 44.09375 
Q 24.859375 46.4375 29.890625 46.4375 
Q 38.671875 46.4375 44.84375 39.96875 
Q 51.03125 33.5 51.03125 23.25 
Q 51.03125 16.5 48.125 10.71875 
Q 45.21875 4.9375 40.140625 1.859375 
Q 35.0625 -1.21875 28.609375 -1.21875 
Q 17.625 -1.21875 10.6875 6.859375 
Q 3.765625 14.9375 3.765625 33.5 
Q 3.765625 54.25 11.421875 63.671875 
Q 18.109375 71.875 29.4375 71.875 
Q 37.890625 71.875 43.28125 67.140625 
Q 48.6875 62.40625 49.75 54.046875 
z
M 13.875 23.1875 
Q 13.875 18.65625 15.796875 14.5 
Q 17.71875 10.359375 21.1875 8.171875 
Q 24.65625 6 28.46875 6 
Q 34.03125 6 38.03125 10.484375 
Q 42.046875 14.984375 42.046875 22.703125 
Q 42.046875 30.125 38.078125 34.390625 
Q 34.125 38.671875 28.125 38.671875 
Q 22.171875 38.671875 18.015625 34.390625 
Q 13.875 30.125 13.875 23.1875 
z
" id="ArialMT-54"/>
     <path d="M 4.734375 62.203125 
L 4.734375 70.65625 
L 51.078125 70.65625 
L 51.078125 63.8125 
Q 44.234375 56.546875 37.515625 44.484375 
Q 30.8125 32.421875 27.15625 19.671875 
Q 24.515625 10.6875 23.78125 0 
L 14.75 0 
Q 14.890625 8.453125 18.0625 20.40625 
Q 21.234375 32.375 27.171875 43.484375 
Q 33.109375 54.59375 39.796875 62.203125 
z
" id="ArialMT-55"/>
    </defs>
    <g style="fill:#ffffff;" transform="translate(161.4131 242.268158)scale(0.12 -0.12)">
     <use xlink:href="#ArialMT-54"/>
     <use x="55.615234" xlink:href="#ArialMT-46"/>
     <use x="83.398438" xlink:href="#ArialMT-55"/>
     <use x="139.013672" xlink:href="#ArialMT-37"/>
    </g>
   </g>
   <g id="text_9">
    <!-- Germany -->
    <defs>
     <path d="M 41.21875 28.078125 
L 41.21875 36.46875 
L 71.53125 36.53125 
L 71.53125 9.96875 
Q 64.546875 4.390625 57.125 1.578125 
Q 49.703125 -1.21875 41.890625 -1.21875 
Q 31.34375 -1.21875 22.71875 3.296875 
Q 14.109375 7.8125 9.71875 16.359375 
Q 5.328125 24.90625 5.328125 35.453125 
Q 5.328125 45.90625 9.6875 54.953125 
Q 14.0625 64.015625 22.265625 68.40625 
Q 30.46875 72.796875 41.15625 72.796875 
Q 48.921875 72.796875 55.1875 70.28125 
Q 61.46875 67.78125 65.03125 63.28125 
Q 68.609375 58.796875 70.453125 51.5625 
L 61.921875 49.21875 
Q 60.296875 54.6875 57.90625 57.8125 
Q 55.515625 60.9375 51.0625 62.8125 
Q 46.625 64.703125 41.21875 64.703125 
Q 34.71875 64.703125 29.984375 62.71875 
Q 25.25 60.75 22.34375 57.515625 
Q 19.4375 54.296875 17.828125 50.4375 
Q 15.09375 43.796875 15.09375 36.03125 
Q 15.09375 26.46875 18.390625 20.015625 
Q 21.6875 13.578125 27.984375 10.453125 
Q 34.28125 7.328125 41.359375 7.328125 
Q 47.515625 7.328125 53.375 9.6875 
Q 59.234375 12.0625 62.25 14.75 
L 62.25 28.078125 
z
" id="ArialMT-71"/>
     <path d="M 6.59375 0 
L 6.59375 51.859375 
L 14.453125 51.859375 
L 14.453125 44.578125 
Q 16.890625 48.390625 20.9375 50.703125 
Q 25 53.03125 30.171875 53.03125 
Q 35.9375 53.03125 39.625 50.640625 
Q 43.3125 48.25 44.828125 43.953125 
Q 50.984375 53.03125 60.84375 53.03125 
Q 68.5625 53.03125 72.703125 48.75 
Q 76.859375 44.484375 76.859375 35.59375 
L 76.859375 0 
L 68.109375 0 
L 68.109375 32.671875 
Q 68.109375 37.9375 67.25 40.25 
Q 66.40625 42.578125 64.15625 43.984375 
Q 61.921875 45.40625 58.890625 45.40625 
Q 53.421875 45.40625 49.796875 41.765625 
Q 46.1875 38.140625 46.1875 30.125 
L 46.1875 0 
L 37.40625 0 
L 37.40625 33.6875 
Q 37.40625 39.546875 35.25 42.46875 
Q 33.109375 45.40625 28.21875 45.40625 
Q 24.515625 45.40625 21.359375 43.453125 
Q 18.21875 41.5 16.796875 37.734375 
Q 15.375 33.984375 15.375 26.90625 
L 15.375 0 
z
" id="ArialMT-109"/>
    </defs>
    <g style="fill:#262626;" transform="translate(109.646199 315.622657)scale(0.12 -0.12)">
     <use xlink:href="#ArialMT-71"/>
     <use x="77.783203" xlink:href="#ArialMT-101"/>
     <use x="133.398438" xlink:href="#ArialMT-114"/>
     <use x="166.699219" xlink:href="#ArialMT-109"/>
     <use x="250" xlink:href="#ArialMT-97"/>
     <use x="305.615234" xlink:href="#ArialMT-110"/>
     <use x="361.230469" xlink:href="#ArialMT-121"/>
    </g>
   </g>
   <g id="text_10">
    <!-- 6.7% -->
    <g style="fill:#ffffff;" transform="translate(179.189663 295.615831)scale(0.12 -0.12)">
     <use xlink:href="#ArialMT-54"/>
     <use x="55.615234" xlink:href="#ArialMT-46"/>
     <use x="83.398438" xlink:href="#ArialMT-55"/>
     <use x="139.013672" xlink:href="#ArialMT-37"/>
    </g>
   </g>
   <g id="text_11">
    <!-- United Kingdom -->
    <defs>
     <path d="M 40.234375 0 
L 40.234375 6.546875 
Q 35.296875 -1.171875 25.734375 -1.171875 
Q 19.53125 -1.171875 14.328125 2.25 
Q 9.125 5.671875 6.265625 11.796875 
Q 3.421875 17.921875 3.421875 25.875 
Q 3.421875 33.640625 6 39.96875 
Q 8.59375 46.296875 13.765625 49.65625 
Q 18.953125 53.03125 25.34375 53.03125 
Q 30.03125 53.03125 33.6875 51.046875 
Q 37.359375 49.078125 39.65625 45.90625 
L 39.65625 71.578125 
L 48.390625 71.578125 
L 48.390625 0 
z
M 12.453125 25.875 
Q 12.453125 15.921875 16.640625 10.984375 
Q 20.84375 6.0625 26.5625 6.0625 
Q 32.328125 6.0625 36.34375 10.765625 
Q 40.375 15.484375 40.375 25.140625 
Q 40.375 35.796875 36.265625 40.765625 
Q 32.171875 45.75 26.171875 45.75 
Q 20.3125 45.75 16.375 40.96875 
Q 12.453125 36.1875 12.453125 25.875 
z
" id="ArialMT-100"/>
     <path id="ArialMT-32"/>
     <path d="M 7.328125 0 
L 7.328125 71.578125 
L 16.796875 71.578125 
L 16.796875 36.078125 
L 52.34375 71.578125 
L 65.1875 71.578125 
L 35.15625 42.578125 
L 66.5 0 
L 54 0 
L 28.515625 36.234375 
L 16.796875 24.8125 
L 16.796875 0 
z
" id="ArialMT-75"/>
     <path d="M 4.984375 -4.296875 
L 13.53125 -5.5625 
Q 14.0625 -9.515625 16.5 -11.328125 
Q 19.78125 -13.765625 25.4375 -13.765625 
Q 31.546875 -13.765625 34.859375 -11.328125 
Q 38.1875 -8.890625 39.359375 -4.5 
Q 40.046875 -1.8125 39.984375 6.78125 
Q 34.234375 0 25.640625 0 
Q 14.9375 0 9.078125 7.71875 
Q 3.21875 15.4375 3.21875 26.21875 
Q 3.21875 33.640625 5.90625 39.90625 
Q 8.59375 46.1875 13.6875 49.609375 
Q 18.796875 53.03125 25.6875 53.03125 
Q 34.859375 53.03125 40.828125 45.609375 
L 40.828125 51.859375 
L 48.921875 51.859375 
L 48.921875 7.03125 
Q 48.921875 -5.078125 46.453125 -10.125 
Q 44 -15.1875 38.640625 -18.109375 
Q 33.296875 -21.046875 25.484375 -21.046875 
Q 16.21875 -21.046875 10.5 -16.875 
Q 4.78125 -12.703125 4.984375 -4.296875 
z
M 12.25 26.859375 
Q 12.25 16.65625 16.296875 11.96875 
Q 20.359375 7.28125 26.46875 7.28125 
Q 32.515625 7.28125 36.609375 11.9375 
Q 40.71875 16.609375 40.71875 26.5625 
Q 40.71875 36.078125 36.5 40.90625 
Q 32.28125 45.75 26.3125 45.75 
Q 20.453125 45.75 16.34375 40.984375 
Q 12.25 36.234375 12.25 26.859375 
z
" id="ArialMT-103"/>
     <path d="M 3.328125 25.921875 
Q 3.328125 40.328125 11.328125 47.265625 
Q 18.015625 53.03125 27.640625 53.03125 
Q 38.328125 53.03125 45.109375 46.015625 
Q 51.90625 39.015625 51.90625 26.65625 
Q 51.90625 16.65625 48.90625 10.90625 
Q 45.90625 5.171875 40.15625 2 
Q 34.421875 -1.171875 27.640625 -1.171875 
Q 16.75 -1.171875 10.03125 5.8125 
Q 3.328125 12.796875 3.328125 25.921875 
z
M 12.359375 25.921875 
Q 12.359375 15.96875 16.703125 11.015625 
Q 21.046875 6.0625 27.640625 6.0625 
Q 34.1875 6.0625 38.53125 11.03125 
Q 42.875 16.015625 42.875 26.21875 
Q 42.875 35.84375 38.5 40.796875 
Q 34.125 45.75 27.640625 45.75 
Q 21.046875 45.75 16.703125 40.8125 
Q 12.359375 35.890625 12.359375 25.921875 
z
" id="ArialMT-111"/>
    </defs>
    <g style="fill:#262626;" transform="translate(114.807099 362.920268)scale(0.12 -0.12)">
     <use xlink:href="#ArialMT-85"/>
     <use x="72.216797" xlink:href="#ArialMT-110"/>
     <use x="127.832031" xlink:href="#ArialMT-105"/>
     <use x="150.048828" xlink:href="#ArialMT-116"/>
     <use x="177.832031" xlink:href="#ArialMT-101"/>
     <use x="233.447266" xlink:href="#ArialMT-100"/>
     <use x="289.0625" xlink:href="#ArialMT-32"/>
     <use x="316.845703" xlink:href="#ArialMT-75"/>
     <use x="383.544922" xlink:href="#ArialMT-105"/>
     <use x="405.761719" xlink:href="#ArialMT-110"/>
     <use x="461.376953" xlink:href="#ArialMT-103"/>
     <use x="516.992188" xlink:href="#ArialMT-100"/>
     <use x="572.607422" xlink:href="#ArialMT-111"/>
     <use x="628.222656" xlink:href="#ArialMT-109"/>
    </g>
   </g>
   <g id="text_12">
    <!-- 4.9% -->
    <defs>
     <path d="M 32.328125 0 
L 32.328125 17.140625 
L 1.265625 17.140625 
L 1.265625 25.203125 
L 33.9375 71.578125 
L 41.109375 71.578125 
L 41.109375 25.203125 
L 50.78125 25.203125 
L 50.78125 17.140625 
L 41.109375 17.140625 
L 41.109375 0 
z
M 32.328125 25.203125 
L 32.328125 57.46875 
L 9.90625 25.203125 
z
" id="ArialMT-52"/>
    </defs>
    <g style="fill:#ffffff;" transform="translate(211.021893 332.220491)scale(0.12 -0.12)">
     <use xlink:href="#ArialMT-52"/>
     <use x="55.615234" xlink:href="#ArialMT-46"/>
     <use x="83.398438" xlink:href="#ArialMT-57"/>
     <use x="139.013672" xlink:href="#ArialMT-37"/>
    </g>
   </g>
   <g id="text_13">
    <!-- China -->
    <defs>
     <path d="M 58.796875 25.09375 
L 68.265625 22.703125 
Q 65.28125 11.03125 57.546875 4.90625 
Q 49.8125 -1.21875 38.625 -1.21875 
Q 27.046875 -1.21875 19.796875 3.484375 
Q 12.546875 8.203125 8.765625 17.140625 
Q 4.984375 26.078125 4.984375 36.328125 
Q 4.984375 47.515625 9.25 55.828125 
Q 13.53125 64.15625 21.40625 68.46875 
Q 29.296875 72.796875 38.765625 72.796875 
Q 49.515625 72.796875 56.828125 67.328125 
Q 64.15625 61.859375 67.046875 51.953125 
L 57.71875 49.75 
Q 55.21875 57.5625 50.484375 61.125 
Q 45.75 64.703125 38.578125 64.703125 
Q 30.328125 64.703125 24.78125 60.734375 
Q 19.234375 56.78125 16.984375 50.109375 
Q 14.75 43.453125 14.75 36.375 
Q 14.75 27.25 17.40625 20.4375 
Q 20.0625 13.625 25.671875 10.25 
Q 31.296875 6.890625 37.84375 6.890625 
Q 45.796875 6.890625 51.3125 11.46875 
Q 56.84375 16.0625 58.796875 25.09375 
z
" id="ArialMT-67"/>
     <path d="M 6.59375 0 
L 6.59375 71.578125 
L 15.375 71.578125 
L 15.375 45.90625 
Q 21.53125 53.03125 30.90625 53.03125 
Q 36.671875 53.03125 40.921875 50.75 
Q 45.171875 48.484375 47 44.484375 
Q 48.828125 40.484375 48.828125 32.859375 
L 48.828125 0 
L 40.046875 0 
L 40.046875 32.859375 
Q 40.046875 39.453125 37.1875 42.453125 
Q 34.328125 45.453125 29.109375 45.453125 
Q 25.203125 45.453125 21.75 43.421875 
Q 18.3125 41.40625 16.84375 37.9375 
Q 15.375 34.46875 15.375 28.375 
L 15.375 0 
z
" id="ArialMT-104"/>
    </defs>
    <g style="fill:#262626;" transform="translate(211.605121 387.997624)scale(0.12 -0.12)">
     <use xlink:href="#ArialMT-67"/>
     <use x="72.216797" xlink:href="#ArialMT-104"/>
     <use x="127.832031" xlink:href="#ArialMT-105"/>
     <use x="150.048828" xlink:href="#ArialMT-110"/>
     <use x="205.664062" xlink:href="#ArialMT-97"/>
    </g>
   </g>
   <g id="text_14">
    <!-- 4.3% -->
    <g style="fill:#ffffff;" transform="translate(244.072807 351.544115)scale(0.12 -0.12)">
     <use xlink:href="#ArialMT-52"/>
     <use x="55.615234" xlink:href="#ArialMT-46"/>
     <use x="83.398438" xlink:href="#ArialMT-51"/>
     <use x="139.013672" xlink:href="#ArialMT-37"/>
    </g>
   </g>
   <g id="text_15">
    <!-- Iran -->
    <g style="fill:#262626;" transform="translate(264.849335 399.227917)scale(0.12 -0.12)">
     <use xlink:href="#ArialMT-73"/>
     <use x="27.783203" xlink:href="#ArialMT-114"/>
     <use x="61.083984" xlink:href="#ArialMT-97"/>
     <use x="116.699219" xlink:href="#ArialMT-110"/>
    </g>
   </g>
   <g id="text_16">
    <!-- 3.8% -->
    <g style="fill:#ffffff;" transform="translate(276.966234 360.222069)scale(0.12 -0.12)">
     <use xlink:href="#ArialMT-51"/>
     <use x="55.615234" xlink:href="#ArialMT-46"/>
     <use x="83.398438" xlink:href="#ArialMT-56"/>
     <use x="139.013672" xlink:href="#ArialMT-37"/>
    </g>
   </g>
   <g id="text_17">
    <!-- Turkey -->
    <defs>
     <path d="M 25.921875 0 
L 25.921875 63.140625 
L 2.34375 63.140625 
L 2.34375 71.578125 
L 59.078125 71.578125 
L 59.078125 63.140625 
L 35.40625 63.140625 
L 35.40625 0 
z
" id="ArialMT-84"/>
     <path d="M 40.578125 0 
L 40.578125 7.625 
Q 34.515625 -1.171875 24.125 -1.171875 
Q 19.53125 -1.171875 15.546875 0.578125 
Q 11.578125 2.34375 9.640625 5 
Q 7.71875 7.671875 6.9375 11.53125 
Q 6.390625 14.109375 6.390625 19.734375 
L 6.390625 51.859375 
L 15.1875 51.859375 
L 15.1875 23.09375 
Q 15.1875 16.21875 15.71875 13.8125 
Q 16.546875 10.359375 19.234375 8.375 
Q 21.921875 6.390625 25.875 6.390625 
Q 29.828125 6.390625 33.296875 8.421875 
Q 36.765625 10.453125 38.203125 13.9375 
Q 39.65625 17.4375 39.65625 24.078125 
L 39.65625 51.859375 
L 48.4375 51.859375 
L 48.4375 0 
z
" id="ArialMT-117"/>
     <path d="M 6.640625 0 
L 6.640625 71.578125 
L 15.4375 71.578125 
L 15.4375 30.765625 
L 36.234375 51.859375 
L 47.609375 51.859375 
L 27.78125 32.625 
L 49.609375 0 
L 38.765625 0 
L 21.625 26.515625 
L 15.4375 20.5625 
L 15.4375 0 
z
" id="ArialMT-107"/>
    </defs>
    <g style="fill:#262626;" transform="translate(324.502379 399.843069)scale(0.12 -0.12)">
     <use xlink:href="#ArialMT-84"/>
     <use x="61.037109" xlink:href="#ArialMT-117"/>
     <use x="116.652344" xlink:href="#ArialMT-114"/>
     <use x="149.953125" xlink:href="#ArialMT-107"/>
     <use x="199.953125" xlink:href="#ArialMT-101"/>
     <use x="255.568359" xlink:href="#ArialMT-121"/>
    </g>
   </g>
   <g id="text_18">
    <!-- 3.3% -->
    <g style="fill:#ffffff;" transform="translate(307.085149 360.751746)scale(0.12 -0.12)">
     <use xlink:href="#ArialMT-51"/>
     <use x="55.615234" xlink:href="#ArialMT-46"/>
     <use x="83.398438" xlink:href="#ArialMT-51"/>
     <use x="139.013672" xlink:href="#ArialMT-37"/>
    </g>
   </g>
   <g id="text_19">
    <!-- Belgium -->
    <defs>
     <path d="M 7.328125 0 
L 7.328125 71.578125 
L 34.1875 71.578125 
Q 42.390625 71.578125 47.34375 69.40625 
Q 52.296875 67.234375 55.09375 62.71875 
Q 57.90625 58.203125 57.90625 53.265625 
Q 57.90625 48.6875 55.421875 44.625 
Q 52.9375 40.578125 47.90625 38.09375 
Q 54.390625 36.1875 57.875 31.59375 
Q 61.375 27 61.375 20.75 
Q 61.375 15.71875 59.25 11.390625 
Q 57.125 7.078125 54 4.734375 
Q 50.875 2.390625 46.15625 1.1875 
Q 41.453125 0 34.625 0 
z
M 16.796875 41.5 
L 32.28125 41.5 
Q 38.578125 41.5 41.3125 42.328125 
Q 44.921875 43.40625 46.75 45.890625 
Q 48.578125 48.390625 48.578125 52.15625 
Q 48.578125 55.71875 46.875 58.421875 
Q 45.171875 61.140625 41.984375 62.140625 
Q 38.8125 63.140625 31.109375 63.140625 
L 16.796875 63.140625 
z
M 16.796875 8.453125 
L 34.625 8.453125 
Q 39.203125 8.453125 41.0625 8.796875 
Q 44.34375 9.375 46.53125 10.734375 
Q 48.734375 12.109375 50.140625 14.71875 
Q 51.5625 17.328125 51.5625 20.75 
Q 51.5625 24.75 49.515625 27.703125 
Q 47.46875 30.671875 43.828125 31.859375 
Q 40.1875 33.0625 33.34375 33.0625 
L 16.796875 33.0625 
z
" id="ArialMT-66"/>
    </defs>
    <g style="fill:#262626;" transform="translate(350.930564 395.229365)scale(0.12 -0.12)">
     <use xlink:href="#ArialMT-66"/>
     <use x="66.699219" xlink:href="#ArialMT-101"/>
     <use x="122.314453" xlink:href="#ArialMT-108"/>
     <use x="144.53125" xlink:href="#ArialMT-103"/>
     <use x="200.146484" xlink:href="#ArialMT-105"/>
     <use x="222.363281" xlink:href="#ArialMT-117"/>
     <use x="277.978516" xlink:href="#ArialMT-109"/>
    </g>
   </g>
   <g id="text_20">
    <!-- 1.6% -->
    <g style="fill:#ffffff;" transform="translate(327.506928 357.186611)scale(0.12 -0.12)">
     <use xlink:href="#ArialMT-49"/>
     <use x="55.615234" xlink:href="#ArialMT-46"/>
     <use x="83.398438" xlink:href="#ArialMT-54"/>
     <use x="139.013672" xlink:href="#ArialMT-37"/>
    </g>
   </g>
   <g id="text_21">
    <!-- The Rest -->
    <defs>
     <path d="M 7.859375 0 
L 7.859375 71.578125 
L 39.59375 71.578125 
Q 49.171875 71.578125 54.140625 69.640625 
Q 59.125 67.71875 62.109375 62.828125 
Q 65.09375 57.953125 65.09375 52.046875 
Q 65.09375 44.4375 60.15625 39.203125 
Q 55.21875 33.984375 44.921875 32.5625 
Q 48.6875 30.765625 50.640625 29 
Q 54.78125 25.203125 58.5 19.484375 
L 70.953125 0 
L 59.03125 0 
L 49.5625 14.890625 
Q 45.40625 21.34375 42.71875 24.75 
Q 40.046875 28.171875 37.921875 29.53125 
Q 35.796875 30.90625 33.59375 31.453125 
Q 31.984375 31.78125 28.328125 31.78125 
L 17.328125 31.78125 
L 17.328125 0 
z
M 17.328125 39.984375 
L 37.703125 39.984375 
Q 44.1875 39.984375 47.84375 41.328125 
Q 51.515625 42.671875 53.421875 45.625 
Q 55.328125 48.578125 55.328125 52.046875 
Q 55.328125 57.125 51.640625 60.390625 
Q 47.953125 63.671875 39.984375 63.671875 
L 17.328125 63.671875 
z
" id="ArialMT-82"/>
     <path d="M 3.078125 15.484375 
L 11.765625 16.84375 
Q 12.5 11.625 15.84375 8.84375 
Q 19.1875 6.0625 25.203125 6.0625 
Q 31.25 6.0625 34.171875 8.515625 
Q 37.109375 10.984375 37.109375 14.3125 
Q 37.109375 17.28125 34.515625 19 
Q 32.71875 20.171875 25.53125 21.96875 
Q 15.875 24.421875 12.140625 26.203125 
Q 8.40625 27.984375 6.46875 31.125 
Q 4.546875 34.28125 4.546875 38.09375 
Q 4.546875 41.546875 6.125 44.5 
Q 7.71875 47.46875 10.453125 49.421875 
Q 12.5 50.921875 16.03125 51.96875 
Q 19.578125 53.03125 23.640625 53.03125 
Q 29.734375 53.03125 34.34375 51.265625 
Q 38.96875 49.515625 41.15625 46.5 
Q 43.359375 43.5 44.1875 38.484375 
L 35.59375 37.3125 
Q 35.015625 41.3125 32.203125 43.546875 
Q 29.390625 45.796875 24.265625 45.796875 
Q 18.21875 45.796875 15.625 43.796875 
Q 13.03125 41.796875 13.03125 39.109375 
Q 13.03125 37.40625 14.109375 36.03125 
Q 15.1875 34.625 17.484375 33.6875 
Q 18.796875 33.203125 25.25 31.453125 
Q 34.578125 28.953125 38.25 27.359375 
Q 41.9375 25.78125 44.03125 22.75 
Q 46.140625 19.734375 46.140625 15.234375 
Q 46.140625 10.84375 43.578125 6.953125 
Q 41.015625 3.078125 36.171875 0.953125 
Q 31.34375 -1.171875 25.25 -1.171875 
Q 15.140625 -1.171875 9.84375 3.03125 
Q 4.546875 7.234375 3.078125 15.484375 
z
" id="ArialMT-115"/>
    </defs>
    <g style="fill:#262626;" transform="translate(453.715121 334.961996)scale(0.12 -0.12)">
     <use xlink:href="#ArialMT-84"/>
     <use x="61.083984" xlink:href="#ArialMT-104"/>
     <use x="116.699219" xlink:href="#ArialMT-101"/>
     <use x="172.314453" xlink:href="#ArialMT-32"/>
     <use x="200.097656" xlink:href="#ArialMT-82"/>
     <use x="272.314453" xlink:href="#ArialMT-101"/>
     <use x="327.929688" xlink:href="#ArialMT-115"/>
     <use x="377.929688" xlink:href="#ArialMT-116"/>
    </g>
   </g>
   <g id="text_22">
    <!-- 20.2% -->
    <defs>
     <path d="M 4.15625 35.296875 
Q 4.15625 48 6.765625 55.734375 
Q 9.375 63.484375 14.515625 67.671875 
Q 19.671875 71.875 27.484375 71.875 
Q 33.25 71.875 37.59375 69.546875 
Q 41.9375 67.234375 44.765625 62.859375 
Q 47.609375 58.5 49.21875 52.21875 
Q 50.828125 45.953125 50.828125 35.296875 
Q 50.828125 22.703125 48.234375 14.96875 
Q 45.65625 7.234375 40.5 3 
Q 35.359375 -1.21875 27.484375 -1.21875 
Q 17.140625 -1.21875 11.234375 6.203125 
Q 4.15625 15.140625 4.15625 35.296875 
z
M 13.1875 35.296875 
Q 13.1875 17.671875 17.3125 11.828125 
Q 21.4375 6 27.484375 6 
Q 33.546875 6 37.671875 11.859375 
Q 41.796875 17.71875 41.796875 35.296875 
Q 41.796875 52.984375 37.671875 58.78125 
Q 33.546875 64.59375 27.390625 64.59375 
Q 21.34375 64.59375 17.71875 59.46875 
Q 13.1875 52.9375 13.1875 35.296875 
z
" id="ArialMT-48"/>
    </defs>
    <g style="fill:#ffffff;" transform="translate(405.034293 311.622907)scale(0.12 -0.12)">
     <use xlink:href="#ArialMT-50"/>
     <use x="55.615234" xlink:href="#ArialMT-48"/>
     <use x="111.230469" xlink:href="#ArialMT-46"/>
     <use x="139.013672" xlink:href="#ArialMT-50"/>
     <use x="194.628906" xlink:href="#ArialMT-37"/>
    </g>
   </g>
   <g id="text_23">
    <!-- locations with most confirmed cases -->
    <defs>
     <path d="M 16.15625 0 
L 0.296875 51.859375 
L 9.375 51.859375 
L 17.625 21.921875 
L 20.703125 10.796875 
Q 20.90625 11.625 23.390625 21.484375 
L 31.640625 51.859375 
L 40.671875 51.859375 
L 48.4375 21.78125 
L 51.03125 11.859375 
L 54 21.875 
L 62.890625 51.859375 
L 71.4375 51.859375 
L 55.21875 0 
L 46.09375 0 
L 37.84375 31.0625 
L 35.84375 39.890625 
L 25.34375 0 
z
" id="ArialMT-119"/>
     <path d="M 8.6875 0 
L 8.6875 45.015625 
L 0.921875 45.015625 
L 0.921875 51.859375 
L 8.6875 51.859375 
L 8.6875 57.375 
Q 8.6875 62.59375 9.625 65.140625 
Q 10.890625 68.5625 14.078125 70.671875 
Q 17.28125 72.796875 23.046875 72.796875 
Q 26.765625 72.796875 31.25 71.921875 
L 29.9375 64.265625 
Q 27.203125 64.75 24.75 64.75 
Q 20.75 64.75 19.09375 63.03125 
Q 17.4375 61.328125 17.4375 56.640625 
L 17.4375 51.859375 
L 27.546875 51.859375 
L 27.546875 45.015625 
L 17.4375 45.015625 
L 17.4375 0 
z
" id="ArialMT-102"/>
    </defs>
    <g style="fill:#262626;" transform="translate(192.798565 21.8)scale(0.144 -0.144)">
     <use xlink:href="#ArialMT-108"/>
     <use x="22.216797" xlink:href="#ArialMT-111"/>
     <use x="77.832031" xlink:href="#ArialMT-99"/>
     <use x="127.832031" xlink:href="#ArialMT-97"/>
     <use x="183.447266" xlink:href="#ArialMT-116"/>
     <use x="211.230469" xlink:href="#ArialMT-105"/>
     <use x="233.447266" xlink:href="#ArialMT-111"/>
     <use x="289.0625" xlink:href="#ArialMT-110"/>
     <use x="344.677734" xlink:href="#ArialMT-115"/>
     <use x="394.677734" xlink:href="#ArialMT-32"/>
     <use x="422.460938" xlink:href="#ArialMT-119"/>
     <use x="494.677734" xlink:href="#ArialMT-105"/>
     <use x="516.894531" xlink:href="#ArialMT-116"/>
     <use x="544.677734" xlink:href="#ArialMT-104"/>
     <use x="600.292969" xlink:href="#ArialMT-32"/>
     <use x="628.076172" xlink:href="#ArialMT-109"/>
     <use x="711.376953" xlink:href="#ArialMT-111"/>
     <use x="766.992188" xlink:href="#ArialMT-115"/>
     <use x="816.992188" xlink:href="#ArialMT-116"/>
     <use x="844.775391" xlink:href="#ArialMT-32"/>
     <use x="872.558594" xlink:href="#ArialMT-99"/>
     <use x="922.558594" xlink:href="#ArialMT-111"/>
     <use x="978.173828" xlink:href="#ArialMT-110"/>
     <use x="1033.789062" xlink:href="#ArialMT-102"/>
     <use x="1061.572266" xlink:href="#ArialMT-105"/>
     <use x="1083.789062" xlink:href="#ArialMT-114"/>
     <use x="1117.089844" xlink:href="#ArialMT-109"/>
     <use x="1200.390625" xlink:href="#ArialMT-101"/>
     <use x="1256.005859" xlink:href="#ArialMT-100"/>
     <use x="1311.621094" xlink:href="#ArialMT-32"/>
     <use x="1339.404297" xlink:href="#ArialMT-99"/>
     <use x="1389.404297" xlink:href="#ArialMT-97"/>
     <use x="1445.019531" xlink:href="#ArialMT-115"/>
     <use x="1495.019531" xlink:href="#ArialMT-101"/>
     <use x="1550.634766" xlink:href="#ArialMT-115"/>
    </g>
   </g>
  </g>
  <g id="axes_2">
   <g id="matplotlib.axis_3"/>
   <g id="matplotlib.axis_4"/>
   <g id="patch_15">
    <path d="M 1001.32206 224.5 
C 1001.32206 189.996076 989.973679 156.431671 969.035217 129.0072 
C 948.096756 101.582729 918.708495 81.791693 885.423803 72.700483 
L 843.96206 224.5 
L 1001.32206 224.5 
z
" style="fill:#36464c;stroke:#ffffff;stroke-linejoin:miter;"/>
   </g>
   <g id="patch_16">
    <path d="M 885.423803 72.700483 
C 858.357351 65.307691 829.79987 65.286784 802.722623 72.639938 
C 775.645375 79.993092 751.021183 94.456125 731.41207 114.524232 
L 843.96206 224.5 
L 885.423803 72.700483 
z
" style="fill:#385965;stroke:#ffffff;stroke-linejoin:miter;"/>
   </g>
   <g id="patch_17">
    <path d="M 731.41207 114.524232 
C 714.631426 131.697664 702.001879 152.486157 694.493601 175.292791 
C 686.985323 198.099425 684.795621 222.324868 688.092704 246.108182 
L 843.96206 224.5 
L 731.41207 114.524232 
z
" style="fill:#3b6d80;stroke:#ffffff;stroke-linejoin:miter;"/>
   </g>
   <g id="patch_18">
    <path d="M 688.092704 246.108182 
C 690.965398 266.83019 697.941783 286.772805 708.612826 304.766771 
C 719.283869 322.760737 733.436863 338.447375 750.242001 350.906962 
L 843.96206 224.5 
L 688.092704 246.108182 
z
" style="fill:#3d8099;stroke:#ffffff;stroke-linejoin:miter;"/>
   </g>
   <g id="patch_19">
    <path d="M 750.242001 350.906962 
C 763.168021 360.490512 777.487882 368.034942 792.70137 373.276716 
C 807.914859 378.51849 823.842746 381.395855 839.928651 381.8083 
L 843.96206 224.5 
L 750.242001 350.906962 
z
" style="fill:#4093b2;stroke:#ffffff;stroke-linejoin:miter;"/>
   </g>
   <g id="patch_20">
    <path d="M 839.928651 381.8083 
C 846.129132 381.967281 852.333593 381.759525 858.509551 381.18612 
C 864.685508 380.612714 870.822165 379.674662 876.887393 378.376873 
L 843.96206 224.5 
L 839.928651 381.8083 
z
" style="fill:#43a6cc;stroke:#ffffff;stroke-linejoin:miter;"/>
   </g>
   <g id="patch_21">
    <path d="M 876.887393 378.376873 
C 882.271036 377.224924 887.590516 375.791236 892.823886 374.081722 
C 898.057255 372.372208 903.197305 370.389225 908.222827 368.140953 
L 843.96206 224.5 
L 876.887393 378.376873 
z
" style="fill:#56b0c9;stroke:#ffffff;stroke-linejoin:miter;"/>
   </g>
   <g id="patch_22">
    <path d="M 908.222827 368.140953 
C 912.26637 366.33199 916.231727 364.353092 920.108299 362.209549 
C 923.984872 360.066005 927.769204 357.759727 931.451182 355.296877 
L 843.96206 224.5 
L 908.222827 368.140953 
z
" style="fill:#68bac6;stroke:#ffffff;stroke-linejoin:miter;"/>
   </g>
   <g id="patch_23">
    <path d="M 931.451182 355.296877 
C 935.077006 352.871589 938.600416 350.296581 942.012279 347.578528 
C 945.424143 344.860475 948.721511 342.001726 951.895838 339.00969 
L 843.96206 224.5 
L 931.451182 355.296877 
z
" style="fill:#7cc4c3;stroke:#ffffff;stroke-linejoin:miter;"/>
   </g>
   <g id="patch_24">
    <path d="M 951.895838 339.00969 
C 954.7434 336.325654 957.489855 333.536333 960.129473 330.647547 
C 962.76909 327.758761 965.300035 324.772519 967.717027 321.69505 
L 843.96206 224.5 
L 951.895838 339.00969 
z
" style="fill:#8fcec0;stroke:#ffffff;stroke-linejoin:miter;"/>
   </g>
   <g id="patch_25">
    <path d="M 975.153108 324.266064 
C 985.962777 310.502501 994.401007 295.031551 1000.119777 278.49129 
C 1005.838547 261.951029 1008.75814 244.572018 1008.758142 227.07103 
L 851.398142 227.071014 
L 975.153108 324.266064 
z
" style="fill:#a1d8bd;stroke:#ffffff;stroke-linejoin:miter;"/>
   </g>
   <g id="patch_26">
    <path clip-path="url(#pe4c6d98047)" d="M 843.96206 334.652 
C 873.174712 334.652 901.194822 323.04569 921.851286 302.389226 
C 942.50775 281.732762 954.11406 253.712652 954.11406 224.5 
C 954.11406 195.287348 942.50775 167.267238 921.851286 146.610774 
C 901.194822 125.95431 873.174712 114.348 843.96206 114.348 
C 814.749408 114.348 786.729298 125.95431 766.072834 146.610774 
C 745.416369 167.267238 733.81006 195.287348 733.81006 224.5 
C 733.81006 253.712652 745.416369 281.732762 766.072834 302.389226 
C 786.729298 323.04569 814.749408 334.652 843.96206 334.652 
z
" style="fill:#ffffff;stroke:#ffffff;stroke-linejoin:miter;"/>
   </g>
   <g id="patch_27">
    <path clip-path="url(#pe4c6d98047)" d="M 843.96206 334.652 
C 873.174712 334.652 901.194822 323.04569 921.851286 302.389226 
C 942.50775 281.732762 954.11406 253.712652 954.11406 224.5 
C 954.11406 195.287348 942.50775 167.267238 921.851286 146.610774 
C 901.194822 125.95431 873.174712 114.348 843.96206 114.348 
C 814.749408 114.348 786.729298 125.95431 766.072834 146.610774 
C 745.416369 167.267238 733.81006 195.287348 733.81006 224.5 
C 733.81006 253.712652 745.416369 281.732762 766.072834 302.389226 
C 786.729298 323.04569 814.749408 334.652 843.96206 334.652 
z
" style="fill:#ffffff;stroke:#ffffff;stroke-linejoin:miter;"/>
   </g>
   <g id="text_24">
    <!-- US -->
    <g style="fill:#262626;" transform="translate(981.542533 122.560108)scale(0.12 -0.12)">
     <use xlink:href="#ArialMT-85"/>
     <use x="72.216797" xlink:href="#ArialMT-83"/>
    </g>
   </g>
   <g id="text_25">
    <!-- 20.8% -->
    <g style="fill:#ffffff;" transform="translate(933.262369 146.433308)scale(0.12 -0.12)">
     <use xlink:href="#ArialMT-50"/>
     <use x="55.615234" xlink:href="#ArialMT-48"/>
     <use x="111.230469" xlink:href="#ArialMT-46"/>
     <use x="139.013672" xlink:href="#ArialMT-56"/>
     <use x="194.628906" xlink:href="#ArialMT-37"/>
    </g>
   </g>
   <g id="text_26">
    <!-- Italy -->
    <g style="fill:#262626;" transform="translate(776.591804 60.485807)scale(0.12 -0.12)">
     <use xlink:href="#ArialMT-73"/>
     <use x="27.783203" xlink:href="#ArialMT-116"/>
     <use x="55.566406" xlink:href="#ArialMT-97"/>
     <use x="111.181641" xlink:href="#ArialMT-108"/>
     <use x="133.398438" xlink:href="#ArialMT-121"/>
    </g>
   </g>
   <g id="text_27">
    <!-- 16.9% -->
    <g style="fill:#ffffff;" transform="translate(791.896663 98.521135)scale(0.12 -0.12)">
     <use xlink:href="#ArialMT-49"/>
     <use x="55.615234" xlink:href="#ArialMT-54"/>
     <use x="111.230469" xlink:href="#ArialMT-46"/>
     <use x="139.013672" xlink:href="#ArialMT-57"/>
     <use x="194.628906" xlink:href="#ArialMT-37"/>
    </g>
   </g>
   <g id="text_28">
    <!-- Spain -->
    <g style="fill:#262626;" transform="translate(648.856755 173.547383)scale(0.12 -0.12)">
     <use xlink:href="#ArialMT-83"/>
     <use x="66.699219" xlink:href="#ArialMT-112"/>
     <use x="122.314453" xlink:href="#ArialMT-97"/>
     <use x="177.929688" xlink:href="#ArialMT-105"/>
     <use x="200.146484" xlink:href="#ArialMT-110"/>
    </g>
   </g>
   <g id="text_29">
    <!-- 14.5% -->
    <defs>
     <path d="M 4.15625 18.75 
L 13.375 19.53125 
Q 14.40625 12.796875 18.140625 9.390625 
Q 21.875 6 27.15625 6 
Q 33.5 6 37.890625 10.78125 
Q 42.28125 15.578125 42.28125 23.484375 
Q 42.28125 31 38.0625 35.34375 
Q 33.84375 39.703125 27 39.703125 
Q 22.75 39.703125 19.328125 37.765625 
Q 15.921875 35.84375 13.96875 32.765625 
L 5.71875 33.84375 
L 12.640625 70.609375 
L 48.25 70.609375 
L 48.25 62.203125 
L 19.671875 62.203125 
L 15.828125 42.96875 
Q 22.265625 47.46875 29.34375 47.46875 
Q 38.71875 47.46875 45.15625 40.96875 
Q 51.609375 34.46875 51.609375 24.265625 
Q 51.609375 14.546875 45.953125 7.46875 
Q 39.0625 -1.21875 27.15625 -1.21875 
Q 17.390625 -1.21875 11.203125 4.25 
Q 5.03125 9.71875 4.15625 18.75 
z
" id="ArialMT-53"/>
    </defs>
    <g style="fill:#ffffff;" transform="translate(699.901995 185.77606)scale(0.12 -0.12)">
     <use xlink:href="#ArialMT-49"/>
     <use x="55.615234" xlink:href="#ArialMT-52"/>
     <use x="111.230469" xlink:href="#ArialMT-46"/>
     <use x="139.013672" xlink:href="#ArialMT-53"/>
     <use x="194.628906" xlink:href="#ArialMT-37"/>
    </g>
   </g>
   <g id="text_30">
    <!-- France -->
    <g style="fill:#262626;" transform="translate(657.733528 315.895636)scale(0.12 -0.12)">
     <use xlink:href="#ArialMT-70"/>
     <use x="61.083984" xlink:href="#ArialMT-114"/>
     <use x="94.384766" xlink:href="#ArialMT-97"/>
     <use x="150" xlink:href="#ArialMT-110"/>
     <use x="205.615234" xlink:href="#ArialMT-99"/>
     <use x="255.615234" xlink:href="#ArialMT-101"/>
    </g>
   </g>
   <g id="text_31">
    <!-- 12.7% -->
    <g style="fill:#ffffff;" transform="translate(711.903336 295.828943)scale(0.12 -0.12)">
     <use xlink:href="#ArialMT-49"/>
     <use x="55.615234" xlink:href="#ArialMT-50"/>
     <use x="111.230469" xlink:href="#ArialMT-46"/>
     <use x="139.013672" xlink:href="#ArialMT-55"/>
     <use x="194.628906" xlink:href="#ArialMT-37"/>
    </g>
   </g>
   <g id="text_32">
    <!-- United Kingdom -->
    <g style="fill:#262626;" transform="translate(702.197176 391.186263)scale(0.12 -0.12)">
     <use xlink:href="#ArialMT-85"/>
     <use x="72.216797" xlink:href="#ArialMT-110"/>
     <use x="127.832031" xlink:href="#ArialMT-105"/>
     <use x="150.048828" xlink:href="#ArialMT-116"/>
     <use x="177.832031" xlink:href="#ArialMT-101"/>
     <use x="233.447266" xlink:href="#ArialMT-100"/>
     <use x="289.0625" xlink:href="#ArialMT-32"/>
     <use x="316.845703" xlink:href="#ArialMT-75"/>
     <use x="383.544922" xlink:href="#ArialMT-105"/>
     <use x="405.761719" xlink:href="#ArialMT-110"/>
     <use x="461.376953" xlink:href="#ArialMT-103"/>
     <use x="516.992188" xlink:href="#ArialMT-100"/>
     <use x="572.607422" xlink:href="#ArialMT-111"/>
     <use x="628.222656" xlink:href="#ArialMT-109"/>
    </g>
   </g>
   <g id="text_33">
    <!-- 9.7% -->
    <g style="fill:#ffffff;" transform="translate(786.715161 354.062396)scale(0.12 -0.12)">
     <use xlink:href="#ArialMT-57"/>
     <use x="55.615234" xlink:href="#ArialMT-46"/>
     <use x="83.398438" xlink:href="#ArialMT-55"/>
     <use x="139.013672" xlink:href="#ArialMT-37"/>
    </g>
   </g>
   <g id="text_34">
    <!-- Iran -->
    <g style="fill:#262626;" transform="translate(859.9643 399.956919)scale(0.12 -0.12)">
     <use xlink:href="#ArialMT-73"/>
     <use x="27.783203" xlink:href="#ArialMT-114"/>
     <use x="61.083984" xlink:href="#ArialMT-97"/>
     <use x="116.699219" xlink:href="#ArialMT-110"/>
    </g>
   </g>
   <g id="text_35">
    <!-- 3.8% -->
    <g style="fill:#ffffff;" transform="translate(842.652115 360.785389)scale(0.12 -0.12)">
     <use xlink:href="#ArialMT-51"/>
     <use x="55.615234" xlink:href="#ArialMT-46"/>
     <use x="83.398438" xlink:href="#ArialMT-56"/>
     <use x="139.013672" xlink:href="#ArialMT-37"/>
    </g>
   </g>
   <g id="text_36">
    <!-- Belgium -->
    <g style="fill:#262626;" transform="translate(897.710068 392.071769)scale(0.12 -0.12)">
     <use xlink:href="#ArialMT-66"/>
     <use x="66.699219" xlink:href="#ArialMT-101"/>
     <use x="122.314453" xlink:href="#ArialMT-108"/>
     <use x="144.53125" xlink:href="#ArialMT-103"/>
     <use x="200.146484" xlink:href="#ArialMT-105"/>
     <use x="222.363281" xlink:href="#ArialMT-117"/>
     <use x="277.978516" xlink:href="#ArialMT-109"/>
    </g>
   </g>
   <g id="text_37">
    <!-- 3.3% -->
    <g style="fill:#ffffff;" transform="translate(871.819299 354.746651)scale(0.12 -0.12)">
     <use xlink:href="#ArialMT-51"/>
     <use x="55.615234" xlink:href="#ArialMT-46"/>
     <use x="83.398438" xlink:href="#ArialMT-51"/>
     <use x="139.013672" xlink:href="#ArialMT-37"/>
    </g>
   </g>
   <g id="text_38">
    <!-- China -->
    <g style="fill:#262626;" transform="translate(927.722923 379.082691)scale(0.12 -0.12)">
     <use xlink:href="#ArialMT-67"/>
     <use x="72.216797" xlink:href="#ArialMT-104"/>
     <use x="127.832031" xlink:href="#ArialMT-105"/>
     <use x="150.048828" xlink:href="#ArialMT-110"/>
     <use x="205.664062" xlink:href="#ArialMT-97"/>
    </g>
   </g>
   <g id="text_39">
    <!-- 2.7% -->
    <g style="fill:#ffffff;" transform="translate(895.011051 344.655304)scale(0.12 -0.12)">
     <use xlink:href="#ArialMT-50"/>
     <use x="55.615234" xlink:href="#ArialMT-46"/>
     <use x="83.398438" xlink:href="#ArialMT-55"/>
     <use x="139.013672" xlink:href="#ArialMT-37"/>
    </g>
   </g>
   <g id="text_40">
    <!-- Germany -->
    <g style="fill:#262626;" transform="translate(951.817301 362.991381)scale(0.12 -0.12)">
     <use xlink:href="#ArialMT-71"/>
     <use x="77.783203" xlink:href="#ArialMT-101"/>
     <use x="133.398438" xlink:href="#ArialMT-114"/>
     <use x="166.699219" xlink:href="#ArialMT-109"/>
     <use x="250" xlink:href="#ArialMT-97"/>
     <use x="305.615234" xlink:href="#ArialMT-110"/>
     <use x="361.230469" xlink:href="#ArialMT-121"/>
    </g>
   </g>
   <g id="text_41">
    <!-- 2.6% -->
    <g style="fill:#ffffff;" transform="translate(913.629434 332.218936)scale(0.12 -0.12)">
     <use xlink:href="#ArialMT-50"/>
     <use x="55.615234" xlink:href="#ArialMT-46"/>
     <use x="83.398438" xlink:href="#ArialMT-54"/>
     <use x="139.013672" xlink:href="#ArialMT-37"/>
    </g>
   </g>
   <g id="text_42">
    <!-- Netherlands -->
    <defs>
     <path d="M 7.625 0 
L 7.625 71.578125 
L 17.328125 71.578125 
L 54.9375 15.375 
L 54.9375 71.578125 
L 64.015625 71.578125 
L 64.015625 0 
L 54.296875 0 
L 16.703125 56.25 
L 16.703125 0 
z
" id="ArialMT-78"/>
    </defs>
    <g style="fill:#262626;" transform="translate(971.746214 344.364489)scale(0.12 -0.12)">
     <use xlink:href="#ArialMT-78"/>
     <use x="72.216797" xlink:href="#ArialMT-101"/>
     <use x="127.832031" xlink:href="#ArialMT-116"/>
     <use x="155.615234" xlink:href="#ArialMT-104"/>
     <use x="211.230469" xlink:href="#ArialMT-101"/>
     <use x="266.845703" xlink:href="#ArialMT-114"/>
     <use x="300.146484" xlink:href="#ArialMT-108"/>
     <use x="322.363281" xlink:href="#ArialMT-97"/>
     <use x="377.978516" xlink:href="#ArialMT-110"/>
     <use x="433.59375" xlink:href="#ArialMT-100"/>
     <use x="489.208984" xlink:href="#ArialMT-115"/>
    </g>
   </g>
   <g id="text_43">
    <!-- 2.4% -->
    <g style="fill:#ffffff;" transform="translate(929.029048 317.827603)scale(0.12 -0.12)">
     <use xlink:href="#ArialMT-50"/>
     <use x="55.615234" xlink:href="#ArialMT-46"/>
     <use x="83.398438" xlink:href="#ArialMT-52"/>
     <use x="139.013672" xlink:href="#ArialMT-37"/>
    </g>
   </g>
   <g id="text_44">
    <!-- The Rest -->
    <g style="fill:#262626;" transform="translate(1014.99194 286.735505)scale(0.12 -0.12)">
     <use xlink:href="#ArialMT-84"/>
     <use x="61.083984" xlink:href="#ArialMT-104"/>
     <use x="116.699219" xlink:href="#ArialMT-101"/>
     <use x="172.314453" xlink:href="#ArialMT-32"/>
     <use x="200.097656" xlink:href="#ArialMT-82"/>
     <use x="272.314453" xlink:href="#ArialMT-101"/>
     <use x="327.929688" xlink:href="#ArialMT-115"/>
     <use x="377.929688" xlink:href="#ArialMT-116"/>
    </g>
   </g>
   <g id="text_45">
    <!-- 10.6% -->
    <g style="fill:#ffffff;" transform="translate(960.799656 273.880436)scale(0.12 -0.12)">
     <use xlink:href="#ArialMT-49"/>
     <use x="55.615234" xlink:href="#ArialMT-48"/>
     <use x="111.230469" xlink:href="#ArialMT-46"/>
     <use x="139.013672" xlink:href="#ArialMT-54"/>
     <use x="194.628906" xlink:href="#ArialMT-37"/>
    </g>
   </g>
   <g id="text_46">
    <!-- locations with most deaths -->
    <g style="fill:#262626;" transform="translate(759.525185 21.8)scale(0.144 -0.144)">
     <use xlink:href="#ArialMT-108"/>
     <use x="22.216797" xlink:href="#ArialMT-111"/>
     <use x="77.832031" xlink:href="#ArialMT-99"/>
     <use x="127.832031" xlink:href="#ArialMT-97"/>
     <use x="183.447266" xlink:href="#ArialMT-116"/>
     <use x="211.230469" xlink:href="#ArialMT-105"/>
     <use x="233.447266" xlink:href="#ArialMT-111"/>
     <use x="289.0625" xlink:href="#ArialMT-110"/>
     <use x="344.677734" xlink:href="#ArialMT-115"/>
     <use x="394.677734" xlink:href="#ArialMT-32"/>
     <use x="422.460938" xlink:href="#ArialMT-119"/>
     <use x="494.677734" xlink:href="#ArialMT-105"/>
     <use x="516.894531" xlink:href="#ArialMT-116"/>
     <use x="544.677734" xlink:href="#ArialMT-104"/>
     <use x="600.292969" xlink:href="#ArialMT-32"/>
     <use x="628.076172" xlink:href="#ArialMT-109"/>
     <use x="711.376953" xlink:href="#ArialMT-111"/>
     <use x="766.992188" xlink:href="#ArialMT-115"/>
     <use x="816.992188" xlink:href="#ArialMT-116"/>
     <use x="844.775391" xlink:href="#ArialMT-32"/>
     <use x="872.558594" xlink:href="#ArialMT-100"/>
     <use x="928.173828" xlink:href="#ArialMT-101"/>
     <use x="983.789062" xlink:href="#ArialMT-97"/>
     <use x="1039.404297" xlink:href="#ArialMT-116"/>
     <use x="1067.1875" xlink:href="#ArialMT-104"/>
     <use x="1122.802734" xlink:href="#ArialMT-115"/>
    </g>
   </g>
  </g>
 </g>
 <defs>
  <clipPath id="p0bdf4ebe5c">
   <rect height="393.4" width="393.4" x="111.33794" y="27.8"/>
  </clipPath>
  <clipPath id="pe4c6d98047">
   <rect height="393.4" width="393.4" x="647.26206" y="27.8"/>
  </clipPath>
 </defs>
</svg>
