<?xml version="1.0" encoding="utf-8" standalone="no"?>
<!DOCTYPE svg PUBLIC "-//W3C//DTD SVG 1.1//EN"
  "http://www.w3.org/Graphics/SVG/1.1/DTD/svg11.dtd">
<!-- Created with matplotlib (https://matplotlib.org/) -->
<svg height="432pt" version="1.1" viewBox="0 0 1152 432" width="1152pt" xmlns="http://www.w3.org/2000/svg" xmlns:xlink="http://www.w3.org/1999/xlink">
 <defs>
  <style type="text/css">
*{stroke-linecap:butt;stroke-linejoin:round;}
  </style>
 </defs>
 <g id="figure_1">
  <g id="patch_1">
   <path d="M 0 432 
L 1152 432 
L 1152 0 
L 0 0 
z
" style="fill:#ffffff;"/>
  </g>
  <g id="axes_1">
   <g id="matplotlib.axis_1"/>
   <g id="matplotlib.axis_2"/>
   <g id="patch_2">
    <path d="M 464.309636 224.5 
C 464.309636 197.912147 457.571133 171.752979 444.725644 148.474076 
C 431.880156 125.195173 413.341906 105.547201 390.848259 91.371526 
C 368.354613 77.195851 342.630913 68.94959 316.087931 67.405566 
C 289.544949 65.861542 263.038606 71.069544 239.053019 82.541488 
L 306.949636 224.5 
L 464.309636 224.5 
z
" style="fill:#36464c;stroke:#ffffff;stroke-linejoin:miter;"/>
   </g>
   <g id="patch_3">
    <path d="M 239.053019 82.541488 
C 226.539434 88.526547 214.871975 96.140019 204.354297 105.183756 
C 193.836619 114.227493 184.560765 124.622352 176.768147 136.097797 
L 306.949636 224.5 
L 239.053019 82.541488 
z
" style="fill:#385965;stroke:#ffffff;stroke-linejoin:miter;"/>
   </g>
   <g id="patch_4">
    <path d="M 176.768147 136.097797 
C 169.619388 146.625093 163.773904 157.980769 159.359882 169.915806 
C 154.945861 181.850844 151.995804 194.277357 150.574404 206.922843 
L 306.949636 224.5 
L 176.768147 136.097797 
z
" style="fill:#3b6d80;stroke:#ffffff;stroke-linejoin:miter;"/>
   </g>
   <g id="patch_5">
    <path d="M 150.574404 206.922843 
C 149.369756 217.639996 149.270041 228.452654 150.276832 239.1902 
C 151.283622 249.927747 153.391595 260.533404 156.567488 270.839822 
L 306.949636 224.5 
L 150.574404 206.922843 
z
" style="fill:#3d8099;stroke:#ffffff;stroke-linejoin:miter;"/>
   </g>
   <g id="patch_6">
    <path d="M 156.567488 270.839822 
C 159.619525 280.744304 163.642606 290.323084 168.578081 299.436523 
C 173.513557 308.549962 179.337328 317.15356 185.964496 325.121894 
L 306.949636 224.5 
L 156.567488 270.839822 
z
" style="fill:#4093b2;stroke:#ffffff;stroke-linejoin:miter;"/>
   </g>
   <g id="patch_7">
    <path d="M 185.964496 325.121894 
C 191.294314 331.530328 197.124888 337.505174 203.401158 342.990009 
C 209.677428 348.474845 216.379577 353.452351 223.444314 357.875526 
L 306.949636 224.5 
L 185.964496 325.121894 
z
" style="fill:#43a6cc;stroke:#ffffff;stroke-linejoin:miter;"/>
   </g>
   <g id="patch_8">
    <path d="M 223.444314 357.875526 
C 228.576272 361.088602 233.889401 364.002805 239.357192 366.603593 
C 244.824984 369.204381 250.438328 371.487423 256.169219 373.441327 
L 306.949636 224.5 
L 223.444314 357.875526 
z
" style="fill:#56b0c9;stroke:#ffffff;stroke-linejoin:miter;"/>
   </g>
   <g id="patch_9">
    <path d="M 256.169219 373.441327 
C 261.80033 375.361212 267.535793 376.960204 273.347975 378.230602 
C 279.160158 379.501 285.039712 380.440759 290.958314 381.045352 
L 306.949636 224.5 
L 256.169219 373.441327 
z
" style="fill:#68bac6;stroke:#ffffff;stroke-linejoin:miter;"/>
   </g>
   <g id="patch_10">
    <path d="M 290.958314 381.045352 
C 296.77183 381.639211 302.613916 381.90877 308.457417 381.852776 
C 314.300919 381.796783 320.136767 381.415324 325.937836 380.710172 
L 306.949636 224.5 
L 290.958314 381.045352 
z
" style="fill:#7cc4c3;stroke:#ffffff;stroke-linejoin:miter;"/>
   </g>
   <g id="patch_11">
    <path d="M 325.937836 380.710172 
C 328.604616 380.38601 331.262659 379.993612 333.909349 379.533362 
C 336.556039 379.073113 339.19051 378.545164 341.81017 377.950033 
L 306.949636 224.5 
L 325.937836 380.710172 
z
" style="fill:#8fcec0;stroke:#ffffff;stroke-linejoin:miter;"/>
   </g>
   <g id="patch_12">
    <path d="M 347.959136 382.858765 
C 382.74156 374.956949 413.824728 355.45901 436.077912 327.583366 
C 458.331095 299.707722 470.458599 265.077437 470.458602 229.408743 
L 313.098602 229.408732 
L 347.959136 382.858765 
z
" style="fill:#a1d8bd;stroke:#ffffff;stroke-linejoin:miter;"/>
   </g>
   <g id="patch_13">
    <path clip-path="url(#pb5e9d1f94c)" d="M 306.949636 334.652 
C 336.162288 334.652 364.182398 323.04569 384.838862 302.389226 
C 405.495326 281.732762 417.101636 253.712652 417.101636 224.5 
C 417.101636 195.287348 405.495326 167.267238 384.838862 146.610774 
C 364.182398 125.95431 336.162288 114.348 306.949636 114.348 
C 277.736984 114.348 249.716874 125.95431 229.06041 146.610774 
C 208.403946 167.267238 196.797636 195.287348 196.797636 224.5 
C 196.797636 253.712652 208.403946 281.732762 229.06041 302.389226 
C 249.716874 323.04569 277.736984 334.652 306.949636 334.652 
z
" style="fill:#ffffff;stroke:#ffffff;stroke-linejoin:miter;"/>
   </g>
   <g id="patch_14">
    <path clip-path="url(#pb5e9d1f94c)" d="M 306.949636 334.652 
C 336.162288 334.652 364.182398 323.04569 384.838862 302.389226 
C 405.495326 281.732762 417.101636 253.712652 417.101636 224.5 
C 417.101636 195.287348 405.495326 167.267238 384.838862 146.610774 
C 364.182398 125.95431 336.162288 114.348 306.949636 114.348 
C 277.736984 114.348 249.716874 125.95431 229.06041 146.610774 
C 208.403946 167.267238 196.797636 195.287348 196.797636 224.5 
C 196.797636 253.712652 208.403946 281.732762 229.06041 302.389226 
C 249.716874 323.04569 277.736984 334.652 306.949636 334.652 
z
" style="fill:#ffffff;stroke:#ffffff;stroke-linejoin:miter;"/>
   </g>
   <g id="text_1">
    <!-- US -->
    <defs>
     <path d="M 54.6875 71.578125 
L 64.15625 71.578125 
L 64.15625 30.21875 
Q 64.15625 19.4375 61.71875 13.078125 
Q 59.28125 6.734375 52.90625 2.75 
Q 46.53125 -1.21875 36.1875 -1.21875 
Q 26.125 -1.21875 19.71875 2.25 
Q 13.328125 5.71875 10.59375 12.28125 
Q 7.859375 18.84375 7.859375 30.21875 
L 7.859375 71.578125 
L 17.328125 71.578125 
L 17.328125 30.28125 
Q 17.328125 20.953125 19.0625 16.53125 
Q 20.796875 12.109375 25.015625 9.71875 
Q 29.25 7.328125 35.359375 7.328125 
Q 45.796875 7.328125 50.234375 12.0625 
Q 54.6875 16.796875 54.6875 30.28125 
z
" id="ArialMT-85"/>
     <path d="M 4.5 23 
L 13.421875 23.78125 
Q 14.0625 18.40625 16.375 14.96875 
Q 18.703125 11.53125 23.578125 9.40625 
Q 28.46875 7.28125 34.578125 7.28125 
Q 39.984375 7.28125 44.140625 8.890625 
Q 48.296875 10.5 50.3125 13.296875 
Q 52.34375 16.109375 52.34375 19.4375 
Q 52.34375 22.796875 50.390625 25.3125 
Q 48.4375 27.828125 43.953125 29.546875 
Q 41.0625 30.671875 31.203125 33.03125 
Q 21.34375 35.40625 17.390625 37.5 
Q 12.25 40.1875 9.734375 44.15625 
Q 7.234375 48.140625 7.234375 53.078125 
Q 7.234375 58.5 10.296875 63.203125 
Q 13.375 67.921875 19.28125 70.359375 
Q 25.203125 72.796875 32.421875 72.796875 
Q 40.375 72.796875 46.453125 70.234375 
Q 52.546875 67.671875 55.8125 62.6875 
Q 59.078125 57.71875 59.328125 51.421875 
L 50.25 50.734375 
Q 49.515625 57.515625 45.28125 60.984375 
Q 41.0625 64.453125 32.8125 64.453125 
Q 24.21875 64.453125 20.28125 61.296875 
Q 16.359375 58.15625 16.359375 53.71875 
Q 16.359375 49.859375 19.140625 47.359375 
Q 21.875 44.875 33.421875 42.265625 
Q 44.96875 39.65625 49.265625 37.703125 
Q 55.515625 34.8125 58.484375 30.390625 
Q 61.46875 25.984375 61.46875 20.21875 
Q 61.46875 14.5 58.203125 9.4375 
Q 54.9375 4.390625 48.796875 1.578125 
Q 42.671875 -1.21875 35.015625 -1.21875 
Q 25.296875 -1.21875 18.71875 1.609375 
Q 12.15625 4.4375 8.421875 10.125 
Q 4.6875 15.828125 4.5 23 
z
" id="ArialMT-83"/>
    </defs>
    <g style="fill:#262626;" transform="translate(399.238122 81.160866)scale(0.12 -0.12)">
     <use xlink:href="#ArialMT-85"/>
     <use x="72.216797" xlink:href="#ArialMT-83"/>
    </g>
   </g>
   <g id="text_2">
    <!-- 32.1% -->
    <defs>
     <path d="M 4.203125 18.890625 
L 12.984375 20.0625 
Q 14.5 12.59375 18.140625 9.296875 
Q 21.78125 6 27 6 
Q 33.203125 6 37.46875 10.296875 
Q 41.75 14.59375 41.75 20.953125 
Q 41.75 27 37.796875 30.921875 
Q 33.84375 34.859375 27.734375 34.859375 
Q 25.25 34.859375 21.53125 33.890625 
L 22.515625 41.609375 
Q 23.390625 41.5 23.921875 41.5 
Q 29.546875 41.5 34.03125 44.421875 
Q 38.53125 47.359375 38.53125 53.46875 
Q 38.53125 58.296875 35.25 61.46875 
Q 31.984375 64.65625 26.8125 64.65625 
Q 21.6875 64.65625 18.265625 61.421875 
Q 14.84375 58.203125 13.875 51.765625 
L 5.078125 53.328125 
Q 6.6875 62.15625 12.390625 67.015625 
Q 18.109375 71.875 26.609375 71.875 
Q 32.46875 71.875 37.390625 69.359375 
Q 42.328125 66.84375 44.9375 62.5 
Q 47.5625 58.15625 47.5625 53.265625 
Q 47.5625 48.640625 45.0625 44.828125 
Q 42.578125 41.015625 37.703125 38.765625 
Q 44.046875 37.3125 47.5625 32.6875 
Q 51.078125 28.078125 51.078125 21.140625 
Q 51.078125 11.765625 44.234375 5.25 
Q 37.40625 -1.265625 26.953125 -1.265625 
Q 17.53125 -1.265625 11.296875 4.34375 
Q 5.078125 9.96875 4.203125 18.890625 
z
" id="ArialMT-51"/>
     <path d="M 50.34375 8.453125 
L 50.34375 0 
L 3.03125 0 
Q 2.9375 3.171875 4.046875 6.109375 
Q 5.859375 10.9375 9.828125 15.625 
Q 13.8125 20.3125 21.34375 26.46875 
Q 33.015625 36.03125 37.109375 41.625 
Q 41.21875 47.21875 41.21875 52.203125 
Q 41.21875 57.421875 37.46875 61 
Q 33.734375 64.59375 27.734375 64.59375 
Q 21.390625 64.59375 17.578125 60.78125 
Q 13.765625 56.984375 13.71875 50.25 
L 4.6875 51.171875 
Q 5.609375 61.28125 11.65625 66.578125 
Q 17.71875 71.875 27.9375 71.875 
Q 38.234375 71.875 44.234375 66.15625 
Q 50.25 60.453125 50.25 52 
Q 50.25 47.703125 48.484375 43.546875 
Q 46.734375 39.40625 42.65625 34.8125 
Q 38.578125 30.21875 29.109375 22.21875 
Q 21.1875 15.578125 18.9375 13.203125 
Q 16.703125 10.84375 15.234375 8.453125 
z
" id="ArialMT-50"/>
     <path d="M 9.078125 0 
L 9.078125 10.015625 
L 19.09375 10.015625 
L 19.09375 0 
z
" id="ArialMT-46"/>
     <path d="M 37.25 0 
L 28.46875 0 
L 28.46875 56 
Q 25.296875 52.984375 20.140625 49.953125 
Q 14.984375 46.921875 10.890625 45.40625 
L 10.890625 53.90625 
Q 18.265625 57.375 23.78125 62.296875 
Q 29.296875 67.234375 31.59375 71.875 
L 37.25 71.875 
z
" id="ArialMT-49"/>
     <path d="M 5.8125 54.390625 
Q 5.8125 62.0625 9.671875 67.421875 
Q 13.53125 72.796875 20.84375 72.796875 
Q 27.59375 72.796875 32 67.984375 
Q 36.421875 63.1875 36.421875 53.859375 
Q 36.421875 44.78125 31.953125 39.875 
Q 27.484375 34.96875 20.953125 34.96875 
Q 14.453125 34.96875 10.125 39.796875 
Q 5.8125 44.625 5.8125 54.390625 
z
M 21.09375 66.75 
Q 17.828125 66.75 15.65625 63.90625 
Q 13.484375 61.078125 13.484375 53.515625 
Q 13.484375 46.625 15.671875 43.8125 
Q 17.875 41.015625 21.09375 41.015625 
Q 24.421875 41.015625 26.59375 43.84375 
Q 28.765625 46.6875 28.765625 54.203125 
Q 28.765625 61.140625 26.5625 63.9375 
Q 24.359375 66.75 21.09375 66.75 
z
M 21.140625 -2.640625 
L 60.296875 72.796875 
L 67.4375 72.796875 
L 28.421875 -2.640625 
z
M 52.09375 16.796875 
Q 52.09375 24.515625 55.953125 29.859375 
Q 59.8125 35.203125 67.1875 35.203125 
Q 73.921875 35.203125 78.34375 30.390625 
Q 82.765625 25.59375 82.765625 16.265625 
Q 82.765625 7.171875 78.296875 2.265625 
Q 73.828125 -2.640625 67.234375 -2.640625 
Q 60.75 -2.640625 56.421875 2.21875 
Q 52.09375 7.078125 52.09375 16.796875 
z
M 67.4375 29.15625 
Q 64.109375 29.15625 61.9375 26.3125 
Q 59.765625 23.484375 59.765625 15.921875 
Q 59.765625 9.078125 61.953125 6.25 
Q 64.15625 3.421875 67.390625 3.421875 
Q 70.75 3.421875 72.921875 6.25 
Q 75.09375 9.078125 75.09375 16.609375 
Q 75.09375 23.53125 72.890625 26.34375 
Q 70.703125 29.15625 67.4375 29.15625 
z
" id="ArialMT-37"/>
    </defs>
    <g style="fill:#ffffff;" transform="translate(361.251591 114.442985)scale(0.12 -0.12)">
     <use xlink:href="#ArialMT-51"/>
     <use x="55.615234" xlink:href="#ArialMT-50"/>
     <use x="111.230469" xlink:href="#ArialMT-46"/>
     <use x="139.013672" xlink:href="#ArialMT-49"/>
     <use x="194.628906" xlink:href="#ArialMT-37"/>
    </g>
   </g>
   <g id="text_3">
    <!-- Spain -->
    <defs>
     <path d="M 6.59375 -19.875 
L 6.59375 51.859375 
L 14.59375 51.859375 
L 14.59375 45.125 
Q 17.4375 49.078125 21 51.046875 
Q 24.5625 53.03125 29.640625 53.03125 
Q 36.28125 53.03125 41.359375 49.609375 
Q 46.4375 46.1875 49.015625 39.953125 
Q 51.609375 33.734375 51.609375 26.3125 
Q 51.609375 18.359375 48.75 11.984375 
Q 45.90625 5.609375 40.453125 2.21875 
Q 35.015625 -1.171875 29 -1.171875 
Q 24.609375 -1.171875 21.109375 0.6875 
Q 17.625 2.546875 15.375 5.375 
L 15.375 -19.875 
z
M 14.546875 25.640625 
Q 14.546875 15.625 18.59375 10.84375 
Q 22.65625 6.0625 28.421875 6.0625 
Q 34.28125 6.0625 38.453125 11.015625 
Q 42.625 15.96875 42.625 26.375 
Q 42.625 36.28125 38.546875 41.203125 
Q 34.46875 46.140625 28.8125 46.140625 
Q 23.1875 46.140625 18.859375 40.890625 
Q 14.546875 35.640625 14.546875 25.640625 
z
" id="ArialMT-112"/>
     <path d="M 40.4375 6.390625 
Q 35.546875 2.25 31.03125 0.53125 
Q 26.515625 -1.171875 21.34375 -1.171875 
Q 12.796875 -1.171875 8.203125 3 
Q 3.609375 7.171875 3.609375 13.671875 
Q 3.609375 17.484375 5.34375 20.625 
Q 7.078125 23.78125 9.890625 25.6875 
Q 12.703125 27.59375 16.21875 28.5625 
Q 18.796875 29.25 24.03125 29.890625 
Q 34.671875 31.15625 39.703125 32.90625 
Q 39.75 34.71875 39.75 35.203125 
Q 39.75 40.578125 37.25 42.78125 
Q 33.890625 45.75 27.25 45.75 
Q 21.046875 45.75 18.09375 43.578125 
Q 15.140625 41.40625 13.71875 35.890625 
L 5.125 37.0625 
Q 6.296875 42.578125 8.984375 45.96875 
Q 11.671875 49.359375 16.75 51.1875 
Q 21.828125 53.03125 28.515625 53.03125 
Q 35.15625 53.03125 39.296875 51.46875 
Q 43.453125 49.90625 45.40625 47.53125 
Q 47.359375 45.171875 48.140625 41.546875 
Q 48.578125 39.3125 48.578125 33.453125 
L 48.578125 21.734375 
Q 48.578125 9.46875 49.140625 6.21875 
Q 49.703125 2.984375 51.375 0 
L 42.1875 0 
Q 40.828125 2.734375 40.4375 6.390625 
z
M 39.703125 26.03125 
Q 34.90625 24.078125 25.34375 22.703125 
Q 19.921875 21.921875 17.671875 20.9375 
Q 15.4375 19.96875 14.203125 18.09375 
Q 12.984375 16.21875 12.984375 13.921875 
Q 12.984375 10.40625 15.640625 8.0625 
Q 18.3125 5.71875 23.4375 5.71875 
Q 28.515625 5.71875 32.46875 7.9375 
Q 36.421875 10.15625 38.28125 14.015625 
Q 39.703125 17 39.703125 22.796875 
z
" id="ArialMT-97"/>
     <path d="M 6.640625 61.46875 
L 6.640625 71.578125 
L 15.4375 71.578125 
L 15.4375 61.46875 
z
M 6.640625 0 
L 6.640625 51.859375 
L 15.4375 51.859375 
L 15.4375 0 
z
" id="ArialMT-105"/>
     <path d="M 6.59375 0 
L 6.59375 51.859375 
L 14.5 51.859375 
L 14.5 44.484375 
Q 20.21875 53.03125 31 53.03125 
Q 35.6875 53.03125 39.625 51.34375 
Q 43.5625 49.65625 45.515625 46.921875 
Q 47.46875 44.1875 48.25 40.4375 
Q 48.734375 37.984375 48.734375 31.890625 
L 48.734375 0 
L 39.9375 0 
L 39.9375 31.546875 
Q 39.9375 36.921875 38.90625 39.578125 
Q 37.890625 42.234375 35.28125 43.8125 
Q 32.671875 45.40625 29.15625 45.40625 
Q 23.53125 45.40625 19.453125 41.84375 
Q 15.375 38.28125 15.375 28.328125 
L 15.375 0 
z
" id="ArialMT-110"/>
    </defs>
    <g style="fill:#262626;" transform="translate(163.404763 96.427444)scale(0.12 -0.12)">
     <use xlink:href="#ArialMT-83"/>
     <use x="66.699219" xlink:href="#ArialMT-112"/>
     <use x="122.314453" xlink:href="#ArialMT-97"/>
     <use x="177.929688" xlink:href="#ArialMT-105"/>
     <use x="200.146484" xlink:href="#ArialMT-110"/>
    </g>
   </g>
   <g id="text_4">
    <!-- 8.4% -->
    <defs>
     <path d="M 17.671875 38.8125 
Q 12.203125 40.828125 9.5625 44.53125 
Q 6.9375 48.25 6.9375 53.421875 
Q 6.9375 61.234375 12.546875 66.546875 
Q 18.171875 71.875 27.484375 71.875 
Q 36.859375 71.875 42.578125 66.421875 
Q 48.296875 60.984375 48.296875 53.171875 
Q 48.296875 48.1875 45.671875 44.5 
Q 43.0625 40.828125 37.75 38.8125 
Q 44.34375 36.671875 47.78125 31.875 
Q 51.21875 27.09375 51.21875 20.453125 
Q 51.21875 11.28125 44.71875 5.03125 
Q 38.234375 -1.21875 27.640625 -1.21875 
Q 17.046875 -1.21875 10.546875 5.046875 
Q 4.046875 11.328125 4.046875 20.703125 
Q 4.046875 27.6875 7.59375 32.390625 
Q 11.140625 37.109375 17.671875 38.8125 
z
M 15.921875 53.71875 
Q 15.921875 48.640625 19.1875 45.40625 
Q 22.46875 42.1875 27.6875 42.1875 
Q 32.765625 42.1875 36.015625 45.375 
Q 39.265625 48.578125 39.265625 53.21875 
Q 39.265625 58.0625 35.90625 61.359375 
Q 32.5625 64.65625 27.59375 64.65625 
Q 22.5625 64.65625 19.234375 61.421875 
Q 15.921875 58.203125 15.921875 53.71875 
z
M 13.09375 20.65625 
Q 13.09375 16.890625 14.875 13.375 
Q 16.65625 9.859375 20.171875 7.921875 
Q 23.6875 6 27.734375 6 
Q 34.03125 6 38.125 10.046875 
Q 42.234375 14.109375 42.234375 20.359375 
Q 42.234375 26.703125 38.015625 30.859375 
Q 33.796875 35.015625 27.4375 35.015625 
Q 21.234375 35.015625 17.15625 30.90625 
Q 13.09375 26.8125 13.09375 20.65625 
z
" id="ArialMT-56"/>
     <path d="M 32.328125 0 
L 32.328125 17.140625 
L 1.265625 17.140625 
L 1.265625 25.203125 
L 33.9375 71.578125 
L 41.109375 71.578125 
L 41.109375 25.203125 
L 50.78125 25.203125 
L 50.78125 17.140625 
L 41.109375 17.140625 
L 41.109375 0 
z
M 32.328125 25.203125 
L 32.328125 57.46875 
L 9.90625 25.203125 
z
" id="ArialMT-52"/>
    </defs>
    <g style="fill:#ffffff;" transform="translate(206.068285 126.18338)scale(0.12 -0.12)">
     <use xlink:href="#ArialMT-56"/>
     <use x="55.615234" xlink:href="#ArialMT-46"/>
     <use x="83.398438" xlink:href="#ArialMT-52"/>
     <use x="139.013672" xlink:href="#ArialMT-37"/>
    </g>
   </g>
   <g id="text_5">
    <!-- Italy -->
    <defs>
     <path d="M 9.328125 0 
L 9.328125 71.578125 
L 18.796875 71.578125 
L 18.796875 0 
z
" id="ArialMT-73"/>
     <path d="M 25.78125 7.859375 
L 27.046875 0.09375 
Q 23.34375 -0.6875 20.40625 -0.6875 
Q 15.625 -0.6875 12.984375 0.828125 
Q 10.359375 2.34375 9.28125 4.8125 
Q 8.203125 7.28125 8.203125 15.1875 
L 8.203125 45.015625 
L 1.765625 45.015625 
L 1.765625 51.859375 
L 8.203125 51.859375 
L 8.203125 64.703125 
L 16.9375 69.96875 
L 16.9375 51.859375 
L 25.78125 51.859375 
L 25.78125 45.015625 
L 16.9375 45.015625 
L 16.9375 14.703125 
Q 16.9375 10.9375 17.40625 9.859375 
Q 17.875 8.796875 18.921875 8.15625 
Q 19.96875 7.515625 21.921875 7.515625 
Q 23.390625 7.515625 25.78125 7.859375 
z
" id="ArialMT-116"/>
     <path d="M 6.390625 0 
L 6.390625 71.578125 
L 15.1875 71.578125 
L 15.1875 0 
z
" id="ArialMT-108"/>
     <path d="M 6.203125 -19.96875 
L 5.21875 -11.71875 
Q 8.109375 -12.5 10.25 -12.5 
Q 13.1875 -12.5 14.9375 -11.515625 
Q 16.703125 -10.546875 17.828125 -8.796875 
Q 18.65625 -7.46875 20.515625 -2.25 
Q 20.75 -1.515625 21.296875 -0.09375 
L 1.609375 51.859375 
L 11.078125 51.859375 
L 21.875 21.828125 
Q 23.96875 16.109375 25.640625 9.8125 
Q 27.15625 15.875 29.25 21.625 
L 40.328125 51.859375 
L 49.125 51.859375 
L 29.390625 -0.875 
Q 26.21875 -9.421875 24.46875 -12.640625 
Q 22.125 -17 19.09375 -19.015625 
Q 16.0625 -21.046875 11.859375 -21.046875 
Q 9.328125 -21.046875 6.203125 -19.96875 
z
" id="ArialMT-121"/>
    </defs>
    <g style="fill:#262626;" transform="translate(122.594032 167.489262)scale(0.12 -0.12)">
     <use xlink:href="#ArialMT-73"/>
     <use x="27.783203" xlink:href="#ArialMT-116"/>
     <use x="55.566406" xlink:href="#ArialMT-97"/>
     <use x="111.181641" xlink:href="#ArialMT-108"/>
     <use x="133.398438" xlink:href="#ArialMT-121"/>
    </g>
   </g>
   <g id="text_6">
    <!-- 7.7% -->
    <defs>
     <path d="M 4.734375 62.203125 
L 4.734375 70.65625 
L 51.078125 70.65625 
L 51.078125 63.8125 
Q 44.234375 56.546875 37.515625 44.484375 
Q 30.8125 32.421875 27.15625 19.671875 
Q 24.515625 10.6875 23.78125 0 
L 14.75 0 
Q 14.890625 8.453125 18.0625 20.40625 
Q 21.234375 32.375 27.171875 43.484375 
Q 33.109375 54.59375 39.796875 62.203125 
z
" id="ArialMT-55"/>
    </defs>
    <g style="fill:#ffffff;" transform="translate(167.823033 181.205623)scale(0.12 -0.12)">
     <use xlink:href="#ArialMT-55"/>
     <use x="55.615234" xlink:href="#ArialMT-46"/>
     <use x="83.398438" xlink:href="#ArialMT-55"/>
     <use x="139.013672" xlink:href="#ArialMT-37"/>
    </g>
   </g>
   <g id="text_7">
    <!-- France -->
    <defs>
     <path d="M 8.203125 0 
L 8.203125 71.578125 
L 56.5 71.578125 
L 56.5 63.140625 
L 17.671875 63.140625 
L 17.671875 40.96875 
L 51.265625 40.96875 
L 51.265625 32.515625 
L 17.671875 32.515625 
L 17.671875 0 
z
" id="ArialMT-70"/>
     <path d="M 6.5 0 
L 6.5 51.859375 
L 14.40625 51.859375 
L 14.40625 44 
Q 17.4375 49.515625 20 51.265625 
Q 22.5625 53.03125 25.640625 53.03125 
Q 30.078125 53.03125 34.671875 50.203125 
L 31.640625 42.046875 
Q 28.421875 43.953125 25.203125 43.953125 
Q 22.3125 43.953125 20.015625 42.21875 
Q 17.71875 40.484375 16.75 37.40625 
Q 15.28125 32.71875 15.28125 27.15625 
L 15.28125 0 
z
" id="ArialMT-114"/>
     <path d="M 40.4375 19 
L 49.078125 17.875 
Q 47.65625 8.9375 41.8125 3.875 
Q 35.984375 -1.171875 27.484375 -1.171875 
Q 16.84375 -1.171875 10.375 5.78125 
Q 3.90625 12.75 3.90625 25.734375 
Q 3.90625 34.125 6.6875 40.421875 
Q 9.46875 46.734375 15.15625 49.875 
Q 20.84375 53.03125 27.546875 53.03125 
Q 35.984375 53.03125 41.359375 48.75 
Q 46.734375 44.484375 48.25 36.625 
L 39.703125 35.296875 
Q 38.484375 40.53125 35.375 43.15625 
Q 32.28125 45.796875 27.875 45.796875 
Q 21.234375 45.796875 17.078125 41.03125 
Q 12.9375 36.28125 12.9375 25.984375 
Q 12.9375 15.53125 16.9375 10.796875 
Q 20.953125 6.0625 27.390625 6.0625 
Q 32.5625 6.0625 36.03125 9.234375 
Q 39.5 12.40625 40.4375 19 
z
" id="ArialMT-99"/>
     <path d="M 42.09375 16.703125 
L 51.171875 15.578125 
Q 49.03125 7.625 43.21875 3.21875 
Q 37.40625 -1.171875 28.375 -1.171875 
Q 17 -1.171875 10.328125 5.828125 
Q 3.65625 12.84375 3.65625 25.484375 
Q 3.65625 38.578125 10.390625 45.796875 
Q 17.140625 53.03125 27.875 53.03125 
Q 38.28125 53.03125 44.875 45.953125 
Q 51.46875 38.875 51.46875 26.03125 
Q 51.46875 25.25 51.421875 23.6875 
L 12.75 23.6875 
Q 13.234375 15.140625 17.578125 10.59375 
Q 21.921875 6.0625 28.421875 6.0625 
Q 33.25 6.0625 36.671875 8.59375 
Q 40.09375 11.140625 42.09375 16.703125 
z
M 13.234375 30.90625 
L 42.1875 30.90625 
Q 41.609375 37.453125 38.875 40.71875 
Q 34.671875 45.796875 27.984375 45.796875 
Q 21.921875 45.796875 17.796875 41.75 
Q 13.671875 37.703125 13.234375 30.90625 
z
" id="ArialMT-101"/>
    </defs>
    <g style="fill:#262626;" transform="translate(97.265176 243.761408)scale(0.12 -0.12)">
     <use xlink:href="#ArialMT-70"/>
     <use x="61.083984" xlink:href="#ArialMT-114"/>
     <use x="94.384766" xlink:href="#ArialMT-97"/>
     <use x="150" xlink:href="#ArialMT-110"/>
     <use x="205.615234" xlink:href="#ArialMT-99"/>
     <use x="255.615234" xlink:href="#ArialMT-101"/>
    </g>
   </g>
   <g id="text_8">
    <!-- 6.5% -->
    <defs>
     <path d="M 49.75 54.046875 
L 41.015625 53.375 
Q 39.84375 58.546875 37.703125 60.890625 
Q 34.125 64.65625 28.90625 64.65625 
Q 24.703125 64.65625 21.53125 62.3125 
Q 17.390625 59.28125 14.984375 53.46875 
Q 12.59375 47.65625 12.5 36.921875 
Q 15.671875 41.75 20.265625 44.09375 
Q 24.859375 46.4375 29.890625 46.4375 
Q 38.671875 46.4375 44.84375 39.96875 
Q 51.03125 33.5 51.03125 23.25 
Q 51.03125 16.5 48.125 10.71875 
Q 45.21875 4.9375 40.140625 1.859375 
Q 35.0625 -1.21875 28.609375 -1.21875 
Q 17.625 -1.21875 10.6875 6.859375 
Q 3.765625 14.9375 3.765625 33.5 
Q 3.765625 54.25 11.421875 63.671875 
Q 18.109375 71.875 29.4375 71.875 
Q 37.890625 71.875 43.28125 67.140625 
Q 48.6875 62.40625 49.75 54.046875 
z
M 13.875 23.1875 
Q 13.875 18.65625 15.796875 14.5 
Q 17.71875 10.359375 21.1875 8.171875 
Q 24.65625 6 28.46875 6 
Q 34.03125 6 38.03125 10.484375 
Q 42.046875 14.984375 42.046875 22.703125 
Q 42.046875 30.125 38.078125 34.390625 
Q 34.125 38.671875 28.125 38.671875 
Q 22.171875 38.671875 18.015625 34.390625 
Q 13.875 30.125 13.875 23.1875 
z
" id="ArialMT-54"/>
     <path d="M 4.15625 18.75 
L 13.375 19.53125 
Q 14.40625 12.796875 18.140625 9.390625 
Q 21.875 6 27.15625 6 
Q 33.5 6 37.890625 10.78125 
Q 42.28125 15.578125 42.28125 23.484375 
Q 42.28125 31 38.0625 35.34375 
Q 33.84375 39.703125 27 39.703125 
Q 22.75 39.703125 19.328125 37.765625 
Q 15.921875 35.84375 13.96875 32.765625 
L 5.71875 33.84375 
L 12.640625 70.609375 
L 48.25 70.609375 
L 48.25 62.203125 
L 19.671875 62.203125 
L 15.828125 42.96875 
Q 22.265625 47.46875 29.34375 47.46875 
Q 38.71875 47.46875 45.15625 40.96875 
Q 51.609375 34.46875 51.609375 24.265625 
Q 51.609375 14.546875 45.953125 7.46875 
Q 39.0625 -1.21875 27.15625 -1.21875 
Q 17.390625 -1.21875 11.203125 4.25 
Q 5.03125 9.71875 4.15625 18.75 
z
" id="ArialMT-53"/>
    </defs>
    <g style="fill:#ffffff;" transform="translate(160.10244 240.088858)scale(0.12 -0.12)">
     <use xlink:href="#ArialMT-54"/>
     <use x="55.615234" xlink:href="#ArialMT-46"/>
     <use x="83.398438" xlink:href="#ArialMT-53"/>
     <use x="139.013672" xlink:href="#ArialMT-37"/>
    </g>
   </g>
   <g id="text_9">
    <!-- Germany -->
    <defs>
     <path d="M 41.21875 28.078125 
L 41.21875 36.46875 
L 71.53125 36.53125 
L 71.53125 9.96875 
Q 64.546875 4.390625 57.125 1.578125 
Q 49.703125 -1.21875 41.890625 -1.21875 
Q 31.34375 -1.21875 22.71875 3.296875 
Q 14.109375 7.8125 9.71875 16.359375 
Q 5.328125 24.90625 5.328125 35.453125 
Q 5.328125 45.90625 9.6875 54.953125 
Q 14.0625 64.015625 22.265625 68.40625 
Q 30.46875 72.796875 41.15625 72.796875 
Q 48.921875 72.796875 55.1875 70.28125 
Q 61.46875 67.78125 65.03125 63.28125 
Q 68.609375 58.796875 70.453125 51.5625 
L 61.921875 49.21875 
Q 60.296875 54.6875 57.90625 57.8125 
Q 55.515625 60.9375 51.0625 62.8125 
Q 46.625 64.703125 41.21875 64.703125 
Q 34.71875 64.703125 29.984375 62.71875 
Q 25.25 60.75 22.34375 57.515625 
Q 19.4375 54.296875 17.828125 50.4375 
Q 15.09375 43.796875 15.09375 36.03125 
Q 15.09375 26.46875 18.390625 20.015625 
Q 21.6875 13.578125 27.984375 10.453125 
Q 34.28125 7.328125 41.359375 7.328125 
Q 47.515625 7.328125 53.375 9.6875 
Q 59.234375 12.0625 62.25 14.75 
L 62.25 28.078125 
z
" id="ArialMT-71"/>
     <path d="M 6.59375 0 
L 6.59375 51.859375 
L 14.453125 51.859375 
L 14.453125 44.578125 
Q 16.890625 48.390625 20.9375 50.703125 
Q 25 53.03125 30.171875 53.03125 
Q 35.9375 53.03125 39.625 50.640625 
Q 43.3125 48.25 44.828125 43.953125 
Q 50.984375 53.03125 60.84375 53.03125 
Q 68.5625 53.03125 72.703125 48.75 
Q 76.859375 44.484375 76.859375 35.59375 
L 76.859375 0 
L 68.109375 0 
L 68.109375 32.671875 
Q 68.109375 37.9375 67.25 40.25 
Q 66.40625 42.578125 64.15625 43.984375 
Q 61.921875 45.40625 58.890625 45.40625 
Q 53.421875 45.40625 49.796875 41.765625 
Q 46.1875 38.140625 46.1875 30.125 
L 46.1875 0 
L 37.40625 0 
L 37.40625 33.6875 
Q 37.40625 39.546875 35.25 42.46875 
Q 33.109375 45.40625 28.21875 45.40625 
Q 24.515625 45.40625 21.359375 43.453125 
Q 18.21875 41.5 16.796875 37.734375 
Q 15.375 33.984375 15.375 26.90625 
L 15.375 0 
z
" id="ArialMT-109"/>
    </defs>
    <g style="fill:#262626;" transform="translate(105.396551 310.035175)scale(0.12 -0.12)">
     <use xlink:href="#ArialMT-71"/>
     <use x="77.783203" xlink:href="#ArialMT-101"/>
     <use x="133.398438" xlink:href="#ArialMT-114"/>
     <use x="166.699219" xlink:href="#ArialMT-109"/>
     <use x="250" xlink:href="#ArialMT-97"/>
     <use x="305.615234" xlink:href="#ArialMT-110"/>
     <use x="361.230469" xlink:href="#ArialMT-121"/>
    </g>
   </g>
   <g id="text_10">
    <!-- 6.3% -->
    <g style="fill:#ffffff;" transform="translate(175.658502 291.298232)scale(0.12 -0.12)">
     <use xlink:href="#ArialMT-54"/>
     <use x="55.615234" xlink:href="#ArialMT-46"/>
     <use x="83.398438" xlink:href="#ArialMT-51"/>
     <use x="139.013672" xlink:href="#ArialMT-37"/>
    </g>
   </g>
   <g id="text_11">
    <!-- United Kingdom -->
    <defs>
     <path d="M 40.234375 0 
L 40.234375 6.546875 
Q 35.296875 -1.171875 25.734375 -1.171875 
Q 19.53125 -1.171875 14.328125 2.25 
Q 9.125 5.671875 6.265625 11.796875 
Q 3.421875 17.921875 3.421875 25.875 
Q 3.421875 33.640625 6 39.96875 
Q 8.59375 46.296875 13.765625 49.65625 
Q 18.953125 53.03125 25.34375 53.03125 
Q 30.03125 53.03125 33.6875 51.046875 
Q 37.359375 49.078125 39.65625 45.90625 
L 39.65625 71.578125 
L 48.390625 71.578125 
L 48.390625 0 
z
M 12.453125 25.875 
Q 12.453125 15.921875 16.640625 10.984375 
Q 20.84375 6.0625 26.5625 6.0625 
Q 32.328125 6.0625 36.34375 10.765625 
Q 40.375 15.484375 40.375 25.140625 
Q 40.375 35.796875 36.265625 40.765625 
Q 32.171875 45.75 26.171875 45.75 
Q 20.3125 45.75 16.375 40.96875 
Q 12.453125 36.1875 12.453125 25.875 
z
" id="ArialMT-100"/>
     <path id="ArialMT-32"/>
     <path d="M 7.328125 0 
L 7.328125 71.578125 
L 16.796875 71.578125 
L 16.796875 36.078125 
L 52.34375 71.578125 
L 65.1875 71.578125 
L 35.15625 42.578125 
L 66.5 0 
L 54 0 
L 28.515625 36.234375 
L 16.796875 24.8125 
L 16.796875 0 
z
" id="ArialMT-75"/>
     <path d="M 4.984375 -4.296875 
L 13.53125 -5.5625 
Q 14.0625 -9.515625 16.5 -11.328125 
Q 19.78125 -13.765625 25.4375 -13.765625 
Q 31.546875 -13.765625 34.859375 -11.328125 
Q 38.1875 -8.890625 39.359375 -4.5 
Q 40.046875 -1.8125 39.984375 6.78125 
Q 34.234375 0 25.640625 0 
Q 14.9375 0 9.078125 7.71875 
Q 3.21875 15.4375 3.21875 26.21875 
Q 3.21875 33.640625 5.90625 39.90625 
Q 8.59375 46.1875 13.6875 49.609375 
Q 18.796875 53.03125 25.6875 53.03125 
Q 34.859375 53.03125 40.828125 45.609375 
L 40.828125 51.859375 
L 48.921875 51.859375 
L 48.921875 7.03125 
Q 48.921875 -5.078125 46.453125 -10.125 
Q 44 -15.1875 38.640625 -18.109375 
Q 33.296875 -21.046875 25.484375 -21.046875 
Q 16.21875 -21.046875 10.5 -16.875 
Q 4.78125 -12.703125 4.984375 -4.296875 
z
M 12.25 26.859375 
Q 12.25 16.65625 16.296875 11.96875 
Q 20.359375 7.28125 26.46875 7.28125 
Q 32.515625 7.28125 36.609375 11.9375 
Q 40.71875 16.609375 40.71875 26.5625 
Q 40.71875 36.078125 36.5 40.90625 
Q 32.28125 45.75 26.3125 45.75 
Q 20.453125 45.75 16.34375 40.984375 
Q 12.25 36.234375 12.25 26.859375 
z
" id="ArialMT-103"/>
     <path d="M 3.328125 25.921875 
Q 3.328125 40.328125 11.328125 47.265625 
Q 18.015625 53.03125 27.640625 53.03125 
Q 38.328125 53.03125 45.109375 46.015625 
Q 51.90625 39.015625 51.90625 26.65625 
Q 51.90625 16.65625 48.90625 10.90625 
Q 45.90625 5.171875 40.15625 2 
Q 34.421875 -1.171875 27.640625 -1.171875 
Q 16.75 -1.171875 10.03125 5.8125 
Q 3.328125 12.796875 3.328125 25.921875 
z
M 12.359375 25.921875 
Q 12.359375 15.96875 16.703125 11.015625 
Q 21.046875 6.0625 27.640625 6.0625 
Q 34.1875 6.0625 38.53125 11.03125 
Q 42.875 16.015625 42.875 26.21875 
Q 42.875 35.84375 38.5 40.796875 
Q 34.125 45.75 27.640625 45.75 
Q 21.046875 45.75 16.703125 40.8125 
Q 12.359375 35.890625 12.359375 25.921875 
z
" id="ArialMT-111"/>
    </defs>
    <g style="fill:#262626;" transform="translate(107.668185 357.870885)scale(0.12 -0.12)">
     <use xlink:href="#ArialMT-85"/>
     <use x="72.216797" xlink:href="#ArialMT-110"/>
     <use x="127.832031" xlink:href="#ArialMT-105"/>
     <use x="150.048828" xlink:href="#ArialMT-116"/>
     <use x="177.832031" xlink:href="#ArialMT-101"/>
     <use x="233.447266" xlink:href="#ArialMT-100"/>
     <use x="289.0625" xlink:href="#ArialMT-32"/>
     <use x="316.845703" xlink:href="#ArialMT-75"/>
     <use x="383.544922" xlink:href="#ArialMT-105"/>
     <use x="405.761719" xlink:href="#ArialMT-110"/>
     <use x="461.376953" xlink:href="#ArialMT-103"/>
     <use x="516.992188" xlink:href="#ArialMT-100"/>
     <use x="572.607422" xlink:href="#ArialMT-111"/>
     <use x="628.222656" xlink:href="#ArialMT-109"/>
    </g>
   </g>
   <g id="text_12">
    <!-- 5.1% -->
    <g style="fill:#ffffff;" transform="translate(205.258117 328.318695)scale(0.12 -0.12)">
     <use xlink:href="#ArialMT-53"/>
     <use x="55.615234" xlink:href="#ArialMT-46"/>
     <use x="83.398438" xlink:href="#ArialMT-49"/>
     <use x="139.013672" xlink:href="#ArialMT-37"/>
    </g>
   </g>
   <g id="text_13">
    <!-- China -->
    <defs>
     <path d="M 58.796875 25.09375 
L 68.265625 22.703125 
Q 65.28125 11.03125 57.546875 4.90625 
Q 49.8125 -1.21875 38.625 -1.21875 
Q 27.046875 -1.21875 19.796875 3.484375 
Q 12.546875 8.203125 8.765625 17.140625 
Q 4.984375 26.078125 4.984375 36.328125 
Q 4.984375 47.515625 9.25 55.828125 
Q 13.53125 64.15625 21.40625 68.46875 
Q 29.296875 72.796875 38.765625 72.796875 
Q 49.515625 72.796875 56.828125 67.328125 
Q 64.15625 61.859375 67.046875 51.953125 
L 57.71875 49.75 
Q 55.21875 57.5625 50.484375 61.125 
Q 45.75 64.703125 38.578125 64.703125 
Q 30.328125 64.703125 24.78125 60.734375 
Q 19.234375 56.78125 16.984375 50.109375 
Q 14.75 43.453125 14.75 36.375 
Q 14.75 27.25 17.40625 20.4375 
Q 20.0625 13.625 25.671875 10.25 
Q 31.296875 6.890625 37.84375 6.890625 
Q 45.796875 6.890625 51.3125 11.46875 
Q 56.84375 16.0625 58.796875 25.09375 
z
" id="ArialMT-67"/>
     <path d="M 6.59375 0 
L 6.59375 71.578125 
L 15.375 71.578125 
L 15.375 45.90625 
Q 21.53125 53.03125 30.90625 53.03125 
Q 36.671875 53.03125 40.921875 50.75 
Q 45.171875 48.484375 47 44.484375 
Q 48.828125 40.484375 48.828125 32.859375 
L 48.828125 0 
L 40.046875 0 
L 40.046875 32.859375 
Q 40.046875 39.453125 37.1875 42.453125 
Q 34.328125 45.453125 29.109375 45.453125 
Q 25.203125 45.453125 21.75 43.421875 
Q 18.3125 41.40625 16.84375 37.9375 
Q 15.375 34.46875 15.375 28.375 
L 15.375 0 
z
" id="ArialMT-104"/>
    </defs>
    <g style="fill:#262626;" transform="translate(201.246073 383.91614)scale(0.12 -0.12)">
     <use xlink:href="#ArialMT-67"/>
     <use x="72.216797" xlink:href="#ArialMT-104"/>
     <use x="127.832031" xlink:href="#ArialMT-105"/>
     <use x="150.048828" xlink:href="#ArialMT-110"/>
     <use x="205.664062" xlink:href="#ArialMT-97"/>
    </g>
   </g>
   <g id="text_14">
    <!-- 3.7% -->
    <g style="fill:#ffffff;" transform="translate(235.820746 348.390242)scale(0.12 -0.12)">
     <use xlink:href="#ArialMT-51"/>
     <use x="55.615234" xlink:href="#ArialMT-46"/>
     <use x="83.398438" xlink:href="#ArialMT-55"/>
     <use x="139.013672" xlink:href="#ArialMT-37"/>
    </g>
   </g>
   <g id="text_15">
    <!-- Turkey -->
    <defs>
     <path d="M 25.921875 0 
L 25.921875 63.140625 
L 2.34375 63.140625 
L 2.34375 71.578125 
L 59.078125 71.578125 
L 59.078125 63.140625 
L 35.40625 63.140625 
L 35.40625 0 
z
" id="ArialMT-84"/>
     <path d="M 40.578125 0 
L 40.578125 7.625 
Q 34.515625 -1.171875 24.125 -1.171875 
Q 19.53125 -1.171875 15.546875 0.578125 
Q 11.578125 2.34375 9.640625 5 
Q 7.71875 7.671875 6.9375 11.53125 
Q 6.390625 14.109375 6.390625 19.734375 
L 6.390625 51.859375 
L 15.1875 51.859375 
L 15.1875 23.09375 
Q 15.1875 16.21875 15.71875 13.8125 
Q 16.546875 10.359375 19.234375 8.375 
Q 21.921875 6.390625 25.875 6.390625 
Q 29.828125 6.390625 33.296875 8.421875 
Q 36.765625 10.453125 38.203125 13.9375 
Q 39.65625 17.4375 39.65625 24.078125 
L 39.65625 51.859375 
L 48.4375 51.859375 
L 48.4375 0 
z
" id="ArialMT-117"/>
     <path d="M 6.640625 0 
L 6.640625 71.578125 
L 15.4375 71.578125 
L 15.4375 30.765625 
L 36.234375 51.859375 
L 47.609375 51.859375 
L 27.78125 32.625 
L 49.609375 0 
L 38.765625 0 
L 21.625 26.515625 
L 15.4375 20.5625 
L 15.4375 0 
z
" id="ArialMT-107"/>
    </defs>
    <g style="fill:#262626;" transform="translate(233.322184 396.635537)scale(0.12 -0.12)">
     <use xlink:href="#ArialMT-84"/>
     <use x="61.037109" xlink:href="#ArialMT-117"/>
     <use x="116.652344" xlink:href="#ArialMT-114"/>
     <use x="149.953125" xlink:href="#ArialMT-107"/>
     <use x="199.953125" xlink:href="#ArialMT-101"/>
     <use x="255.568359" xlink:href="#ArialMT-121"/>
    </g>
   </g>
   <g id="text_16">
    <!-- 3.6% -->
    <g style="fill:#ffffff;" transform="translate(264.712912 358.273199)scale(0.12 -0.12)">
     <use xlink:href="#ArialMT-51"/>
     <use x="55.615234" xlink:href="#ArialMT-46"/>
     <use x="83.398438" xlink:href="#ArialMT-54"/>
     <use x="139.013672" xlink:href="#ArialMT-37"/>
    </g>
   </g>
   <g id="text_17">
    <!-- Iran -->
    <g style="fill:#262626;" transform="translate(308.608196 400.690241)scale(0.12 -0.12)">
     <use xlink:href="#ArialMT-73"/>
     <use x="27.783203" xlink:href="#ArialMT-114"/>
     <use x="61.083984" xlink:href="#ArialMT-97"/>
     <use x="116.699219" xlink:href="#ArialMT-110"/>
    </g>
   </g>
   <g id="text_18">
    <!-- 3.5% -->
    <g style="fill:#ffffff;" transform="translate(294.555938 361.352047)scale(0.12 -0.12)">
     <use xlink:href="#ArialMT-51"/>
     <use x="55.615234" xlink:href="#ArialMT-46"/>
     <use x="83.398438" xlink:href="#ArialMT-53"/>
     <use x="139.013672" xlink:href="#ArialMT-37"/>
    </g>
   </g>
   <g id="text_19">
    <!-- Belgium -->
    <defs>
     <path d="M 7.328125 0 
L 7.328125 71.578125 
L 34.1875 71.578125 
Q 42.390625 71.578125 47.34375 69.40625 
Q 52.296875 67.234375 55.09375 62.71875 
Q 57.90625 58.203125 57.90625 53.265625 
Q 57.90625 48.6875 55.421875 44.625 
Q 52.9375 40.578125 47.90625 38.09375 
Q 54.390625 36.1875 57.875 31.59375 
Q 61.375 27 61.375 20.75 
Q 61.375 15.71875 59.25 11.390625 
Q 57.125 7.078125 54 4.734375 
Q 50.875 2.390625 46.15625 1.1875 
Q 41.453125 0 34.625 0 
z
M 16.796875 41.5 
L 32.28125 41.5 
Q 38.578125 41.5 41.3125 42.328125 
Q 44.921875 43.40625 46.75 45.890625 
Q 48.578125 48.390625 48.578125 52.15625 
Q 48.578125 55.71875 46.875 58.421875 
Q 45.171875 61.140625 41.984375 62.140625 
Q 38.8125 63.140625 31.109375 63.140625 
L 16.796875 63.140625 
z
M 16.796875 8.453125 
L 34.625 8.453125 
Q 39.203125 8.453125 41.0625 8.796875 
Q 44.34375 9.375 46.53125 10.734375 
Q 48.734375 12.109375 50.140625 14.71875 
Q 51.5625 17.328125 51.5625 20.75 
Q 51.5625 24.75 49.515625 27.703125 
Q 47.46875 30.671875 43.828125 31.859375 
Q 40.1875 33.0625 33.34375 33.0625 
L 16.796875 33.0625 
z
" id="ArialMT-66"/>
    </defs>
    <g style="fill:#262626;" transform="translate(336.60532 398.068574)scale(0.12 -0.12)">
     <use xlink:href="#ArialMT-66"/>
     <use x="66.699219" xlink:href="#ArialMT-101"/>
     <use x="122.314453" xlink:href="#ArialMT-108"/>
     <use x="144.53125" xlink:href="#ArialMT-103"/>
     <use x="200.146484" xlink:href="#ArialMT-105"/>
     <use x="222.363281" xlink:href="#ArialMT-117"/>
     <use x="277.978516" xlink:href="#ArialMT-109"/>
    </g>
   </g>
   <g id="text_20">
    <!-- 1.6% -->
    <g style="fill:#ffffff;" transform="translate(316.19008 359.380546)scale(0.12 -0.12)">
     <use xlink:href="#ArialMT-49"/>
     <use x="55.615234" xlink:href="#ArialMT-46"/>
     <use x="83.398438" xlink:href="#ArialMT-54"/>
     <use x="139.013672" xlink:href="#ArialMT-37"/>
    </g>
   </g>
   <g id="text_21">
    <!-- The Rest -->
    <defs>
     <path d="M 7.859375 0 
L 7.859375 71.578125 
L 39.59375 71.578125 
Q 49.171875 71.578125 54.140625 69.640625 
Q 59.125 67.71875 62.109375 62.828125 
Q 65.09375 57.953125 65.09375 52.046875 
Q 65.09375 44.4375 60.15625 39.203125 
Q 55.21875 33.984375 44.921875 32.5625 
Q 48.6875 30.765625 50.640625 29 
Q 54.78125 25.203125 58.5 19.484375 
L 70.953125 0 
L 59.03125 0 
L 49.5625 14.890625 
Q 45.40625 21.34375 42.71875 24.75 
Q 40.046875 28.171875 37.921875 29.53125 
Q 35.796875 30.90625 33.59375 31.453125 
Q 31.984375 31.78125 28.328125 31.78125 
L 17.328125 31.78125 
L 17.328125 0 
z
M 17.328125 39.984375 
L 37.703125 39.984375 
Q 44.1875 39.984375 47.84375 41.328125 
Q 51.515625 42.671875 53.421875 45.625 
Q 55.328125 48.578125 55.328125 52.046875 
Q 55.328125 57.125 51.640625 60.390625 
Q 47.953125 63.671875 39.984375 63.671875 
L 17.328125 63.671875 
z
" id="ArialMT-82"/>
     <path d="M 3.078125 15.484375 
L 11.765625 16.84375 
Q 12.5 11.625 15.84375 8.84375 
Q 19.1875 6.0625 25.203125 6.0625 
Q 31.25 6.0625 34.171875 8.515625 
Q 37.109375 10.984375 37.109375 14.3125 
Q 37.109375 17.28125 34.515625 19 
Q 32.71875 20.171875 25.53125 21.96875 
Q 15.875 24.421875 12.140625 26.203125 
Q 8.40625 27.984375 6.46875 31.125 
Q 4.546875 34.28125 4.546875 38.09375 
Q 4.546875 41.546875 6.125 44.5 
Q 7.71875 47.46875 10.453125 49.421875 
Q 12.5 50.921875 16.03125 51.96875 
Q 19.578125 53.03125 23.640625 53.03125 
Q 29.734375 53.03125 34.34375 51.265625 
Q 38.96875 49.515625 41.15625 46.5 
Q 43.359375 43.5 44.1875 38.484375 
L 35.59375 37.3125 
Q 35.015625 41.3125 32.203125 43.546875 
Q 29.390625 45.796875 24.265625 45.796875 
Q 18.21875 45.796875 15.625 43.796875 
Q 13.03125 41.796875 13.03125 39.109375 
Q 13.03125 37.40625 14.109375 36.03125 
Q 15.1875 34.625 17.484375 33.6875 
Q 18.796875 33.203125 25.25 31.453125 
Q 34.578125 28.953125 38.25 27.359375 
Q 41.9375 25.78125 44.03125 22.75 
Q 46.140625 19.734375 46.140625 15.234375 
Q 46.140625 10.84375 43.578125 6.953125 
Q 41.015625 3.078125 36.171875 0.953125 
Q 31.34375 -1.171875 25.25 -1.171875 
Q 15.140625 -1.171875 9.84375 3.03125 
Q 4.546875 7.234375 3.078125 15.484375 
z
" id="ArialMT-115"/>
    </defs>
    <g style="fill:#262626;" transform="translate(448.375843 340.503017)scale(0.12 -0.12)">
     <use xlink:href="#ArialMT-84"/>
     <use x="61.083984" xlink:href="#ArialMT-104"/>
     <use x="116.699219" xlink:href="#ArialMT-101"/>
     <use x="172.314453" xlink:href="#ArialMT-32"/>
     <use x="200.097656" xlink:href="#ArialMT-82"/>
     <use x="272.314453" xlink:href="#ArialMT-101"/>
     <use x="327.929688" xlink:href="#ArialMT-115"/>
     <use x="377.929688" xlink:href="#ArialMT-116"/>
    </g>
   </g>
   <g id="text_22">
    <!-- 21.4% -->
    <g style="fill:#ffffff;" transform="translate(400.61914 315.959358)scale(0.12 -0.12)">
     <use xlink:href="#ArialMT-50"/>
     <use x="55.615234" xlink:href="#ArialMT-49"/>
     <use x="111.230469" xlink:href="#ArialMT-46"/>
     <use x="139.013672" xlink:href="#ArialMT-52"/>
     <use x="194.628906" xlink:href="#ArialMT-37"/>
    </g>
   </g>
   <g id="text_23">
    <!-- locations with most confirmed cases as of 2020-04-18 -->
    <defs>
     <path d="M 16.15625 0 
L 0.296875 51.859375 
L 9.375 51.859375 
L 17.625 21.921875 
L 20.703125 10.796875 
Q 20.90625 11.625 23.390625 21.484375 
L 31.640625 51.859375 
L 40.671875 51.859375 
L 48.4375 21.78125 
L 51.03125 11.859375 
L 54 21.875 
L 62.890625 51.859375 
L 71.4375 51.859375 
L 55.21875 0 
L 46.09375 0 
L 37.84375 31.0625 
L 35.84375 39.890625 
L 25.34375 0 
z
" id="ArialMT-119"/>
     <path d="M 8.6875 0 
L 8.6875 45.015625 
L 0.921875 45.015625 
L 0.921875 51.859375 
L 8.6875 51.859375 
L 8.6875 57.375 
Q 8.6875 62.59375 9.625 65.140625 
Q 10.890625 68.5625 14.078125 70.671875 
Q 17.28125 72.796875 23.046875 72.796875 
Q 26.765625 72.796875 31.25 71.921875 
L 29.9375 64.265625 
Q 27.203125 64.75 24.75 64.75 
Q 20.75 64.75 19.09375 63.03125 
Q 17.4375 61.328125 17.4375 56.640625 
L 17.4375 51.859375 
L 27.546875 51.859375 
L 27.546875 45.015625 
L 17.4375 45.015625 
L 17.4375 0 
z
" id="ArialMT-102"/>
     <path d="M 4.15625 35.296875 
Q 4.15625 48 6.765625 55.734375 
Q 9.375 63.484375 14.515625 67.671875 
Q 19.671875 71.875 27.484375 71.875 
Q 33.25 71.875 37.59375 69.546875 
Q 41.9375 67.234375 44.765625 62.859375 
Q 47.609375 58.5 49.21875 52.21875 
Q 50.828125 45.953125 50.828125 35.296875 
Q 50.828125 22.703125 48.234375 14.96875 
Q 45.65625 7.234375 40.5 3 
Q 35.359375 -1.21875 27.484375 -1.21875 
Q 17.140625 -1.21875 11.234375 6.203125 
Q 4.15625 15.140625 4.15625 35.296875 
z
M 13.1875 35.296875 
Q 13.1875 17.671875 17.3125 11.828125 
Q 21.4375 6 27.484375 6 
Q 33.546875 6 37.671875 11.859375 
Q 41.796875 17.71875 41.796875 35.296875 
Q 41.796875 52.984375 37.671875 58.78125 
Q 33.546875 64.59375 27.390625 64.59375 
Q 21.34375 64.59375 17.71875 59.46875 
Q 13.1875 52.9375 13.1875 35.296875 
z
" id="ArialMT-48"/>
     <path d="M 3.171875 21.484375 
L 3.171875 30.328125 
L 30.171875 30.328125 
L 30.171875 21.484375 
z
" id="ArialMT-45"/>
    </defs>
    <g style="fill:#262626;" transform="translate(135.275761 21.8)scale(0.144 -0.144)">
     <use xlink:href="#ArialMT-108"/>
     <use x="22.216797" xlink:href="#ArialMT-111"/>
     <use x="77.832031" xlink:href="#ArialMT-99"/>
     <use x="127.832031" xlink:href="#ArialMT-97"/>
     <use x="183.447266" xlink:href="#ArialMT-116"/>
     <use x="211.230469" xlink:href="#ArialMT-105"/>
     <use x="233.447266" xlink:href="#ArialMT-111"/>
     <use x="289.0625" xlink:href="#ArialMT-110"/>
     <use x="344.677734" xlink:href="#ArialMT-115"/>
     <use x="394.677734" xlink:href="#ArialMT-32"/>
     <use x="422.460938" xlink:href="#ArialMT-119"/>
     <use x="494.677734" xlink:href="#ArialMT-105"/>
     <use x="516.894531" xlink:href="#ArialMT-116"/>
     <use x="544.677734" xlink:href="#ArialMT-104"/>
     <use x="600.292969" xlink:href="#ArialMT-32"/>
     <use x="628.076172" xlink:href="#ArialMT-109"/>
     <use x="711.376953" xlink:href="#ArialMT-111"/>
     <use x="766.992188" xlink:href="#ArialMT-115"/>
     <use x="816.992188" xlink:href="#ArialMT-116"/>
     <use x="844.775391" xlink:href="#ArialMT-32"/>
     <use x="872.558594" xlink:href="#ArialMT-99"/>
     <use x="922.558594" xlink:href="#ArialMT-111"/>
     <use x="978.173828" xlink:href="#ArialMT-110"/>
     <use x="1033.789062" xlink:href="#ArialMT-102"/>
     <use x="1061.572266" xlink:href="#ArialMT-105"/>
     <use x="1083.789062" xlink:href="#ArialMT-114"/>
     <use x="1117.089844" xlink:href="#ArialMT-109"/>
     <use x="1200.390625" xlink:href="#ArialMT-101"/>
     <use x="1256.005859" xlink:href="#ArialMT-100"/>
     <use x="1311.621094" xlink:href="#ArialMT-32"/>
     <use x="1339.404297" xlink:href="#ArialMT-99"/>
     <use x="1389.404297" xlink:href="#ArialMT-97"/>
     <use x="1445.019531" xlink:href="#ArialMT-115"/>
     <use x="1495.019531" xlink:href="#ArialMT-101"/>
     <use x="1550.634766" xlink:href="#ArialMT-115"/>
     <use x="1600.634766" xlink:href="#ArialMT-32"/>
     <use x="1628.417969" xlink:href="#ArialMT-97"/>
     <use x="1684.033203" xlink:href="#ArialMT-115"/>
     <use x="1734.033203" xlink:href="#ArialMT-32"/>
     <use x="1761.816406" xlink:href="#ArialMT-111"/>
     <use x="1817.431641" xlink:href="#ArialMT-102"/>
     <use x="1845.214844" xlink:href="#ArialMT-32"/>
     <use x="1872.998047" xlink:href="#ArialMT-50"/>
     <use x="1928.613281" xlink:href="#ArialMT-48"/>
     <use x="1984.228516" xlink:href="#ArialMT-50"/>
     <use x="2039.84375" xlink:href="#ArialMT-48"/>
     <use x="2095.458984" xlink:href="#ArialMT-45"/>
     <use x="2128.759766" xlink:href="#ArialMT-48"/>
     <use x="2184.375" xlink:href="#ArialMT-52"/>
     <use x="2239.990234" xlink:href="#ArialMT-45"/>
     <use x="2273.291016" xlink:href="#ArialMT-49"/>
     <use x="2328.90625" xlink:href="#ArialMT-56"/>
    </g>
   </g>
  </g>
  <g id="axes_2">
   <g id="matplotlib.axis_3"/>
   <g id="matplotlib.axis_4"/>
   <g id="patch_15">
    <path d="M 1002.410364 224.5 
C 1002.410364 183.461142 986.35621 144.007668 957.70217 114.628529 
C 929.04813 85.249389 890.00809 68.214491 848.982044 67.189125 
L 845.050364 224.5 
L 1002.410364 224.5 
z
" style="fill:#36464c;stroke:#ffffff;stroke-linejoin:miter;"/>
   </g>
   <g id="patch_16">
    <path d="M 848.982044 67.189125 
C 824.525992 66.577893 800.26102 71.678024 778.120443 82.083164 
C 755.979866 92.488303 736.567743 107.914569 721.430738 127.132872 
L 845.050364 224.5 
L 848.982044 67.189125 
z
" style="fill:#385965;stroke:#ffffff;stroke-linejoin:miter;"/>
   </g>
   <g id="patch_17">
    <path d="M 721.430738 127.132872 
C 708.383529 143.697919 698.798013 162.717721 693.245002 183.059661 
C 687.691991 203.4016 686.283943 224.653716 689.104707 245.550455 
L 845.050364 224.5 
L 721.430738 127.132872 
z
" style="fill:#3b6d80;stroke:#ffffff;stroke-linejoin:miter;"/>
   </g>
   <g id="patch_18">
    <path d="M 689.104707 245.550455 
C 691.826621 265.714894 698.433897 285.161311 708.559731 302.810132 
C 718.685566 320.458953 732.139046 335.977429 748.173298 348.504047 
L 845.050364 224.5 
L 689.104707 245.550455 
z
" style="fill:#3d8099;stroke:#ffffff;stroke-linejoin:miter;"/>
   </g>
   <g id="patch_19">
    <path d="M 748.173298 348.504047 
C 761.004723 358.528484 775.31468 366.500841 790.591443 372.136024 
C 805.868206 377.771207 821.927479 381.001235 838.19498 381.710602 
L 845.050364 224.5 
L 748.173298 348.504047 
z
" style="fill:#4093b2;stroke:#ffffff;stroke-linejoin:miter;"/>
   </g>
   <g id="patch_20">
    <path d="M 838.19498 381.710602 
C 843.908746 381.959758 849.631849 381.897232 855.338807 381.523303 
C 861.045766 381.149373 866.728098 380.464594 872.360503 379.472017 
L 845.050364 224.5 
L 838.19498 381.710602 
z
" style="fill:#43a6cc;stroke:#ffffff;stroke-linejoin:miter;"/>
   </g>
   <g id="patch_21">
    <path d="M 872.360503 379.472017 
C 877.556833 378.556287 882.703818 377.379781 887.78195 375.946958 
C 892.860082 374.514136 897.862937 372.826809 902.771551 370.891373 
L 845.050364 224.5 
L 872.360503 379.472017 
z
" style="fill:#56b0c9;stroke:#ffffff;stroke-linejoin:miter;"/>
   </g>
   <g id="patch_22">
    <path d="M 902.771551 370.891373 
C 907.294631 369.107952 911.732627 367.115862 916.071255 364.921518 
C 920.409883 362.727173 924.644483 360.33293 928.761423 357.746494 
L 845.050364 224.5 
L 902.771551 370.891373 
z
" style="fill:#68bac6;stroke:#ffffff;stroke-linejoin:miter;"/>
   </g>
   <g id="patch_23">
    <path d="M 928.761423 357.746494 
C 932.721127 355.258841 936.567976 352.595917 940.290512 349.765653 
C 944.013049 346.935388 947.607575 343.940595 951.063387 340.790191 
L 845.050364 224.5 
L 928.761423 357.746494 
z
" style="fill:#7cc4c3;stroke:#ffffff;stroke-linejoin:miter;"/>
   </g>
   <g id="patch_24">
    <path d="M 951.063387 340.790191 
C 953.863373 338.237654 956.570258 335.584825 959.178748 332.836889 
C 961.787238 330.088954 964.295631 327.247706 966.699024 324.318701 
L 845.050364 224.5 
L 951.063387 340.790191 
z
" style="fill:#8fcec0;stroke:#ffffff;stroke-linejoin:miter;"/>
   </g>
   <g id="patch_25">
    <path d="M 974.107195 326.969064 
C 985.566904 313.003162 994.536455 297.167544 1000.621964 280.157608 
C 1006.707472 263.147673 1009.818536 245.21611 1009.818535 227.15036 
L 852.458535 227.150362 
L 974.107195 326.969064 
z
" style="fill:#a1d8bd;stroke:#ffffff;stroke-linejoin:miter;"/>
   </g>
   <g id="patch_26">
    <path clip-path="url(#p7bc4c8775a)" d="M 845.050364 334.652 
C 874.263016 334.652 902.283126 323.04569 922.93959 302.389226 
C 943.596054 281.732762 955.202364 253.712652 955.202364 224.5 
C 955.202364 195.287348 943.596054 167.267238 922.93959 146.610774 
C 902.283126 125.95431 874.263016 114.348 845.050364 114.348 
C 815.837712 114.348 787.817602 125.95431 767.161138 146.610774 
C 746.504674 167.267238 734.898364 195.287348 734.898364 224.5 
C 734.898364 253.712652 746.504674 281.732762 767.161138 302.389226 
C 787.817602 323.04569 815.837712 334.652 845.050364 334.652 
z
" style="fill:#ffffff;stroke:#ffffff;stroke-linejoin:miter;"/>
   </g>
   <g id="patch_27">
    <path clip-path="url(#p7bc4c8775a)" d="M 845.050364 334.652 
C 874.263016 334.652 902.283126 323.04569 922.93959 302.389226 
C 943.596054 281.732762 955.202364 253.712652 955.202364 224.5 
C 955.202364 195.287348 943.596054 167.267238 922.93959 146.610774 
C 902.283126 125.95431 874.263016 114.348 845.050364 114.348 
C 815.837712 114.348 787.817602 125.95431 767.161138 146.610774 
C 746.504674 167.267238 734.898364 195.287348 734.898364 224.5 
C 734.898364 253.712652 746.504674 281.732762 767.161138 302.389226 
C 787.817602 323.04569 815.837712 334.652 845.050364 334.652 
z
" style="fill:#ffffff;stroke:#ffffff;stroke-linejoin:miter;"/>
   </g>
   <g id="text_24">
    <!-- US -->
    <g style="fill:#262626;" transform="translate(968.967351 106.743569)scale(0.12 -0.12)">
     <use xlink:href="#ArialMT-85"/>
     <use x="72.216797" xlink:href="#ArialMT-83"/>
    </g>
   </g>
   <g id="text_25">
    <!-- 24.6% -->
    <g style="fill:#ffffff;" transform="translate(923.792524 134.211437)scale(0.12 -0.12)">
     <use xlink:href="#ArialMT-50"/>
     <use x="55.615234" xlink:href="#ArialMT-52"/>
     <use x="111.230469" xlink:href="#ArialMT-46"/>
     <use x="139.013672" xlink:href="#ArialMT-54"/>
     <use x="194.628906" xlink:href="#ArialMT-37"/>
    </g>
   </g>
   <g id="text_26">
    <!-- Italy -->
    <g style="fill:#262626;" transform="translate(749.420576 70.873355)scale(0.12 -0.12)">
     <use xlink:href="#ArialMT-73"/>
     <use x="27.783203" xlink:href="#ArialMT-116"/>
     <use x="55.566406" xlink:href="#ArialMT-97"/>
     <use x="111.181641" xlink:href="#ArialMT-108"/>
     <use x="133.398438" xlink:href="#ArialMT-121"/>
    </g>
   </g>
   <g id="text_27">
    <!-- 14.8% -->
    <g style="fill:#ffffff;" transform="translate(771.148056 106.547877)scale(0.12 -0.12)">
     <use xlink:href="#ArialMT-49"/>
     <use x="55.615234" xlink:href="#ArialMT-52"/>
     <use x="111.230469" xlink:href="#ArialMT-46"/>
     <use x="139.013672" xlink:href="#ArialMT-56"/>
     <use x="194.628906" xlink:href="#ArialMT-37"/>
    </g>
   </g>
   <g id="text_28">
    <!-- Spain -->
    <g style="fill:#262626;" transform="translate(647.374466 182.090939)scale(0.12 -0.12)">
     <use xlink:href="#ArialMT-83"/>
     <use x="66.699219" xlink:href="#ArialMT-112"/>
     <use x="122.314453" xlink:href="#ArialMT-97"/>
     <use x="177.929688" xlink:href="#ArialMT-105"/>
     <use x="200.146484" xlink:href="#ArialMT-110"/>
    </g>
   </g>
   <g id="text_29">
    <!-- 12.8% -->
    <g style="fill:#ffffff;" transform="translate(699.003931 192.377899)scale(0.12 -0.12)">
     <use xlink:href="#ArialMT-49"/>
     <use x="55.615234" xlink:href="#ArialMT-50"/>
     <use x="111.230469" xlink:href="#ArialMT-46"/>
     <use x="139.013672" xlink:href="#ArialMT-56"/>
     <use x="194.628906" xlink:href="#ArialMT-37"/>
    </g>
   </g>
   <g id="text_30">
    <!-- France -->
    <g style="fill:#262626;" transform="translate(657.566293 313.743333)scale(0.12 -0.12)">
     <use xlink:href="#ArialMT-70"/>
     <use x="61.083984" xlink:href="#ArialMT-114"/>
     <use x="94.384766" xlink:href="#ArialMT-97"/>
     <use x="150" xlink:href="#ArialMT-110"/>
     <use x="205.615234" xlink:href="#ArialMT-99"/>
     <use x="255.615234" xlink:href="#ArialMT-101"/>
    </g>
   </g>
   <g id="text_31">
    <!-- 12.3% -->
    <g style="fill:#ffffff;" transform="translate(712.021451 294.1658)scale(0.12 -0.12)">
     <use xlink:href="#ArialMT-49"/>
     <use x="55.615234" xlink:href="#ArialMT-50"/>
     <use x="111.230469" xlink:href="#ArialMT-46"/>
     <use x="139.013672" xlink:href="#ArialMT-51"/>
     <use x="194.628906" xlink:href="#ArialMT-37"/>
    </g>
   </g>
   <g id="text_32">
    <!-- United Kingdom -->
    <g style="fill:#262626;" transform="translate(699.767426 389.931501)scale(0.12 -0.12)">
     <use xlink:href="#ArialMT-85"/>
     <use x="72.216797" xlink:href="#ArialMT-110"/>
     <use x="127.832031" xlink:href="#ArialMT-105"/>
     <use x="150.048828" xlink:href="#ArialMT-116"/>
     <use x="177.832031" xlink:href="#ArialMT-101"/>
     <use x="233.447266" xlink:href="#ArialMT-100"/>
     <use x="289.0625" xlink:href="#ArialMT-32"/>
     <use x="316.845703" xlink:href="#ArialMT-75"/>
     <use x="383.544922" xlink:href="#ArialMT-105"/>
     <use x="405.761719" xlink:href="#ArialMT-110"/>
     <use x="461.376953" xlink:href="#ArialMT-103"/>
     <use x="516.992188" xlink:href="#ArialMT-100"/>
     <use x="572.607422" xlink:href="#ArialMT-111"/>
     <use x="628.222656" xlink:href="#ArialMT-109"/>
    </g>
   </g>
   <g id="text_33">
    <!-- 9.9% -->
    <defs>
     <path d="M 5.46875 16.546875 
L 13.921875 17.328125 
Q 14.984375 11.375 18.015625 8.6875 
Q 21.046875 6 25.78125 6 
Q 29.828125 6 32.875 7.859375 
Q 35.9375 9.71875 37.890625 12.8125 
Q 39.84375 15.921875 41.15625 21.1875 
Q 42.484375 26.46875 42.484375 31.9375 
Q 42.484375 32.515625 42.4375 33.6875 
Q 39.796875 29.5 35.234375 26.875 
Q 30.671875 24.265625 25.34375 24.265625 
Q 16.453125 24.265625 10.296875 30.703125 
Q 4.15625 37.15625 4.15625 47.703125 
Q 4.15625 58.59375 10.578125 65.234375 
Q 17 71.875 26.65625 71.875 
Q 33.640625 71.875 39.421875 68.109375 
Q 45.21875 64.359375 48.21875 57.390625 
Q 51.21875 50.4375 51.21875 37.25 
Q 51.21875 23.53125 48.234375 15.40625 
Q 45.265625 7.28125 39.375 3.03125 
Q 33.5 -1.21875 25.59375 -1.21875 
Q 17.1875 -1.21875 11.859375 3.4375 
Q 6.546875 8.109375 5.46875 16.546875 
z
M 41.453125 48.140625 
Q 41.453125 55.71875 37.421875 60.15625 
Q 33.40625 64.59375 27.734375 64.59375 
Q 21.875 64.59375 17.53125 59.8125 
Q 13.1875 55.03125 13.1875 47.40625 
Q 13.1875 40.578125 17.3125 36.296875 
Q 21.4375 32.03125 27.484375 32.03125 
Q 33.59375 32.03125 37.515625 36.296875 
Q 41.453125 40.578125 41.453125 48.140625 
z
" id="ArialMT-57"/>
    </defs>
    <g style="fill:#ffffff;" transform="translate(785.084969 353.092808)scale(0.12 -0.12)">
     <use xlink:href="#ArialMT-57"/>
     <use x="55.615234" xlink:href="#ArialMT-46"/>
     <use x="83.398438" xlink:href="#ArialMT-57"/>
     <use x="139.013672" xlink:href="#ArialMT-37"/>
    </g>
   </g>
   <g id="text_34">
    <!-- Belgium -->
    <g style="fill:#262626;" transform="translate(856.367652 400.257508)scale(0.12 -0.12)">
     <use xlink:href="#ArialMT-66"/>
     <use x="66.699219" xlink:href="#ArialMT-101"/>
     <use x="122.314453" xlink:href="#ArialMT-108"/>
     <use x="144.53125" xlink:href="#ArialMT-103"/>
     <use x="200.146484" xlink:href="#ArialMT-105"/>
     <use x="222.363281" xlink:href="#ArialMT-117"/>
     <use x="277.978516" xlink:href="#ArialMT-109"/>
    </g>
   </g>
   <g id="text_35">
    <!-- 3.5% -->
    <g style="fill:#ffffff;" transform="translate(840.120228 361.071995)scale(0.12 -0.12)">
     <use xlink:href="#ArialMT-51"/>
     <use x="55.615234" xlink:href="#ArialMT-46"/>
     <use x="83.398438" xlink:href="#ArialMT-53"/>
     <use x="139.013672" xlink:href="#ArialMT-37"/>
    </g>
   </g>
   <g id="text_36">
    <!-- Iran -->
    <g style="fill:#262626;" transform="translate(892.055109 394.193842)scale(0.12 -0.12)">
     <use xlink:href="#ArialMT-73"/>
     <use x="27.783203" xlink:href="#ArialMT-114"/>
     <use x="61.083984" xlink:href="#ArialMT-97"/>
     <use x="116.699219" xlink:href="#ArialMT-110"/>
    </g>
   </g>
   <g id="text_37">
    <!-- 3.2% -->
    <g style="fill:#ffffff;" transform="translate(867.6969 356.332102)scale(0.12 -0.12)">
     <use xlink:href="#ArialMT-51"/>
     <use x="55.615234" xlink:href="#ArialMT-46"/>
     <use x="83.398438" xlink:href="#ArialMT-50"/>
     <use x="139.013672" xlink:href="#ArialMT-37"/>
    </g>
   </g>
   <g id="text_38">
    <!-- China -->
    <g style="fill:#262626;" transform="translate(923.173344 382.065857)scale(0.12 -0.12)">
     <use xlink:href="#ArialMT-67"/>
     <use x="72.216797" xlink:href="#ArialMT-104"/>
     <use x="127.832031" xlink:href="#ArialMT-105"/>
     <use x="150.048828" xlink:href="#ArialMT-110"/>
     <use x="205.664062" xlink:href="#ArialMT-97"/>
    </g>
   </g>
   <g id="text_39">
    <!-- 2.9% -->
    <g style="fill:#ffffff;" transform="translate(891.742809 346.960477)scale(0.12 -0.12)">
     <use xlink:href="#ArialMT-50"/>
     <use x="55.615234" xlink:href="#ArialMT-46"/>
     <use x="83.398438" xlink:href="#ArialMT-57"/>
     <use x="139.013672" xlink:href="#ArialMT-37"/>
    </g>
   </g>
   <g id="text_40">
    <!-- Germany -->
    <g style="fill:#262626;" transform="translate(949.814527 365.397218)scale(0.12 -0.12)">
     <use xlink:href="#ArialMT-71"/>
     <use x="77.783203" xlink:href="#ArialMT-101"/>
     <use x="133.398438" xlink:href="#ArialMT-114"/>
     <use x="166.699219" xlink:href="#ArialMT-109"/>
     <use x="250" xlink:href="#ArialMT-97"/>
     <use x="305.615234" xlink:href="#ArialMT-110"/>
     <use x="361.230469" xlink:href="#ArialMT-121"/>
    </g>
   </g>
   <g id="text_41">
    <!-- 2.8% -->
    <g style="fill:#ffffff;" transform="translate(912.329178 334.077992)scale(0.12 -0.12)">
     <use xlink:href="#ArialMT-50"/>
     <use x="55.615234" xlink:href="#ArialMT-46"/>
     <use x="83.398438" xlink:href="#ArialMT-56"/>
     <use x="139.013672" xlink:href="#ArialMT-37"/>
    </g>
   </g>
   <g id="text_42">
    <!-- Netherlands -->
    <defs>
     <path d="M 7.625 0 
L 7.625 71.578125 
L 17.328125 71.578125 
L 54.9375 15.375 
L 54.9375 71.578125 
L 64.015625 71.578125 
L 64.015625 0 
L 54.296875 0 
L 16.703125 56.25 
L 16.703125 0 
z
" id="ArialMT-78"/>
    </defs>
    <g style="fill:#262626;" transform="translate(970.591586 346.772766)scale(0.12 -0.12)">
     <use xlink:href="#ArialMT-78"/>
     <use x="72.216797" xlink:href="#ArialMT-101"/>
     <use x="127.832031" xlink:href="#ArialMT-116"/>
     <use x="155.615234" xlink:href="#ArialMT-104"/>
     <use x="211.230469" xlink:href="#ArialMT-101"/>
     <use x="266.845703" xlink:href="#ArialMT-114"/>
     <use x="300.146484" xlink:href="#ArialMT-108"/>
     <use x="322.363281" xlink:href="#ArialMT-97"/>
     <use x="377.978516" xlink:href="#ArialMT-110"/>
     <use x="433.59375" xlink:href="#ArialMT-100"/>
     <use x="489.208984" xlink:href="#ArialMT-115"/>
    </g>
   </g>
   <g id="text_43">
    <!-- 2.3% -->
    <g style="fill:#ffffff;" transform="translate(928.384178 319.688544)scale(0.12 -0.12)">
     <use xlink:href="#ArialMT-50"/>
     <use x="55.615234" xlink:href="#ArialMT-46"/>
     <use x="83.398438" xlink:href="#ArialMT-51"/>
     <use x="139.013672" xlink:href="#ArialMT-37"/>
    </g>
   </g>
   <g id="text_44">
    <!-- The Rest -->
    <g style="fill:#262626;" transform="translate(1015.438306 288.56052)scale(0.12 -0.12)">
     <use xlink:href="#ArialMT-84"/>
     <use x="61.083984" xlink:href="#ArialMT-104"/>
     <use x="116.699219" xlink:href="#ArialMT-101"/>
     <use x="172.314453" xlink:href="#ArialMT-32"/>
     <use x="200.097656" xlink:href="#ArialMT-82"/>
     <use x="272.314453" xlink:href="#ArialMT-101"/>
     <use x="327.929688" xlink:href="#ArialMT-115"/>
     <use x="377.929688" xlink:href="#ArialMT-116"/>
    </g>
   </g>
   <g id="text_45">
    <!-- 10.9% -->
    <g style="fill:#ffffff;" transform="translate(961.385574 275.308709)scale(0.12 -0.12)">
     <use xlink:href="#ArialMT-49"/>
     <use x="55.615234" xlink:href="#ArialMT-48"/>
     <use x="111.230469" xlink:href="#ArialMT-46"/>
     <use x="139.013672" xlink:href="#ArialMT-57"/>
     <use x="194.628906" xlink:href="#ArialMT-37"/>
    </g>
   </g>
   <g id="text_46">
    <!-- locations with most deaths as of 2020-04-18 -->
    <g style="fill:#262626;" transform="translate(704.178989 21.8)scale(0.144 -0.144)">
     <use xlink:href="#ArialMT-108"/>
     <use x="22.216797" xlink:href="#ArialMT-111"/>
     <use x="77.832031" xlink:href="#ArialMT-99"/>
     <use x="127.832031" xlink:href="#ArialMT-97"/>
     <use x="183.447266" xlink:href="#ArialMT-116"/>
     <use x="211.230469" xlink:href="#ArialMT-105"/>
     <use x="233.447266" xlink:href="#ArialMT-111"/>
     <use x="289.0625" xlink:href="#ArialMT-110"/>
     <use x="344.677734" xlink:href="#ArialMT-115"/>
     <use x="394.677734" xlink:href="#ArialMT-32"/>
     <use x="422.460938" xlink:href="#ArialMT-119"/>
     <use x="494.677734" xlink:href="#ArialMT-105"/>
     <use x="516.894531" xlink:href="#ArialMT-116"/>
     <use x="544.677734" xlink:href="#ArialMT-104"/>
     <use x="600.292969" xlink:href="#ArialMT-32"/>
     <use x="628.076172" xlink:href="#ArialMT-109"/>
     <use x="711.376953" xlink:href="#ArialMT-111"/>
     <use x="766.992188" xlink:href="#ArialMT-115"/>
     <use x="816.992188" xlink:href="#ArialMT-116"/>
     <use x="844.775391" xlink:href="#ArialMT-32"/>
     <use x="872.558594" xlink:href="#ArialMT-100"/>
     <use x="928.173828" xlink:href="#ArialMT-101"/>
     <use x="983.789062" xlink:href="#ArialMT-97"/>
     <use x="1039.404297" xlink:href="#ArialMT-116"/>
     <use x="1067.1875" xlink:href="#ArialMT-104"/>
     <use x="1122.802734" xlink:href="#ArialMT-115"/>
     <use x="1172.802734" xlink:href="#ArialMT-32"/>
     <use x="1200.585938" xlink:href="#ArialMT-97"/>
     <use x="1256.201172" xlink:href="#ArialMT-115"/>
     <use x="1306.201172" xlink:href="#ArialMT-32"/>
     <use x="1333.984375" xlink:href="#ArialMT-111"/>
     <use x="1389.599609" xlink:href="#ArialMT-102"/>
     <use x="1417.382812" xlink:href="#ArialMT-32"/>
     <use x="1445.166016" xlink:href="#ArialMT-50"/>
     <use x="1500.78125" xlink:href="#ArialMT-48"/>
     <use x="1556.396484" xlink:href="#ArialMT-50"/>
     <use x="1612.011719" xlink:href="#ArialMT-48"/>
     <use x="1667.626953" xlink:href="#ArialMT-45"/>
     <use x="1700.927734" xlink:href="#ArialMT-48"/>
     <use x="1756.542969" xlink:href="#ArialMT-52"/>
     <use x="1812.158203" xlink:href="#ArialMT-45"/>
     <use x="1845.458984" xlink:href="#ArialMT-49"/>
     <use x="1901.074219" xlink:href="#ArialMT-56"/>
    </g>
   </g>
  </g>
 </g>
 <defs>
  <clipPath id="pb5e9d1f94c">
   <rect height="393.4" width="393.4" x="110.249636" y="27.8"/>
  </clipPath>
  <clipPath id="p7bc4c8775a">
   <rect height="393.4" width="393.4" x="648.350364" y="27.8"/>
  </clipPath>
 </defs>
</svg>
